M48
; DRILL file KiCad 10.0.0 date 2026-04-01T12:28:36
; FORMAT={-:-/ absolute / inch / decimal}
; #@! TF.CreationDate,2026-04-01T12:28:36-07:00
; #@! TF.GenerationSoftware,Kicad,Pcbnew,10.0.0
; #@! TF.FileFunction,Plated,1,2,PTH
FMAT,2
INCH
; #@! TA.AperFunction,Plated,PTH,ViaDrill
T1C0.0118
; #@! TA.AperFunction,Plated,PTH,ComponentDrill
T2C0.0300
; #@! TA.AperFunction,Plated,PTH,ComponentDrill
T3C0.0315
; #@! TA.AperFunction,Plated,PTH,ComponentDrill
T4C0.0354
; #@! TA.AperFunction,Plated,PTH,ComponentDrill
T5C0.0394
; #@! TA.AperFunction,Plated,PTH,ComponentDrill
T6C0.0433
%
G90
G05
T1
X1.728Y-2.162
X2.2Y-1.912
X2.83Y-2.8
X3.434Y-1.76
X4.0Y-3.0213
X4.201Y-2.651
X4.202Y-2.606
X4.246Y-2.448
X4.4215Y-1.9053
X4.4447Y-1.8812
X5.006Y-2.606
X5.186Y-1.608
T2
X2.3Y-1.8
X2.4Y-1.8
X2.5Y-1.8
X3.3023Y-1.4173
X3.4023Y-1.4173
X3.5023Y-1.4173
X3.6023Y-1.4173
T3
X1.604Y-2.084
X1.604Y-2.184
X1.604Y-2.284
X1.604Y-2.384
X1.904Y-2.084
X1.904Y-2.184
X1.904Y-2.284
X1.904Y-2.384
X2.0213Y-1.6
X2.1Y-1.6
X2.2Y-2.0811
X2.2Y-2.2406
X2.2Y-2.4
X2.3Y-1.5
X2.5Y-2.0811
X2.5Y-2.2406
X2.5Y-2.4
X2.6Y-1.5
X3.0Y-2.1
X3.0Y-2.4
X3.0Y-2.6031
X3.0Y-2.8
X3.2Y-2.1
X3.2Y-2.4
X3.2Y-2.6031
X3.2Y-2.8
X3.4Y-2.1
X3.4Y-2.4
X3.4Y-2.6031
X3.4Y-2.8
X3.6Y-2.1
X3.6Y-2.4
X3.6Y-2.6031
X3.6Y-2.8
X3.8Y-2.1
X3.8Y-2.4
X3.8Y-2.6031
X3.8Y-2.8
X4.0Y-2.1
X4.0Y-2.4
X4.0Y-2.6031
X4.0Y-2.8
X4.3031Y-2.2
X4.4016Y-2.2
X4.9Y-3.3819
X4.9Y-3.5413
X5.2Y-3.3819
X5.2Y-3.5413
T4
X3.0Y-3.3
X3.1Y-3.3
X4.4Y-2.7
X4.5Y-2.7
X4.6Y-3.3
X4.7Y-3.3
T5
X3.934Y-1.46
X3.934Y-1.7592
X4.7346Y-1.4567
X4.7346Y-1.5567
X4.7346Y-1.6567
X4.7346Y-1.7567
X4.7346Y-1.8567
X4.7346Y-1.9567
X4.7346Y-2.0567
X4.7346Y-2.1567
X4.7346Y-2.2567
X4.7346Y-2.3567
X4.7346Y-2.4567
X4.7346Y-2.5567
X4.7346Y-2.6567
X4.7346Y-2.7567
X4.7346Y-2.8567
X5.3346Y-1.4567
X5.3346Y-1.5567
X5.3346Y-1.6567
X5.3346Y-1.7567
X5.3346Y-1.8567
X5.3346Y-1.9567
X5.3346Y-2.0567
X5.3346Y-2.1567
X5.3346Y-2.2567
X5.3346Y-2.3567
X5.3346Y-2.4567
X5.3346Y-2.5567
X5.3346Y-2.6567
X5.3346Y-2.7567
X5.3346Y-2.8567
T6
X1.6945Y-3.1
X1.6945Y-3.2772
X1.9504Y-3.1
X1.9504Y-3.2772
X2.0457Y-2.7913
X2.0457Y-2.9685
X2.0457Y-3.415
X2.0457Y-3.5921
X2.3016Y-2.7913
X2.3016Y-2.9685
X2.3016Y-3.415
X2.3016Y-3.5921
X2.4Y-3.1
X2.4Y-3.2772
X2.6559Y-3.1
X2.6559Y-3.2772
X3.6441Y-3.272
X3.6441Y-3.528
X3.8213Y-3.272
X3.8213Y-3.528
X4.1228Y-3.1441
X4.1228Y-3.4
X4.3Y-3.1441
X4.3Y-3.4
M30
