%TF.GenerationSoftware,KiCad,Pcbnew,10.0.0*%
%TF.CreationDate,2026-04-01T12:28:40-07:00*%
%TF.ProjectId,GamePad,47616d65-5061-4642-9e6b-696361645f70,rev?*%
%TF.SameCoordinates,Original*%
%TF.FileFunction,Soldermask,Top*%
%TF.FilePolarity,Negative*%
%FSLAX46Y46*%
G04 Gerber Fmt 4.6, Leading zero omitted, Abs format (unit mm)*
G04 Created by KiCad (PCBNEW 10.0.0) date 2026-04-01 12:28:40*
%MOMM*%
%LPD*%
G01*
G04 APERTURE LIST*
G04 Aperture macros list*
%AMRoundRect*
0 Rectangle with rounded corners*
0 $1 Rounding radius*
0 $2 $3 $4 $5 $6 $7 $8 $9 X,Y pos of 4 corners*
0 Add a 4 corners polygon primitive as box body*
4,1,4,$2,$3,$4,$5,$6,$7,$8,$9,$2,$3,0*
0 Add four circle primitives for the rounded corners*
1,1,$1+$1,$2,$3*
1,1,$1+$1,$4,$5*
1,1,$1+$1,$6,$7*
1,1,$1+$1,$8,$9*
0 Add four rect primitives between the rounded corners*
20,1,$1+$1,$2,$3,$4,$5,0*
20,1,$1+$1,$4,$5,$6,$7,0*
20,1,$1+$1,$6,$7,$8,$9,0*
20,1,$1+$1,$8,$9,$2,$3,0*%
G04 Aperture macros list end*
%ADD10RoundRect,0.050800X-0.762000X-0.762000X0.762000X-0.762000X0.762000X0.762000X-0.762000X0.762000X0*%
%ADD11C,2.101600*%
%ADD12C,1.701600*%
%ADD13RoundRect,0.265875X0.584925X0.584925X-0.584925X0.584925X-0.584925X-0.584925X0.584925X-0.584925X0*%
%ADD14RoundRect,0.050800X-0.900000X-0.900000X0.900000X-0.900000X0.900000X0.900000X-0.900000X0.900000X0*%
%ADD15C,1.901600*%
%ADD16C,2.601600*%
%ADD17RoundRect,0.265875X-0.584925X-0.584925X0.584925X-0.584925X0.584925X0.584925X-0.584925X0.584925X0*%
%ADD18C,1.625600*%
%ADD19RoundRect,0.271166X-0.379634X-0.679634X0.379634X-0.679634X0.379634X0.679634X-0.379634X0.679634X0*%
%ADD20O,1.301600X1.901600*%
%ADD21RoundRect,0.050800X-1.000000X1.000000X-1.000000X-1.000000X1.000000X-1.000000X1.000000X1.000000X0*%
%ADD22RoundRect,0.050800X0.800000X0.800000X-0.800000X0.800000X-0.800000X-0.800000X0.800000X-0.800000X0*%
%ADD23O,1.701600X1.701600*%
G04 APERTURE END LIST*
D10*
%TO.C,U2*%
X91498095Y-36000000D03*
X88958095Y-36000000D03*
X86418095Y-36000000D03*
X83878095Y-36000000D03*
%TD*%
D11*
%TO.C,SW5*%
X43040000Y-78740000D03*
X49540000Y-78740000D03*
X43040000Y-83240000D03*
X49540000Y-83240000D03*
%TD*%
D12*
%TO.C,R2*%
X55880000Y-56910000D03*
X63500000Y-56910000D03*
%TD*%
D13*
%TO.C,C1*%
X111800000Y-55880000D03*
D12*
X109300000Y-55880000D03*
%TD*%
%TO.C,R9*%
X76200000Y-60960000D03*
X76200000Y-53340000D03*
%TD*%
D14*
%TO.C,D4*%
X116840000Y-83820000D03*
D15*
X119380000Y-83820000D03*
%TD*%
D14*
%TO.C,D1*%
X76200000Y-83820000D03*
D15*
X78740000Y-83820000D03*
%TD*%
D16*
%TO.C,H2*%
X115000000Y-91500000D03*
%TD*%
D12*
%TO.C,R4*%
X96520000Y-60960000D03*
X96520000Y-53340000D03*
%TD*%
D17*
%TO.C,D2*%
X58420000Y-38100000D03*
D12*
X66040000Y-38100000D03*
%TD*%
%TO.C,C4*%
X91440000Y-66120000D03*
X91440000Y-71120000D03*
%TD*%
D14*
%TO.C,D3*%
X111760000Y-68580000D03*
D15*
X114300000Y-68580000D03*
%TD*%
D11*
%TO.C,SW3*%
X104720000Y-86360000D03*
X104720000Y-79860000D03*
X109220000Y-86360000D03*
X109220000Y-79860000D03*
%TD*%
D12*
%TO.C,R5*%
X101600000Y-60960000D03*
X101600000Y-53340000D03*
%TD*%
D18*
%TO.C,SW1*%
X60960000Y-45720000D03*
X63500000Y-45720000D03*
X58420000Y-45720000D03*
%TD*%
D12*
%TO.C,C7*%
X76200000Y-66120000D03*
X76200000Y-71120000D03*
%TD*%
%TO.C,C6*%
X81280000Y-66120000D03*
X81280000Y-71120000D03*
%TD*%
%TO.C,R8*%
X81280000Y-60960000D03*
X81280000Y-53340000D03*
%TD*%
%TO.C,R11*%
X132080000Y-85900000D03*
X124460000Y-85900000D03*
%TD*%
%TO.C,R10*%
X132080000Y-89950000D03*
X124460000Y-89950000D03*
%TD*%
D19*
%TO.C,J1*%
X51340000Y-40640000D03*
D20*
X53340000Y-40640000D03*
%TD*%
D11*
%TO.C,SW7*%
X60960000Y-78740000D03*
X67460000Y-78740000D03*
X60960000Y-83240000D03*
X67460000Y-83240000D03*
%TD*%
%TO.C,SW6*%
X51960000Y-86740000D03*
X58460000Y-86740000D03*
X51960000Y-91240000D03*
X58460000Y-91240000D03*
%TD*%
D21*
%TO.C,BZ1*%
X99923600Y-37084000D03*
D11*
X99923600Y-44684000D03*
%TD*%
D12*
%TO.C,R6*%
X91440000Y-60960000D03*
X91440000Y-53340000D03*
%TD*%
%TO.C,R1*%
X55880000Y-52860000D03*
X63500000Y-52860000D03*
%TD*%
D11*
%TO.C,SW2*%
X92560000Y-89610000D03*
X92560000Y-83110000D03*
X97060000Y-89610000D03*
X97060000Y-83110000D03*
%TD*%
D12*
%TO.C,C2*%
X96520000Y-66120000D03*
X96520000Y-71120000D03*
%TD*%
D22*
%TO.C,A1*%
X135500000Y-72560000D03*
D23*
X135500000Y-70020000D03*
X135500000Y-67480000D03*
X135500000Y-64940000D03*
X135500000Y-62400000D03*
X135500000Y-59860000D03*
X135500000Y-57320000D03*
X135500000Y-54780000D03*
X135500000Y-52240000D03*
X135500000Y-49700000D03*
X135500000Y-47160000D03*
X135500000Y-44620000D03*
X135500000Y-42080000D03*
X135500000Y-39540000D03*
X135500000Y-37000000D03*
X120260000Y-37000000D03*
X120260000Y-39540000D03*
X120260000Y-42080000D03*
X120260000Y-44620000D03*
X120260000Y-47160000D03*
X120260000Y-49700000D03*
X120260000Y-52240000D03*
X120260000Y-54780000D03*
X120260000Y-57320000D03*
X120260000Y-59860000D03*
X120260000Y-62400000D03*
X120260000Y-64940000D03*
X120260000Y-67480000D03*
X120260000Y-70020000D03*
X120260000Y-72560000D03*
%TD*%
D16*
%TO.C,H4*%
X115000000Y-36500000D03*
%TD*%
D12*
%TO.C,R7*%
X86360000Y-60960000D03*
X86360000Y-53340000D03*
%TD*%
D17*
%TO.C,U1*%
X40741600Y-52933600D03*
D12*
X40741600Y-55473600D03*
X40741600Y-58013600D03*
X40741600Y-60553600D03*
X48361600Y-60553600D03*
X48361600Y-58013600D03*
X48361600Y-55473600D03*
X48361600Y-52933600D03*
%TD*%
%TO.C,C5*%
X86360000Y-66120000D03*
X86360000Y-71120000D03*
%TD*%
%TO.C,C3*%
X101600000Y-66120000D03*
X101600000Y-71120000D03*
%TD*%
D16*
%TO.C,H3*%
X42000000Y-91500000D03*
%TD*%
D11*
%TO.C,SW4*%
X51960000Y-70900000D03*
X58460000Y-70900000D03*
X51960000Y-75400000D03*
X58460000Y-75400000D03*
%TD*%
D16*
%TO.C,H1*%
X42000000Y-36500000D03*
%TD*%
D12*
%TO.C,R3*%
X55880000Y-60960000D03*
X63500000Y-60960000D03*
%TD*%
M02*
