%TF.GenerationSoftware,KiCad,Pcbnew,10.0.0*%
%TF.CreationDate,2026-04-01T12:28:40-07:00*%
%TF.ProjectId,GamePad,47616d65-5061-4642-9e6b-696361645f70,rev?*%
%TF.SameCoordinates,Original*%
%TF.FileFunction,Legend,Top*%
%TF.FilePolarity,Positive*%
%FSLAX46Y46*%
G04 Gerber Fmt 4.6, Leading zero omitted, Abs format (unit mm)*
G04 Created by KiCad (PCBNEW 10.0.0) date 2026-04-01 12:28:40*
%MOMM*%
%LPD*%
G01*
G04 APERTURE LIST*
%ADD10C,0.228600*%
%ADD11C,0.508000*%
%ADD12C,0.100000*%
%ADD13C,0.127000*%
%ADD14C,0.203200*%
%ADD15C,0.150000*%
%ADD16C,0.120000*%
G04 APERTURE END LIST*
D10*
G36*
X77064701Y-93047982D02*
G01*
X77279879Y-93047982D01*
X77389239Y-93047982D01*
X77430882Y-93047982D01*
X77434973Y-93097441D01*
X77435645Y-93109470D01*
X77432897Y-93146229D01*
X77432226Y-93167417D01*
X77432226Y-93180117D01*
X77062014Y-93180850D01*
X77061282Y-93150075D01*
X77062625Y-93110936D01*
X77063358Y-93094815D01*
X77062625Y-93059889D01*
X77064701Y-93047982D01*
G37*
G36*
X78335436Y-92508694D02*
G01*
X78379155Y-92508694D01*
X78431891Y-92512044D01*
X78491873Y-92524325D01*
X78547866Y-92547162D01*
X78580588Y-92567014D01*
X78608316Y-92591370D01*
X78630721Y-92620018D01*
X78646235Y-92651576D01*
X78655448Y-92685708D01*
X78658569Y-92722284D01*
X78653852Y-92762112D01*
X78640129Y-92796839D01*
X78617654Y-92827716D01*
X78584075Y-92857717D01*
X78495964Y-92902596D01*
X78561890Y-92923791D01*
X78613403Y-92952711D01*
X78653073Y-92988936D01*
X78683467Y-93033087D01*
X78701145Y-93079240D01*
X78707051Y-93128582D01*
X78702925Y-93174561D01*
X78689954Y-93224264D01*
X78673647Y-93259950D01*
X78648311Y-93293629D01*
X78607357Y-93331373D01*
X78565940Y-93357377D01*
X78518024Y-93375849D01*
X78446139Y-93392731D01*
X78402894Y-93397638D01*
X78330001Y-93399692D01*
X78213864Y-93391876D01*
X78038314Y-93398043D01*
X77878457Y-93403600D01*
X77879801Y-93348645D01*
X77919429Y-93341073D01*
X77991847Y-93329716D01*
X78004120Y-93299674D01*
X78009616Y-93187139D01*
X78009390Y-93140489D01*
X78196095Y-93140489D01*
X78198110Y-93299918D01*
X78204949Y-93326236D01*
X78249024Y-93340565D01*
X78287625Y-93344981D01*
X78361233Y-93338449D01*
X78414692Y-93321106D01*
X78445178Y-93302549D01*
X78468796Y-93280323D01*
X78486439Y-93254184D01*
X78502918Y-93207780D01*
X78508970Y-93146717D01*
X78505882Y-93102869D01*
X78497403Y-93067852D01*
X78484363Y-93039983D01*
X78458916Y-93005827D01*
X78431454Y-92981476D01*
X78401686Y-92965428D01*
X78346961Y-92951954D01*
X78256179Y-92946377D01*
X78216517Y-92948311D01*
X78196767Y-92952605D01*
X78196767Y-93037846D01*
X78196095Y-93140489D01*
X78009390Y-93140489D01*
X78008211Y-92897162D01*
X78003448Y-92661773D01*
X78000477Y-92615373D01*
X77996610Y-92598331D01*
X77989771Y-92591492D01*
X77976237Y-92586024D01*
X77948799Y-92582638D01*
X77912887Y-92578608D01*
X78192004Y-92578608D01*
X78193347Y-92622999D01*
X78196767Y-92782978D01*
X78196095Y-92839399D01*
X78196767Y-92883790D01*
X78261003Y-92887759D01*
X78328618Y-92882874D01*
X78379004Y-92869861D01*
X78416036Y-92850451D01*
X78443994Y-92821547D01*
X78461950Y-92780150D01*
X78468670Y-92721735D01*
X78463091Y-92681010D01*
X78446733Y-92645669D01*
X78418783Y-92614268D01*
X78383003Y-92591704D01*
X78334243Y-92576793D01*
X78268513Y-92571220D01*
X78192004Y-92578608D01*
X77912887Y-92578608D01*
X77881877Y-92575128D01*
X77879801Y-92520417D01*
X78032819Y-92516998D01*
X78256179Y-92509365D01*
X78282862Y-92508694D01*
X78299227Y-92507961D01*
X78335436Y-92508694D01*
G37*
G36*
X78765975Y-92845077D02*
G01*
X78805603Y-92840864D01*
X78824043Y-92841963D01*
X78925160Y-92848680D01*
X78960636Y-92848680D01*
X79057662Y-92840864D01*
X79067248Y-92850451D01*
X79063829Y-92891666D01*
X79048136Y-92894414D01*
X79024933Y-92898139D01*
X79008508Y-92901192D01*
X79000139Y-92905253D01*
X78996906Y-92910778D01*
X79005088Y-92938073D01*
X79037878Y-93004934D01*
X79078005Y-93098164D01*
X79117806Y-93180850D01*
X79156030Y-93259313D01*
X79208665Y-93124979D01*
X79271496Y-92956513D01*
X79274244Y-92938744D01*
X79270153Y-92916213D01*
X79245545Y-92902291D01*
X79201154Y-92895086D01*
X79179295Y-92889651D01*
X79177219Y-92879576D01*
X79176547Y-92868830D01*
X79178562Y-92850145D01*
X79207932Y-92848680D01*
X79263314Y-92854236D01*
X79300195Y-92856496D01*
X79380795Y-92849596D01*
X79434101Y-92844772D01*
X79435444Y-92870295D01*
X79434773Y-92882385D01*
X79407417Y-92891789D01*
X79364370Y-92903268D01*
X79350753Y-92916885D01*
X79303614Y-93030152D01*
X79254399Y-93161860D01*
X79140338Y-93433458D01*
X79061753Y-93613587D01*
X79033100Y-93662580D01*
X79000936Y-93702980D01*
X78986891Y-93715665D01*
X78970894Y-93724840D01*
X78941659Y-93732923D01*
X78907391Y-93735770D01*
X78869778Y-93731007D01*
X78843846Y-93720349D01*
X78821296Y-93701637D01*
X78810383Y-93684383D01*
X78806946Y-93666832D01*
X78810326Y-93643049D01*
X78820675Y-93620078D01*
X78839064Y-93597223D01*
X78866483Y-93582899D01*
X78881440Y-93579454D01*
X78912204Y-93586391D01*
X78953126Y-93611572D01*
X78971960Y-93624103D01*
X78983900Y-93627265D01*
X78994005Y-93624225D01*
X79002341Y-93614259D01*
X79055318Y-93506684D01*
X79078850Y-93450433D01*
X78952515Y-93172729D01*
X78884261Y-93018770D01*
X78843888Y-92938744D01*
X78816899Y-92896246D01*
X78792658Y-92884706D01*
X78772142Y-92876035D01*
X78765975Y-92845077D01*
G37*
G36*
X79809563Y-93399692D02*
G01*
X79811578Y-93352797D01*
X79868807Y-93342222D01*
X79902415Y-93330174D01*
X79920205Y-93317809D01*
X79931748Y-93294274D01*
X79943408Y-93232141D01*
X79952323Y-92988936D01*
X79962581Y-92741640D01*
X79963925Y-92714346D01*
X79959839Y-92630486D01*
X79952629Y-92606330D01*
X79932662Y-92594569D01*
X79864884Y-92577875D01*
X79834842Y-92571220D01*
X79833438Y-92540995D01*
X79833438Y-92518647D01*
X79892911Y-92516509D01*
X80093068Y-92522066D01*
X80112180Y-92523226D01*
X80143626Y-92524325D01*
X80166830Y-92562671D01*
X80233752Y-92706775D01*
X80241263Y-92726436D01*
X80347813Y-92957001D01*
X80358743Y-92980815D01*
X80379931Y-93027282D01*
X80402829Y-93076070D01*
X80425727Y-93122842D01*
X80444167Y-93086694D01*
X80497473Y-92971534D01*
X80545500Y-92866007D01*
X80619717Y-92687968D01*
X80660383Y-92595583D01*
X80691463Y-92530492D01*
X80699399Y-92526685D01*
X80716071Y-92524997D01*
X80737259Y-92524325D01*
X80822622Y-92520906D01*
X80937721Y-92516387D01*
X80986570Y-92512602D01*
X81002934Y-92514067D01*
X81003606Y-92529943D01*
X81002262Y-92551680D01*
X81001590Y-92571220D01*
X80940738Y-92583132D01*
X80897116Y-92598148D01*
X80875182Y-92613662D01*
X80869089Y-92630205D01*
X80869089Y-92640463D01*
X80880690Y-92849535D01*
X80891620Y-93134505D01*
X80900535Y-93280074D01*
X80901878Y-93297171D01*
X80904377Y-93312334D01*
X80909022Y-93319275D01*
X81031632Y-93360613D01*
X81032304Y-93376244D01*
X81031632Y-93403600D01*
X80938698Y-93395784D01*
X80865334Y-93389849D01*
X80799357Y-93387968D01*
X80606711Y-93394196D01*
X80582836Y-93395784D01*
X80584179Y-93352797D01*
X80614666Y-93343045D01*
X80658674Y-93333929D01*
X80687509Y-93325437D01*
X80700317Y-93315061D01*
X80706179Y-93295886D01*
X80709232Y-93240995D01*
X80708560Y-93201427D01*
X80704469Y-93002064D01*
X80692806Y-92761058D01*
X80688044Y-92690044D01*
X80517929Y-93078512D01*
X80499488Y-93117896D01*
X80478361Y-93163387D01*
X80430829Y-93281958D01*
X80405211Y-93355545D01*
X80388846Y-93399692D01*
X80336212Y-93399692D01*
X80299331Y-93295644D01*
X80243339Y-93171935D01*
X80207130Y-93093777D01*
X80198215Y-93075398D01*
X80190033Y-93058423D01*
X80188018Y-93051584D01*
X80086229Y-92833354D01*
X80024070Y-92700791D01*
X80018574Y-93023924D01*
X80013811Y-93233606D01*
X80019480Y-93283632D01*
X80033290Y-93311886D01*
X80059707Y-93331519D01*
X80116943Y-93351942D01*
X80149733Y-93360613D01*
X80149733Y-93399692D01*
X80064675Y-93395539D01*
X79944080Y-93391876D01*
X79809563Y-93399692D01*
G37*
G36*
X81120293Y-93399692D02*
G01*
X81120293Y-93350599D01*
X81165416Y-93339058D01*
X81206757Y-93327183D01*
X81231667Y-93316710D01*
X81240519Y-93293274D01*
X81243940Y-93258519D01*
X81243269Y-93178652D01*
X81244673Y-93024351D01*
X81243940Y-92987776D01*
X81248764Y-92849718D01*
X81247360Y-92759714D01*
X81249436Y-92723200D01*
X81246017Y-92646019D01*
X81245345Y-92616954D01*
X81240521Y-92595278D01*
X81207960Y-92585555D01*
X81149663Y-92579036D01*
X81125788Y-92571220D01*
X81123712Y-92512602D01*
X81319106Y-92519318D01*
X81364169Y-92520417D01*
X81493312Y-92515960D01*
X81556144Y-92512602D01*
X81556816Y-92533790D01*
X81555472Y-92562977D01*
X81492946Y-92583921D01*
X81435244Y-92604071D01*
X81431153Y-92654812D01*
X81433168Y-92702195D01*
X81431153Y-92878172D01*
X81431824Y-93056836D01*
X81429748Y-93147511D01*
X81431153Y-93282882D01*
X81430481Y-93308589D01*
X81433168Y-93324160D01*
X81509005Y-93336311D01*
X81550709Y-93341745D01*
X81553396Y-93375023D01*
X81552724Y-93397677D01*
X81539047Y-93398348D01*
X81513768Y-93399692D01*
X81495999Y-93397860D01*
X81405141Y-93389189D01*
X81284241Y-93387968D01*
X81179033Y-93394868D01*
X81120293Y-93399692D01*
G37*
G36*
X81655123Y-93364093D02*
G01*
X81723403Y-93332285D01*
X81777428Y-93313169D01*
X81788804Y-93303340D01*
X81795197Y-93290820D01*
X81797779Y-93267485D01*
X81799288Y-93183109D01*
X81797212Y-93133528D01*
X81797212Y-93117042D01*
X81797883Y-92971106D01*
X81797212Y-92867853D01*
X81798616Y-92837567D01*
X81798616Y-92810089D01*
X81800631Y-92779071D01*
X81797212Y-92748784D01*
X81797883Y-92741213D01*
X81799288Y-92713736D01*
X81796247Y-92645505D01*
X81789029Y-92605658D01*
X81759320Y-92590691D01*
X81707086Y-92575006D01*
X81657871Y-92557787D01*
X81662634Y-92512602D01*
X81686570Y-92511258D01*
X81789701Y-92515838D01*
X81922264Y-92520417D01*
X81991934Y-92517425D01*
X82071191Y-92513823D01*
X82099890Y-92511930D01*
X82119673Y-92512602D01*
X82121688Y-92529271D01*
X82119673Y-92562549D01*
X82076793Y-92576169D01*
X82036997Y-92585020D01*
X82001652Y-92592694D01*
X81991873Y-92597232D01*
X81985413Y-92606957D01*
X81983019Y-92621717D01*
X81983019Y-92674779D01*
X81984424Y-92711476D01*
X81985767Y-92767225D01*
X81984424Y-92812837D01*
X81984424Y-92864494D01*
X81983019Y-92913465D01*
X81983691Y-92922991D01*
X82036301Y-92874821D01*
X82114849Y-92796106D01*
X82175666Y-92735046D01*
X82271959Y-92634601D01*
X82302062Y-92586546D01*
X82296566Y-92581783D01*
X82233063Y-92574517D01*
X82186596Y-92566640D01*
X82185252Y-92522371D01*
X82185924Y-92512602D01*
X82215966Y-92512602D01*
X82273668Y-92516509D01*
X82328684Y-92520417D01*
X82493304Y-92518341D01*
X82579399Y-92512602D01*
X82578728Y-92567312D01*
X82533665Y-92576593D01*
X82422962Y-92615672D01*
X82365565Y-92651698D01*
X82259685Y-92745487D01*
X82134694Y-92864800D01*
X82166140Y-92899604D01*
X82188672Y-92922746D01*
X82203693Y-92939843D01*
X82348468Y-93106906D01*
X82468696Y-93256260D01*
X82496723Y-93291065D01*
X82507653Y-93303338D01*
X82524017Y-93323427D01*
X82552044Y-93335028D01*
X82610113Y-93362078D01*
X82611517Y-93378259D01*
X82608769Y-93399692D01*
X82533604Y-93398287D01*
X82491960Y-93394746D01*
X82424977Y-93391204D01*
X82410627Y-93391876D01*
X82316350Y-93391204D01*
X82240573Y-93396578D01*
X82196854Y-93399692D01*
X82180429Y-93399081D01*
X82177009Y-93383877D01*
X82179757Y-93362750D01*
X82240573Y-93344859D01*
X82261405Y-93339044D01*
X82271287Y-93332708D01*
X82278797Y-93315123D01*
X82276782Y-93303948D01*
X82255594Y-93265847D01*
X82158569Y-93154533D01*
X81985095Y-92958772D01*
X81982348Y-93014337D01*
X81985095Y-93087793D01*
X81987110Y-93177675D01*
X81985767Y-93240140D01*
X81988515Y-93308101D01*
X82012460Y-93326305D01*
X82056842Y-93344981D01*
X82084503Y-93353413D01*
X82108743Y-93364643D01*
X82110758Y-93383083D01*
X82109415Y-93398470D01*
X82059528Y-93399692D01*
X82027410Y-93398898D01*
X81930446Y-93393463D01*
X81891489Y-93391876D01*
X81841603Y-93393891D01*
X81720703Y-93397616D01*
X81655795Y-93399692D01*
X81655123Y-93364093D01*
G37*
G36*
X82621898Y-93399692D02*
G01*
X82621898Y-93350599D01*
X82667021Y-93339058D01*
X82708362Y-93327183D01*
X82733272Y-93316710D01*
X82742124Y-93293274D01*
X82745545Y-93258519D01*
X82744874Y-93178652D01*
X82746278Y-93024351D01*
X82745545Y-92987776D01*
X82750369Y-92849718D01*
X82748965Y-92759714D01*
X82751041Y-92723200D01*
X82747622Y-92646019D01*
X82746950Y-92616954D01*
X82742126Y-92595278D01*
X82709565Y-92585555D01*
X82651268Y-92579036D01*
X82627393Y-92571220D01*
X82625317Y-92512602D01*
X82820711Y-92519318D01*
X82865774Y-92520417D01*
X82994917Y-92515960D01*
X83057749Y-92512602D01*
X83058421Y-92533790D01*
X83057077Y-92562977D01*
X82994551Y-92583921D01*
X82936849Y-92604071D01*
X82932758Y-92654812D01*
X82934773Y-92702195D01*
X82932758Y-92878172D01*
X82933429Y-93056836D01*
X82931353Y-93147511D01*
X82932758Y-93282882D01*
X82932086Y-93308589D01*
X82934773Y-93324160D01*
X83010610Y-93336311D01*
X83052315Y-93341745D01*
X83055001Y-93375023D01*
X83054330Y-93397677D01*
X83040652Y-93398348D01*
X83015373Y-93399692D01*
X82997604Y-93397860D01*
X82906746Y-93389189D01*
X82785846Y-93387968D01*
X82680638Y-93394868D01*
X82621898Y-93399692D01*
G37*
G36*
X83127358Y-92567312D02*
G01*
X83124610Y-92520417D01*
X83182679Y-92520417D01*
X83202524Y-92520417D01*
X83259188Y-92519074D01*
X83307060Y-92520417D01*
X83322081Y-92521150D01*
X83365067Y-92516571D01*
X83406772Y-92511930D01*
X83427960Y-92512602D01*
X83599418Y-92677221D01*
X84083019Y-93160028D01*
X84083019Y-93143176D01*
X84080272Y-93065079D01*
X84074837Y-92956330D01*
X84070685Y-92860648D01*
X84065922Y-92759959D01*
X84057740Y-92658231D01*
X84054184Y-92618994D01*
X84048154Y-92605048D01*
X84028473Y-92593465D01*
X83982574Y-92582821D01*
X83947601Y-92575268D01*
X83926582Y-92567312D01*
X83927253Y-92520417D01*
X83945022Y-92518341D01*
X84079600Y-92516509D01*
X84229931Y-92509793D01*
X84258630Y-92508694D01*
X84259302Y-92559496D01*
X84227184Y-92571647D01*
X84176625Y-92585813D01*
X84139012Y-92609505D01*
X84134645Y-92618977D01*
X84132906Y-92634479D01*
X84134249Y-92662872D01*
X84134921Y-92719597D01*
X84140416Y-92874325D01*
X84142492Y-92915541D01*
X84150003Y-93152640D01*
X84150675Y-93187811D01*
X84150675Y-93270915D01*
X84152751Y-93306024D01*
X84150675Y-93342478D01*
X84153422Y-93375634D01*
X84153422Y-93411415D01*
X84074837Y-93419231D01*
X83993565Y-93335273D01*
X83827541Y-93170775D01*
X83711404Y-93054760D01*
X83626041Y-92967382D01*
X83474427Y-92823340D01*
X83363052Y-92723017D01*
X83369220Y-92980082D01*
X83369891Y-93028442D01*
X83369159Y-93077535D01*
X83373250Y-93168027D01*
X83380821Y-93291065D01*
X83384241Y-93316283D01*
X83392423Y-93337349D01*
X83426925Y-93344787D01*
X83508560Y-93351881D01*
X83526329Y-93356705D01*
X83529015Y-93403600D01*
X83502393Y-93404271D01*
X83364396Y-93395784D01*
X83219560Y-93402378D01*
X83179931Y-93406347D01*
X83157400Y-93403600D01*
X83156057Y-93374779D01*
X83156728Y-93348889D01*
X83188175Y-93345470D01*
X83214797Y-93346813D01*
X83266349Y-93343816D01*
X83282758Y-93338265D01*
X83290192Y-93325508D01*
X83294726Y-93292164D01*
X83299488Y-93159479D01*
X83299488Y-93121865D01*
X83300893Y-92899665D01*
X83298817Y-92760813D01*
X83295307Y-92687554D01*
X83288558Y-92650721D01*
X83282604Y-92636060D01*
X83272866Y-92623366D01*
X83247325Y-92601672D01*
X83219560Y-92586485D01*
X83194752Y-92579439D01*
X83127358Y-92567312D01*
G37*
G36*
X84475212Y-93219929D02*
G01*
X84515231Y-93226840D01*
X84547936Y-93247101D01*
X84570528Y-93276698D01*
X84577672Y-93308833D01*
X84572497Y-93350505D01*
X84559232Y-93376672D01*
X84535296Y-93398526D01*
X84509208Y-93411098D01*
X84479975Y-93415323D01*
X84439705Y-93408192D01*
X84408229Y-93387541D01*
X84387399Y-93356336D01*
X84380263Y-93316954D01*
X84383734Y-93290296D01*
X84393940Y-93266762D01*
X84407732Y-93249922D01*
X84434912Y-93228722D01*
X84449480Y-93222507D01*
X84475212Y-93219929D01*
G37*
G36*
X84684223Y-92557603D02*
G01*
X84683551Y-92508694D01*
X84846828Y-92517181D01*
X84919917Y-92516509D01*
X84946540Y-92516509D01*
X85077027Y-92511930D01*
X85140591Y-92508694D01*
X85221340Y-92511485D01*
X85270345Y-92518219D01*
X85332628Y-92536854D01*
X85376590Y-92561817D01*
X85412120Y-92596921D01*
X85444185Y-92647302D01*
X85465961Y-92702615D01*
X85472578Y-92750433D01*
X85467589Y-92808673D01*
X85453293Y-92859285D01*
X85430131Y-92903666D01*
X85397779Y-92942835D01*
X85358185Y-92974987D01*
X85314147Y-92997855D01*
X85264778Y-93011864D01*
X85208857Y-93016719D01*
X85169871Y-93014299D01*
X85133386Y-93007193D01*
X85098607Y-92995272D01*
X85066097Y-92978617D01*
X85062677Y-92924090D01*
X85092414Y-92926166D01*
X85115983Y-92926837D01*
X85153554Y-92923079D01*
X85185750Y-92912310D01*
X85213681Y-92894720D01*
X85241665Y-92863128D01*
X85259598Y-92819371D01*
X85266254Y-92759287D01*
X85260038Y-92696021D01*
X85243356Y-92649500D01*
X85217160Y-92612453D01*
X85189073Y-92591736D01*
X85143372Y-92576507D01*
X85090704Y-92571220D01*
X85043649Y-92575667D01*
X85017615Y-92586241D01*
X85009371Y-92603338D01*
X85014195Y-92925983D01*
X85012791Y-92953338D01*
X85014867Y-92982158D01*
X85015539Y-93010246D01*
X85015539Y-93066422D01*
X85016210Y-93156120D01*
X85014867Y-93262977D01*
X85018958Y-93323976D01*
X85154879Y-93341073D01*
X85157627Y-93366047D01*
X85154207Y-93393708D01*
X85128257Y-93395784D01*
X85048328Y-93391876D01*
X84914422Y-93387968D01*
X84830870Y-93391012D01*
X84753222Y-93399875D01*
X84712250Y-93403600D01*
X84709502Y-93373741D01*
X84710907Y-93354262D01*
X84752550Y-93340402D01*
X84793699Y-93325590D01*
X84826983Y-93308894D01*
X84833150Y-93272563D01*
X84832478Y-93256810D01*
X84831807Y-93197214D01*
X84829731Y-93004690D01*
X84822220Y-92787436D01*
X84814710Y-92620252D01*
X84807982Y-92602093D01*
X84798284Y-92589111D01*
X84784134Y-92580019D01*
X84759389Y-92572991D01*
X84684223Y-92557603D01*
G37*
D11*
G36*
X64681055Y-89016559D02*
G01*
X63827106Y-90684753D01*
X63721177Y-89412515D01*
X63242401Y-91332581D01*
X63997400Y-91698604D01*
X62354797Y-91605857D01*
X62888631Y-91439596D01*
X62315093Y-89403985D01*
X62148057Y-90894440D01*
X61801731Y-89210272D01*
X64681055Y-89016559D01*
G37*
G36*
X65373086Y-89190420D02*
G01*
X65065068Y-90237926D01*
X65187254Y-90096040D01*
X65314427Y-89981744D01*
X65447065Y-89892221D01*
X65591186Y-89825003D01*
X65740899Y-89785004D01*
X65898390Y-89771558D01*
X66052816Y-89785354D01*
X66190698Y-89825393D01*
X66315258Y-89891197D01*
X66428812Y-89984347D01*
X66522541Y-90097300D01*
X66588767Y-90221546D01*
X66629090Y-90359446D01*
X66642997Y-90514304D01*
X66631968Y-90659769D01*
X66598036Y-90810585D01*
X66539239Y-90968420D01*
X66462389Y-91118960D01*
X66361901Y-91275423D01*
X66235099Y-91438666D01*
X66655404Y-91581352D01*
X65582928Y-91668515D01*
X65694188Y-91541287D01*
X65767025Y-91417728D01*
X65811037Y-91286048D01*
X65825650Y-91149260D01*
X65817551Y-91057585D01*
X65795153Y-90984475D01*
X65760046Y-90926079D01*
X65711402Y-90880372D01*
X65653183Y-90853088D01*
X65582308Y-90843569D01*
X65497721Y-90856028D01*
X65422660Y-90893071D01*
X65354164Y-90957563D01*
X65303249Y-91037935D01*
X65271932Y-91131652D01*
X65260952Y-91242161D01*
X65267255Y-91331054D01*
X65285768Y-91413851D01*
X65318156Y-91492512D01*
X65367502Y-91570341D01*
X64446553Y-91672703D01*
X64726653Y-91438666D01*
X64695324Y-89209962D01*
X64450740Y-89087437D01*
X65714138Y-89005858D01*
X65373086Y-89190420D01*
G37*
G36*
X68001980Y-89764462D02*
G01*
X68186865Y-89800719D01*
X68348065Y-89858281D01*
X68488928Y-89936113D01*
X68614820Y-90039509D01*
X68699116Y-90149836D01*
X68748371Y-90268999D01*
X68764996Y-90400775D01*
X68749409Y-90534593D01*
X68703422Y-90655702D01*
X68625488Y-90767594D01*
X68510641Y-90872262D01*
X68379676Y-90953185D01*
X68232005Y-91012250D01*
X68064765Y-91049074D01*
X67874445Y-91061942D01*
X67698103Y-91047053D01*
X67617986Y-91027189D01*
X67542854Y-90997733D01*
X67709597Y-91093168D01*
X67864674Y-91157945D01*
X68023419Y-91197599D01*
X68186960Y-91210832D01*
X68319300Y-91200603D01*
X68442364Y-91170525D01*
X68557945Y-91120723D01*
X68663715Y-91052155D01*
X68762853Y-90961962D01*
X68855881Y-90847447D01*
X68923192Y-91675339D01*
X68758172Y-91374146D01*
X68527149Y-91499575D01*
X68299558Y-91586781D01*
X68064666Y-91639731D01*
X67820627Y-91657504D01*
X67579261Y-91640773D01*
X67373573Y-91593510D01*
X67197765Y-91518658D01*
X67047172Y-91417108D01*
X66942075Y-91314077D01*
X66861741Y-91200614D01*
X66804160Y-91075283D01*
X66768774Y-90935837D01*
X66756526Y-90779360D01*
X66765363Y-90641112D01*
X66791753Y-90506641D01*
X66822778Y-90414113D01*
X67194667Y-90414113D01*
X67250899Y-90451356D01*
X67320448Y-90481269D01*
X67395223Y-90499890D01*
X67471665Y-90506084D01*
X67558771Y-90496805D01*
X67631233Y-90470461D01*
X67692209Y-90427607D01*
X67739453Y-90370581D01*
X67767714Y-90304388D01*
X67777511Y-90226139D01*
X67760451Y-90118504D01*
X67709270Y-90029945D01*
X67591367Y-90056625D01*
X67488101Y-90098317D01*
X67397375Y-90154641D01*
X67317924Y-90225791D01*
X67250486Y-90311668D01*
X67194667Y-90414113D01*
X66822778Y-90414113D01*
X66835934Y-90374875D01*
X66896506Y-90249858D01*
X66971060Y-90136901D01*
X67060045Y-90034908D01*
X67158298Y-89949189D01*
X67265913Y-89878941D01*
X67383882Y-89823515D01*
X67574479Y-89770166D01*
X67789453Y-89751706D01*
X68001980Y-89764462D01*
G37*
G36*
X73573071Y-90119279D02*
G01*
X73310187Y-90368826D01*
X73414255Y-91267907D01*
X73214559Y-91402548D01*
X73014518Y-91509727D01*
X72813265Y-91591278D01*
X72604418Y-91649904D01*
X72388466Y-91685280D01*
X72164041Y-91697208D01*
X71980705Y-91688246D01*
X71802229Y-91661557D01*
X71627725Y-91617179D01*
X71458818Y-91555331D01*
X71300100Y-91477611D01*
X71150655Y-91383762D01*
X70972218Y-91236703D01*
X70826226Y-91074728D01*
X70709877Y-90896767D01*
X70623417Y-90703155D01*
X70572023Y-90503353D01*
X70554783Y-90294691D01*
X70570526Y-90099633D01*
X70616785Y-89918975D01*
X70693437Y-89749845D01*
X70797913Y-89595873D01*
X70930298Y-89457544D01*
X71093580Y-89333882D01*
X71260615Y-89237818D01*
X71440358Y-89158655D01*
X71634084Y-89096433D01*
X71833379Y-89053144D01*
X72048271Y-89026381D01*
X72280361Y-89017180D01*
X72535371Y-89032781D01*
X72772320Y-89078442D01*
X72995447Y-89154032D01*
X73189368Y-89253854D01*
X73279168Y-89008805D01*
X73419993Y-89991792D01*
X73254712Y-89810648D01*
X73100651Y-89676162D01*
X72956262Y-89580947D01*
X72799538Y-89510212D01*
X72636972Y-89468085D01*
X72466319Y-89453925D01*
X72293899Y-89469401D01*
X72144669Y-89513740D01*
X72014220Y-89585724D01*
X71899450Y-89686722D01*
X71807807Y-89808740D01*
X71741095Y-89949809D01*
X71699347Y-90113538D01*
X71684644Y-90304617D01*
X71698036Y-90473472D01*
X71736269Y-90619713D01*
X71797776Y-90747258D01*
X71882855Y-90859079D01*
X71988765Y-90951678D01*
X72108046Y-91017460D01*
X72243370Y-91057827D01*
X72398543Y-91071868D01*
X72441659Y-91069386D01*
X72500750Y-91065354D01*
X72650261Y-90573860D01*
X72294009Y-90614185D01*
X72173811Y-90840002D01*
X72125422Y-89745657D01*
X72312621Y-90006836D01*
X73573071Y-90119279D01*
G37*
G36*
X75854352Y-89820878D02*
G01*
X75585574Y-89942162D01*
X75637375Y-91392758D01*
X75845046Y-91551574D01*
X75061821Y-91648353D01*
X75198459Y-91110176D01*
X75083973Y-91279277D01*
X74961898Y-91411763D01*
X74831971Y-91512491D01*
X74686947Y-91587794D01*
X74535070Y-91632518D01*
X74373668Y-91647578D01*
X74230873Y-91632376D01*
X74101799Y-91587740D01*
X73983071Y-91512872D01*
X73872558Y-91404080D01*
X73784758Y-91277200D01*
X73721566Y-91136258D01*
X73682597Y-90978657D01*
X73669075Y-90801073D01*
X73684069Y-90572125D01*
X73714358Y-90430864D01*
X74538533Y-90430864D01*
X74549813Y-90527063D01*
X74582457Y-90609930D01*
X74636863Y-90682581D01*
X74707781Y-90739080D01*
X74787491Y-90772546D01*
X74878965Y-90784013D01*
X74930156Y-90778884D01*
X74985049Y-90762765D01*
X75092995Y-90702744D01*
X74977638Y-90515029D01*
X74864076Y-90373013D01*
X74739052Y-90258856D01*
X74621663Y-90189537D01*
X74584744Y-90240606D01*
X74559005Y-90295932D01*
X74543954Y-90356622D01*
X74538533Y-90430864D01*
X73714358Y-90430864D01*
X73726746Y-90373092D01*
X73794754Y-90199450D01*
X73887292Y-90047471D01*
X74007821Y-89914313D01*
X74137884Y-89823665D01*
X74279881Y-89769971D01*
X74438032Y-89751706D01*
X74601651Y-89766748D01*
X74748094Y-89810488D01*
X74880826Y-89882606D01*
X74997052Y-89980185D01*
X75102931Y-90109242D01*
X75198459Y-90275149D01*
X75082914Y-89736972D01*
X75854352Y-89820878D01*
G37*
G36*
X78701106Y-91602445D02*
G01*
X77781708Y-91668360D01*
X77910431Y-91517121D01*
X77991085Y-91385623D01*
X78040674Y-91249643D01*
X78056690Y-91116070D01*
X78041147Y-90993478D01*
X77998840Y-90904211D01*
X77955533Y-90858791D01*
X77906063Y-90832617D01*
X77848088Y-90823717D01*
X77781787Y-90834847D01*
X77719304Y-90869095D01*
X77658253Y-90931197D01*
X77612442Y-91006367D01*
X77584789Y-91089866D01*
X77575277Y-91184001D01*
X77581226Y-91262363D01*
X77598386Y-91332116D01*
X77628212Y-91398960D01*
X77676089Y-91473252D01*
X76977079Y-91437270D01*
X77025158Y-91367701D01*
X77055091Y-91308231D01*
X77073193Y-91247615D01*
X77079131Y-91186948D01*
X77062434Y-91058819D01*
X77016163Y-90961751D01*
X76969074Y-90911228D01*
X76917793Y-90882805D01*
X76860138Y-90873347D01*
X76797244Y-90884084D01*
X76739031Y-90916961D01*
X76683176Y-90976485D01*
X76642168Y-91048443D01*
X76616926Y-91131031D01*
X76608110Y-91226807D01*
X76618205Y-91331525D01*
X76647659Y-91425638D01*
X76697588Y-91513982D01*
X76777318Y-91610200D01*
X75826900Y-91668360D01*
X76129334Y-91433548D01*
X76093042Y-89961548D01*
X75833414Y-89851432D01*
X76642696Y-89767526D01*
X76538938Y-90178215D01*
X76623452Y-90052636D01*
X76712236Y-89953111D01*
X76805390Y-89876247D01*
X76909403Y-89816678D01*
X77010889Y-89782647D01*
X77111856Y-89771558D01*
X77206438Y-89785183D01*
X77295174Y-89826490D01*
X77380944Y-89899356D01*
X77450537Y-89989993D01*
X77502712Y-90095079D01*
X77537434Y-90217144D01*
X77608169Y-90082007D01*
X77687953Y-89973691D01*
X77776590Y-89888499D01*
X77879039Y-89823160D01*
X77988211Y-89784582D01*
X78106785Y-89771558D01*
X78222236Y-89785367D01*
X78326791Y-89826177D01*
X78423549Y-89895576D01*
X78514218Y-89998306D01*
X78583802Y-90114780D01*
X78634792Y-90246670D01*
X78666678Y-90396578D01*
X78677842Y-90567657D01*
X78658893Y-90797362D01*
X78602001Y-91021152D01*
X78508750Y-91238201D01*
X78371376Y-91465652D01*
X78701106Y-91602445D01*
G37*
G36*
X80091884Y-89764462D02*
G01*
X80276768Y-89800719D01*
X80437969Y-89858281D01*
X80578832Y-89936113D01*
X80704723Y-90039509D01*
X80789019Y-90149836D01*
X80838275Y-90268999D01*
X80854900Y-90400775D01*
X80839313Y-90534593D01*
X80793325Y-90655702D01*
X80715391Y-90767594D01*
X80600545Y-90872262D01*
X80469579Y-90953185D01*
X80321909Y-91012250D01*
X80154668Y-91049074D01*
X79964349Y-91061942D01*
X79788007Y-91047053D01*
X79707890Y-91027189D01*
X79632757Y-90997733D01*
X79799500Y-91093168D01*
X79954578Y-91157945D01*
X80113323Y-91197599D01*
X80276863Y-91210832D01*
X80409204Y-91200603D01*
X80532268Y-91170525D01*
X80647849Y-91120723D01*
X80753619Y-91052155D01*
X80852757Y-90961962D01*
X80945785Y-90847447D01*
X81013096Y-91675339D01*
X80848075Y-91374146D01*
X80617052Y-91499575D01*
X80389462Y-91586781D01*
X80154570Y-91639731D01*
X79910531Y-91657504D01*
X79669165Y-91640773D01*
X79463477Y-91593510D01*
X79287668Y-91518658D01*
X79137076Y-91417108D01*
X79031978Y-91314077D01*
X78951645Y-91200614D01*
X78894063Y-91075283D01*
X78858678Y-90935837D01*
X78846430Y-90779360D01*
X78855267Y-90641112D01*
X78881657Y-90506641D01*
X78912682Y-90414113D01*
X79284571Y-90414113D01*
X79340803Y-90451356D01*
X79410352Y-90481269D01*
X79485126Y-90499890D01*
X79561569Y-90506084D01*
X79648675Y-90496805D01*
X79721137Y-90470461D01*
X79782113Y-90427607D01*
X79829357Y-90370581D01*
X79857618Y-90304388D01*
X79867415Y-90226139D01*
X79850354Y-90118504D01*
X79799173Y-90029945D01*
X79681271Y-90056625D01*
X79578005Y-90098317D01*
X79487279Y-90154641D01*
X79407828Y-90225791D01*
X79340390Y-90311668D01*
X79284571Y-90414113D01*
X78912682Y-90414113D01*
X78925838Y-90374875D01*
X78986410Y-90249858D01*
X79060964Y-90136901D01*
X79149949Y-90034908D01*
X79248201Y-89949189D01*
X79355817Y-89878941D01*
X79473786Y-89823515D01*
X79664383Y-89770166D01*
X79879357Y-89751706D01*
X80091884Y-89764462D01*
G37*
G36*
X82960191Y-89079097D02*
G01*
X83147178Y-89113849D01*
X83308510Y-89168653D01*
X83447809Y-89242168D01*
X83567963Y-89334192D01*
X83671001Y-89446450D01*
X83751739Y-89574920D01*
X83811004Y-89721943D01*
X83848181Y-89890754D01*
X83861246Y-90085314D01*
X83843346Y-90299367D01*
X83792117Y-90485164D01*
X83709313Y-90647788D01*
X83594018Y-90790992D01*
X83452388Y-90908253D01*
X83292089Y-90992143D01*
X83109470Y-91043892D01*
X82899507Y-91061942D01*
X82663940Y-91043410D01*
X82455007Y-90989978D01*
X82324782Y-90934039D01*
X82214706Y-90867253D01*
X82122329Y-90789907D01*
X82228569Y-91385934D01*
X82814825Y-91738928D01*
X81029536Y-91570186D01*
X81283580Y-91390586D01*
X81439683Y-90224743D01*
X82043386Y-90224743D01*
X82186129Y-90151557D01*
X82308499Y-90062515D01*
X82412666Y-89957206D01*
X82496929Y-89836398D01*
X82543101Y-89724894D01*
X82557679Y-89619256D01*
X82547597Y-89531253D01*
X82522472Y-89478740D01*
X82479485Y-89446041D01*
X82413286Y-89434073D01*
X82312165Y-89449738D01*
X82200652Y-89500453D01*
X82043386Y-90224743D01*
X81439683Y-90224743D01*
X81536228Y-89503710D01*
X80974167Y-89258196D01*
X82325968Y-89101861D01*
X82602346Y-89073789D01*
X82743327Y-89066810D01*
X82960191Y-89079097D01*
G37*
G36*
X86147645Y-89820878D02*
G01*
X85878866Y-89942162D01*
X85930668Y-91392758D01*
X86138339Y-91551574D01*
X85355113Y-91648353D01*
X85491751Y-91110176D01*
X85377266Y-91279277D01*
X85255190Y-91411763D01*
X85125263Y-91512491D01*
X84980239Y-91587794D01*
X84828362Y-91632518D01*
X84666960Y-91647578D01*
X84524165Y-91632376D01*
X84395092Y-91587740D01*
X84276363Y-91512872D01*
X84165851Y-91404080D01*
X84078050Y-91277200D01*
X84014858Y-91136258D01*
X83975889Y-90978657D01*
X83962367Y-90801073D01*
X83977361Y-90572125D01*
X84007651Y-90430864D01*
X84831825Y-90430864D01*
X84843105Y-90527063D01*
X84875749Y-90609930D01*
X84930155Y-90682581D01*
X85001074Y-90739080D01*
X85080784Y-90772546D01*
X85172257Y-90784013D01*
X85223448Y-90778884D01*
X85278341Y-90762765D01*
X85386287Y-90702744D01*
X85270930Y-90515029D01*
X85157368Y-90373013D01*
X85032344Y-90258856D01*
X84914956Y-90189537D01*
X84878036Y-90240606D01*
X84852298Y-90295932D01*
X84837247Y-90356622D01*
X84831825Y-90430864D01*
X84007651Y-90430864D01*
X84020039Y-90373092D01*
X84088046Y-90199450D01*
X84180585Y-90047471D01*
X84301113Y-89914313D01*
X84431177Y-89823665D01*
X84573174Y-89769971D01*
X84731324Y-89751706D01*
X84894943Y-89766748D01*
X85041386Y-89810488D01*
X85174118Y-89882606D01*
X85290344Y-89980185D01*
X85396223Y-90109242D01*
X85491751Y-90275149D01*
X85376206Y-89736972D01*
X86147645Y-89820878D01*
G37*
G36*
X88402869Y-89109926D02*
G01*
X88164179Y-89216476D01*
X88143397Y-91425793D01*
X88367198Y-91678131D01*
X87195306Y-91602600D01*
X86973160Y-91572313D01*
X86781693Y-91515322D01*
X86616258Y-91433524D01*
X86473187Y-91327153D01*
X86352300Y-91195081D01*
X86267786Y-91050347D01*
X86216699Y-90890157D01*
X86199136Y-90710343D01*
X86214233Y-90517251D01*
X86249800Y-90376891D01*
X87065182Y-90376891D01*
X87077280Y-90473684D01*
X87112782Y-90559240D01*
X87172972Y-90636518D01*
X87250225Y-90697056D01*
X87333847Y-90732385D01*
X87426551Y-90744309D01*
X87486197Y-90738616D01*
X87540080Y-90721975D01*
X87590746Y-90694275D01*
X87644459Y-90651873D01*
X87543920Y-90477291D01*
X87427482Y-90342150D01*
X87289707Y-90237683D01*
X87136215Y-90169375D01*
X87106929Y-90208524D01*
X87083948Y-90258864D01*
X87070000Y-90314643D01*
X87065182Y-90376891D01*
X86249800Y-90376891D01*
X86257857Y-90345097D01*
X86328851Y-90190303D01*
X86427900Y-90050107D01*
X86551764Y-89930210D01*
X86684747Y-89847581D01*
X86829216Y-89798277D01*
X86988875Y-89781484D01*
X87130726Y-89792716D01*
X87261011Y-89825591D01*
X87381884Y-89879814D01*
X87492947Y-89953361D01*
X87597163Y-90047230D01*
X87695019Y-90163636D01*
X87503633Y-89212909D01*
X87246797Y-89015784D01*
X88402869Y-89109926D01*
G37*
D12*
X41351200Y-81991200D02*
X39827200Y-80975200D01*
X41351200Y-79959200D01*
X41351200Y-81991200D01*
G36*
X41351200Y-81991200D02*
G01*
X39827200Y-80975200D01*
X41351200Y-79959200D01*
X41351200Y-81991200D01*
G37*
X56235600Y-69291200D02*
X54203600Y-69291200D01*
X55219600Y-67767200D01*
X56235600Y-69291200D01*
G36*
X56235600Y-69291200D02*
G01*
X54203600Y-69291200D01*
X55219600Y-67767200D01*
X56235600Y-69291200D01*
G37*
X55372000Y-94437200D02*
X54356000Y-92913200D01*
X56388000Y-92913200D01*
X55372000Y-94437200D01*
G36*
X55372000Y-94437200D02*
G01*
X54356000Y-92913200D01*
X56388000Y-92913200D01*
X55372000Y-94437200D01*
G37*
X70687067Y-81111422D02*
X69163067Y-82127422D01*
X69163067Y-80095422D01*
X70687067Y-81111422D01*
G36*
X70687067Y-81111422D02*
G01*
X69163067Y-82127422D01*
X69163067Y-80095422D01*
X70687067Y-81111422D01*
G37*
D13*
X42237875Y-63292324D02*
X42237875Y-62479524D01*
X42237875Y-62479524D02*
X42702332Y-63292324D01*
X42702332Y-63292324D02*
X42702332Y-62479524D01*
X43089380Y-62866572D02*
X43360314Y-62866572D01*
X43476428Y-63292324D02*
X43089380Y-63292324D01*
X43089380Y-63292324D02*
X43089380Y-62479524D01*
X43089380Y-62479524D02*
X43476428Y-62479524D01*
X44211818Y-62479524D02*
X43824770Y-62479524D01*
X43824770Y-62479524D02*
X43786066Y-62866572D01*
X43786066Y-62866572D02*
X43824770Y-62827867D01*
X43824770Y-62827867D02*
X43902180Y-62789162D01*
X43902180Y-62789162D02*
X44095704Y-62789162D01*
X44095704Y-62789162D02*
X44173113Y-62827867D01*
X44173113Y-62827867D02*
X44211818Y-62866572D01*
X44211818Y-62866572D02*
X44250523Y-62943981D01*
X44250523Y-62943981D02*
X44250523Y-63137505D01*
X44250523Y-63137505D02*
X44211818Y-63214915D01*
X44211818Y-63214915D02*
X44173113Y-63253620D01*
X44173113Y-63253620D02*
X44095704Y-63292324D01*
X44095704Y-63292324D02*
X43902180Y-63292324D01*
X43902180Y-63292324D02*
X43824770Y-63253620D01*
X43824770Y-63253620D02*
X43786066Y-63214915D01*
X44985913Y-62479524D02*
X44598865Y-62479524D01*
X44598865Y-62479524D02*
X44560161Y-62866572D01*
X44560161Y-62866572D02*
X44598865Y-62827867D01*
X44598865Y-62827867D02*
X44676275Y-62789162D01*
X44676275Y-62789162D02*
X44869799Y-62789162D01*
X44869799Y-62789162D02*
X44947208Y-62827867D01*
X44947208Y-62827867D02*
X44985913Y-62866572D01*
X44985913Y-62866572D02*
X45024618Y-62943981D01*
X45024618Y-62943981D02*
X45024618Y-63137505D01*
X45024618Y-63137505D02*
X44985913Y-63214915D01*
X44985913Y-63214915D02*
X44947208Y-63253620D01*
X44947208Y-63253620D02*
X44869799Y-63292324D01*
X44869799Y-63292324D02*
X44676275Y-63292324D01*
X44676275Y-63292324D02*
X44598865Y-63253620D01*
X44598865Y-63253620D02*
X44560161Y-63214915D01*
X45760008Y-62479524D02*
X45372960Y-62479524D01*
X45372960Y-62479524D02*
X45334256Y-62866572D01*
X45334256Y-62866572D02*
X45372960Y-62827867D01*
X45372960Y-62827867D02*
X45450370Y-62789162D01*
X45450370Y-62789162D02*
X45643894Y-62789162D01*
X45643894Y-62789162D02*
X45721303Y-62827867D01*
X45721303Y-62827867D02*
X45760008Y-62866572D01*
X45760008Y-62866572D02*
X45798713Y-62943981D01*
X45798713Y-62943981D02*
X45798713Y-63137505D01*
X45798713Y-63137505D02*
X45760008Y-63214915D01*
X45760008Y-63214915D02*
X45721303Y-63253620D01*
X45721303Y-63253620D02*
X45643894Y-63292324D01*
X45643894Y-63292324D02*
X45450370Y-63292324D01*
X45450370Y-63292324D02*
X45372960Y-63253620D01*
X45372960Y-63253620D02*
X45334256Y-63214915D01*
X46147055Y-63292324D02*
X46147055Y-62479524D01*
X46147055Y-62479524D02*
X46456693Y-62479524D01*
X46456693Y-62479524D02*
X46534103Y-62518229D01*
X46534103Y-62518229D02*
X46572808Y-62556934D01*
X46572808Y-62556934D02*
X46611512Y-62634343D01*
X46611512Y-62634343D02*
X46611512Y-62750458D01*
X46611512Y-62750458D02*
X46572808Y-62827867D01*
X46572808Y-62827867D02*
X46534103Y-62866572D01*
X46534103Y-62866572D02*
X46456693Y-62905277D01*
X46456693Y-62905277D02*
X46147055Y-62905277D01*
X47020332Y-43606115D02*
X46981628Y-43644820D01*
X46981628Y-43644820D02*
X46865513Y-43683524D01*
X46865513Y-43683524D02*
X46788104Y-43683524D01*
X46788104Y-43683524D02*
X46671990Y-43644820D01*
X46671990Y-43644820D02*
X46594580Y-43567410D01*
X46594580Y-43567410D02*
X46555875Y-43490000D01*
X46555875Y-43490000D02*
X46517171Y-43335181D01*
X46517171Y-43335181D02*
X46517171Y-43219067D01*
X46517171Y-43219067D02*
X46555875Y-43064248D01*
X46555875Y-43064248D02*
X46594580Y-42986839D01*
X46594580Y-42986839D02*
X46671990Y-42909429D01*
X46671990Y-42909429D02*
X46788104Y-42870724D01*
X46788104Y-42870724D02*
X46865513Y-42870724D01*
X46865513Y-42870724D02*
X46981628Y-42909429D01*
X46981628Y-42909429D02*
X47020332Y-42948134D01*
X47484790Y-43683524D02*
X47407380Y-43644820D01*
X47407380Y-43644820D02*
X47368675Y-43606115D01*
X47368675Y-43606115D02*
X47329971Y-43528705D01*
X47329971Y-43528705D02*
X47329971Y-43296477D01*
X47329971Y-43296477D02*
X47368675Y-43219067D01*
X47368675Y-43219067D02*
X47407380Y-43180362D01*
X47407380Y-43180362D02*
X47484790Y-43141658D01*
X47484790Y-43141658D02*
X47600904Y-43141658D01*
X47600904Y-43141658D02*
X47678313Y-43180362D01*
X47678313Y-43180362D02*
X47717018Y-43219067D01*
X47717018Y-43219067D02*
X47755723Y-43296477D01*
X47755723Y-43296477D02*
X47755723Y-43528705D01*
X47755723Y-43528705D02*
X47717018Y-43606115D01*
X47717018Y-43606115D02*
X47678313Y-43644820D01*
X47678313Y-43644820D02*
X47600904Y-43683524D01*
X47600904Y-43683524D02*
X47484790Y-43683524D01*
X48104065Y-43141658D02*
X48104065Y-43683524D01*
X48104065Y-43219067D02*
X48142770Y-43180362D01*
X48142770Y-43180362D02*
X48220180Y-43141658D01*
X48220180Y-43141658D02*
X48336294Y-43141658D01*
X48336294Y-43141658D02*
X48413703Y-43180362D01*
X48413703Y-43180362D02*
X48452408Y-43257772D01*
X48452408Y-43257772D02*
X48452408Y-43683524D01*
X48839455Y-43141658D02*
X48839455Y-43683524D01*
X48839455Y-43219067D02*
X48878160Y-43180362D01*
X48878160Y-43180362D02*
X48955570Y-43141658D01*
X48955570Y-43141658D02*
X49071684Y-43141658D01*
X49071684Y-43141658D02*
X49149093Y-43180362D01*
X49149093Y-43180362D02*
X49187798Y-43257772D01*
X49187798Y-43257772D02*
X49187798Y-43683524D01*
X49381322Y-43760934D02*
X50000598Y-43760934D01*
X50348940Y-42870724D02*
X50426350Y-42870724D01*
X50426350Y-42870724D02*
X50503759Y-42909429D01*
X50503759Y-42909429D02*
X50542464Y-42948134D01*
X50542464Y-42948134D02*
X50581169Y-43025543D01*
X50581169Y-43025543D02*
X50619874Y-43180362D01*
X50619874Y-43180362D02*
X50619874Y-43373886D01*
X50619874Y-43373886D02*
X50581169Y-43528705D01*
X50581169Y-43528705D02*
X50542464Y-43606115D01*
X50542464Y-43606115D02*
X50503759Y-43644820D01*
X50503759Y-43644820D02*
X50426350Y-43683524D01*
X50426350Y-43683524D02*
X50348940Y-43683524D01*
X50348940Y-43683524D02*
X50271531Y-43644820D01*
X50271531Y-43644820D02*
X50232826Y-43606115D01*
X50232826Y-43606115D02*
X50194121Y-43528705D01*
X50194121Y-43528705D02*
X50155417Y-43373886D01*
X50155417Y-43373886D02*
X50155417Y-43180362D01*
X50155417Y-43180362D02*
X50194121Y-43025543D01*
X50194121Y-43025543D02*
X50232826Y-42948134D01*
X50232826Y-42948134D02*
X50271531Y-42909429D01*
X50271531Y-42909429D02*
X50348940Y-42870724D01*
X51393969Y-43683524D02*
X50929512Y-43683524D01*
X51161740Y-43683524D02*
X51161740Y-42870724D01*
X51161740Y-42870724D02*
X51084331Y-42986839D01*
X51084331Y-42986839D02*
X51006921Y-43064248D01*
X51006921Y-43064248D02*
X50929512Y-43102953D01*
X51664902Y-43683524D02*
X52090654Y-43141658D01*
X51664902Y-43141658D02*
X52090654Y-43683524D01*
X52555111Y-42870724D02*
X52632521Y-42870724D01*
X52632521Y-42870724D02*
X52709930Y-42909429D01*
X52709930Y-42909429D02*
X52748635Y-42948134D01*
X52748635Y-42948134D02*
X52787340Y-43025543D01*
X52787340Y-43025543D02*
X52826045Y-43180362D01*
X52826045Y-43180362D02*
X52826045Y-43373886D01*
X52826045Y-43373886D02*
X52787340Y-43528705D01*
X52787340Y-43528705D02*
X52748635Y-43606115D01*
X52748635Y-43606115D02*
X52709930Y-43644820D01*
X52709930Y-43644820D02*
X52632521Y-43683524D01*
X52632521Y-43683524D02*
X52555111Y-43683524D01*
X52555111Y-43683524D02*
X52477702Y-43644820D01*
X52477702Y-43644820D02*
X52438997Y-43606115D01*
X52438997Y-43606115D02*
X52400292Y-43528705D01*
X52400292Y-43528705D02*
X52361588Y-43373886D01*
X52361588Y-43373886D02*
X52361588Y-43180362D01*
X52361588Y-43180362D02*
X52400292Y-43025543D01*
X52400292Y-43025543D02*
X52438997Y-42948134D01*
X52438997Y-42948134D02*
X52477702Y-42909429D01*
X52477702Y-42909429D02*
X52555111Y-42870724D01*
X53135683Y-42948134D02*
X53174387Y-42909429D01*
X53174387Y-42909429D02*
X53251797Y-42870724D01*
X53251797Y-42870724D02*
X53445321Y-42870724D01*
X53445321Y-42870724D02*
X53522730Y-42909429D01*
X53522730Y-42909429D02*
X53561435Y-42948134D01*
X53561435Y-42948134D02*
X53600140Y-43025543D01*
X53600140Y-43025543D02*
X53600140Y-43102953D01*
X53600140Y-43102953D02*
X53561435Y-43219067D01*
X53561435Y-43219067D02*
X53096978Y-43683524D01*
X53096978Y-43683524D02*
X53600140Y-43683524D01*
X53754959Y-43760934D02*
X54374235Y-43760934D01*
X54529054Y-43644820D02*
X54645168Y-43683524D01*
X54645168Y-43683524D02*
X54838692Y-43683524D01*
X54838692Y-43683524D02*
X54916101Y-43644820D01*
X54916101Y-43644820D02*
X54954806Y-43606115D01*
X54954806Y-43606115D02*
X54993511Y-43528705D01*
X54993511Y-43528705D02*
X54993511Y-43451296D01*
X54993511Y-43451296D02*
X54954806Y-43373886D01*
X54954806Y-43373886D02*
X54916101Y-43335181D01*
X54916101Y-43335181D02*
X54838692Y-43296477D01*
X54838692Y-43296477D02*
X54683873Y-43257772D01*
X54683873Y-43257772D02*
X54606463Y-43219067D01*
X54606463Y-43219067D02*
X54567758Y-43180362D01*
X54567758Y-43180362D02*
X54529054Y-43102953D01*
X54529054Y-43102953D02*
X54529054Y-43025543D01*
X54529054Y-43025543D02*
X54567758Y-42948134D01*
X54567758Y-42948134D02*
X54606463Y-42909429D01*
X54606463Y-42909429D02*
X54683873Y-42870724D01*
X54683873Y-42870724D02*
X54877396Y-42870724D01*
X54877396Y-42870724D02*
X54993511Y-42909429D01*
X55457968Y-43683524D02*
X55380558Y-43644820D01*
X55380558Y-43644820D02*
X55341853Y-43606115D01*
X55341853Y-43606115D02*
X55303149Y-43528705D01*
X55303149Y-43528705D02*
X55303149Y-43296477D01*
X55303149Y-43296477D02*
X55341853Y-43219067D01*
X55341853Y-43219067D02*
X55380558Y-43180362D01*
X55380558Y-43180362D02*
X55457968Y-43141658D01*
X55457968Y-43141658D02*
X55574082Y-43141658D01*
X55574082Y-43141658D02*
X55651491Y-43180362D01*
X55651491Y-43180362D02*
X55690196Y-43219067D01*
X55690196Y-43219067D02*
X55728901Y-43296477D01*
X55728901Y-43296477D02*
X55728901Y-43528705D01*
X55728901Y-43528705D02*
X55690196Y-43606115D01*
X55690196Y-43606115D02*
X55651491Y-43644820D01*
X55651491Y-43644820D02*
X55574082Y-43683524D01*
X55574082Y-43683524D02*
X55457968Y-43683524D01*
X56425586Y-43644820D02*
X56348177Y-43683524D01*
X56348177Y-43683524D02*
X56193358Y-43683524D01*
X56193358Y-43683524D02*
X56115948Y-43644820D01*
X56115948Y-43644820D02*
X56077243Y-43606115D01*
X56077243Y-43606115D02*
X56038539Y-43528705D01*
X56038539Y-43528705D02*
X56038539Y-43296477D01*
X56038539Y-43296477D02*
X56077243Y-43219067D01*
X56077243Y-43219067D02*
X56115948Y-43180362D01*
X56115948Y-43180362D02*
X56193358Y-43141658D01*
X56193358Y-43141658D02*
X56348177Y-43141658D01*
X56348177Y-43141658D02*
X56425586Y-43180362D01*
X56773929Y-43683524D02*
X56773929Y-42870724D01*
X56851339Y-43373886D02*
X57083567Y-43683524D01*
X57083567Y-43141658D02*
X56773929Y-43451296D01*
X57741548Y-43644820D02*
X57664139Y-43683524D01*
X57664139Y-43683524D02*
X57509320Y-43683524D01*
X57509320Y-43683524D02*
X57431910Y-43644820D01*
X57431910Y-43644820D02*
X57393206Y-43567410D01*
X57393206Y-43567410D02*
X57393206Y-43257772D01*
X57393206Y-43257772D02*
X57431910Y-43180362D01*
X57431910Y-43180362D02*
X57509320Y-43141658D01*
X57509320Y-43141658D02*
X57664139Y-43141658D01*
X57664139Y-43141658D02*
X57741548Y-43180362D01*
X57741548Y-43180362D02*
X57780253Y-43257772D01*
X57780253Y-43257772D02*
X57780253Y-43335181D01*
X57780253Y-43335181D02*
X57393206Y-43412591D01*
X58012482Y-43141658D02*
X58322120Y-43141658D01*
X58128596Y-42870724D02*
X58128596Y-43567410D01*
X58128596Y-43567410D02*
X58167301Y-43644820D01*
X58167301Y-43644820D02*
X58244711Y-43683524D01*
X58244711Y-43683524D02*
X58322120Y-43683524D01*
X58556771Y-48470820D02*
X58672885Y-48509524D01*
X58672885Y-48509524D02*
X58866409Y-48509524D01*
X58866409Y-48509524D02*
X58943818Y-48470820D01*
X58943818Y-48470820D02*
X58982523Y-48432115D01*
X58982523Y-48432115D02*
X59021228Y-48354705D01*
X59021228Y-48354705D02*
X59021228Y-48277296D01*
X59021228Y-48277296D02*
X58982523Y-48199886D01*
X58982523Y-48199886D02*
X58943818Y-48161181D01*
X58943818Y-48161181D02*
X58866409Y-48122477D01*
X58866409Y-48122477D02*
X58711590Y-48083772D01*
X58711590Y-48083772D02*
X58634180Y-48045067D01*
X58634180Y-48045067D02*
X58595475Y-48006362D01*
X58595475Y-48006362D02*
X58556771Y-47928953D01*
X58556771Y-47928953D02*
X58556771Y-47851543D01*
X58556771Y-47851543D02*
X58595475Y-47774134D01*
X58595475Y-47774134D02*
X58634180Y-47735429D01*
X58634180Y-47735429D02*
X58711590Y-47696724D01*
X58711590Y-47696724D02*
X58905113Y-47696724D01*
X58905113Y-47696724D02*
X59021228Y-47735429D01*
X59292161Y-47696724D02*
X59485685Y-48509524D01*
X59485685Y-48509524D02*
X59640504Y-47928953D01*
X59640504Y-47928953D02*
X59795323Y-48509524D01*
X59795323Y-48509524D02*
X59988847Y-47696724D01*
X60104961Y-48586934D02*
X60724237Y-48586934D01*
X60879056Y-48470820D02*
X60995170Y-48509524D01*
X60995170Y-48509524D02*
X61188694Y-48509524D01*
X61188694Y-48509524D02*
X61266103Y-48470820D01*
X61266103Y-48470820D02*
X61304808Y-48432115D01*
X61304808Y-48432115D02*
X61343513Y-48354705D01*
X61343513Y-48354705D02*
X61343513Y-48277296D01*
X61343513Y-48277296D02*
X61304808Y-48199886D01*
X61304808Y-48199886D02*
X61266103Y-48161181D01*
X61266103Y-48161181D02*
X61188694Y-48122477D01*
X61188694Y-48122477D02*
X61033875Y-48083772D01*
X61033875Y-48083772D02*
X60956465Y-48045067D01*
X60956465Y-48045067D02*
X60917760Y-48006362D01*
X60917760Y-48006362D02*
X60879056Y-47928953D01*
X60879056Y-47928953D02*
X60879056Y-47851543D01*
X60879056Y-47851543D02*
X60917760Y-47774134D01*
X60917760Y-47774134D02*
X60956465Y-47735429D01*
X60956465Y-47735429D02*
X61033875Y-47696724D01*
X61033875Y-47696724D02*
X61227398Y-47696724D01*
X61227398Y-47696724D02*
X61343513Y-47735429D01*
X61691855Y-48509524D02*
X61691855Y-47696724D01*
X61691855Y-47696724D02*
X62001493Y-47696724D01*
X62001493Y-47696724D02*
X62078903Y-47735429D01*
X62078903Y-47735429D02*
X62117608Y-47774134D01*
X62117608Y-47774134D02*
X62156312Y-47851543D01*
X62156312Y-47851543D02*
X62156312Y-47967658D01*
X62156312Y-47967658D02*
X62117608Y-48045067D01*
X62117608Y-48045067D02*
X62078903Y-48083772D01*
X62078903Y-48083772D02*
X62001493Y-48122477D01*
X62001493Y-48122477D02*
X61691855Y-48122477D01*
X62504655Y-48509524D02*
X62504655Y-47696724D01*
X62504655Y-47696724D02*
X62698179Y-47696724D01*
X62698179Y-47696724D02*
X62814293Y-47735429D01*
X62814293Y-47735429D02*
X62891703Y-47812839D01*
X62891703Y-47812839D02*
X62930408Y-47890248D01*
X62930408Y-47890248D02*
X62969112Y-48045067D01*
X62969112Y-48045067D02*
X62969112Y-48161181D01*
X62969112Y-48161181D02*
X62930408Y-48316000D01*
X62930408Y-48316000D02*
X62891703Y-48393410D01*
X62891703Y-48393410D02*
X62814293Y-48470820D01*
X62814293Y-48470820D02*
X62698179Y-48509524D01*
X62698179Y-48509524D02*
X62504655Y-48509524D01*
X63201341Y-47696724D02*
X63665798Y-47696724D01*
X63433570Y-48509524D02*
X63433570Y-47696724D01*
X59427628Y-57247124D02*
X58963171Y-57247124D01*
X59195399Y-57247124D02*
X59195399Y-56434324D01*
X59195399Y-56434324D02*
X59117990Y-56550439D01*
X59117990Y-56550439D02*
X59040580Y-56627848D01*
X59040580Y-56627848D02*
X58963171Y-56666553D01*
X59775970Y-57247124D02*
X59775970Y-56434324D01*
X60240427Y-57247124D02*
X59892085Y-56782667D01*
X60240427Y-56434324D02*
X59775970Y-56898781D01*
X59052675Y-40533924D02*
X59052675Y-39721124D01*
X59052675Y-39721124D02*
X59246199Y-39721124D01*
X59246199Y-39721124D02*
X59362313Y-39759829D01*
X59362313Y-39759829D02*
X59439723Y-39837239D01*
X59439723Y-39837239D02*
X59478428Y-39914648D01*
X59478428Y-39914648D02*
X59517132Y-40069467D01*
X59517132Y-40069467D02*
X59517132Y-40185581D01*
X59517132Y-40185581D02*
X59478428Y-40340400D01*
X59478428Y-40340400D02*
X59439723Y-40417810D01*
X59439723Y-40417810D02*
X59362313Y-40495220D01*
X59362313Y-40495220D02*
X59246199Y-40533924D01*
X59246199Y-40533924D02*
X59052675Y-40533924D01*
X59671952Y-40611334D02*
X60291228Y-40611334D01*
X60446047Y-40495220D02*
X60562161Y-40533924D01*
X60562161Y-40533924D02*
X60755685Y-40533924D01*
X60755685Y-40533924D02*
X60833094Y-40495220D01*
X60833094Y-40495220D02*
X60871799Y-40456515D01*
X60871799Y-40456515D02*
X60910504Y-40379105D01*
X60910504Y-40379105D02*
X60910504Y-40301696D01*
X60910504Y-40301696D02*
X60871799Y-40224286D01*
X60871799Y-40224286D02*
X60833094Y-40185581D01*
X60833094Y-40185581D02*
X60755685Y-40146877D01*
X60755685Y-40146877D02*
X60600866Y-40108172D01*
X60600866Y-40108172D02*
X60523456Y-40069467D01*
X60523456Y-40069467D02*
X60484751Y-40030762D01*
X60484751Y-40030762D02*
X60446047Y-39953353D01*
X60446047Y-39953353D02*
X60446047Y-39875943D01*
X60446047Y-39875943D02*
X60484751Y-39798534D01*
X60484751Y-39798534D02*
X60523456Y-39759829D01*
X60523456Y-39759829D02*
X60600866Y-39721124D01*
X60600866Y-39721124D02*
X60794389Y-39721124D01*
X60794389Y-39721124D02*
X60910504Y-39759829D01*
X61607189Y-40495220D02*
X61529780Y-40533924D01*
X61529780Y-40533924D02*
X61374961Y-40533924D01*
X61374961Y-40533924D02*
X61297551Y-40495220D01*
X61297551Y-40495220D02*
X61258846Y-40456515D01*
X61258846Y-40456515D02*
X61220142Y-40379105D01*
X61220142Y-40379105D02*
X61220142Y-40146877D01*
X61220142Y-40146877D02*
X61258846Y-40069467D01*
X61258846Y-40069467D02*
X61297551Y-40030762D01*
X61297551Y-40030762D02*
X61374961Y-39992058D01*
X61374961Y-39992058D02*
X61529780Y-39992058D01*
X61529780Y-39992058D02*
X61607189Y-40030762D01*
X61955532Y-40533924D02*
X61955532Y-39721124D01*
X62303875Y-40533924D02*
X62303875Y-40108172D01*
X62303875Y-40108172D02*
X62265170Y-40030762D01*
X62265170Y-40030762D02*
X62187761Y-39992058D01*
X62187761Y-39992058D02*
X62071647Y-39992058D01*
X62071647Y-39992058D02*
X61994237Y-40030762D01*
X61994237Y-40030762D02*
X61955532Y-40069467D01*
X62807037Y-40533924D02*
X62729627Y-40495220D01*
X62729627Y-40495220D02*
X62690922Y-40456515D01*
X62690922Y-40456515D02*
X62652218Y-40379105D01*
X62652218Y-40379105D02*
X62652218Y-40146877D01*
X62652218Y-40146877D02*
X62690922Y-40069467D01*
X62690922Y-40069467D02*
X62729627Y-40030762D01*
X62729627Y-40030762D02*
X62807037Y-39992058D01*
X62807037Y-39992058D02*
X62923151Y-39992058D01*
X62923151Y-39992058D02*
X63000560Y-40030762D01*
X63000560Y-40030762D02*
X63039265Y-40069467D01*
X63039265Y-40069467D02*
X63077970Y-40146877D01*
X63077970Y-40146877D02*
X63077970Y-40379105D01*
X63077970Y-40379105D02*
X63039265Y-40456515D01*
X63039265Y-40456515D02*
X63000560Y-40495220D01*
X63000560Y-40495220D02*
X62923151Y-40533924D01*
X62923151Y-40533924D02*
X62807037Y-40533924D01*
X63310198Y-39992058D02*
X63619836Y-39992058D01*
X63426312Y-39721124D02*
X63426312Y-40417810D01*
X63426312Y-40417810D02*
X63465017Y-40495220D01*
X63465017Y-40495220D02*
X63542427Y-40533924D01*
X63542427Y-40533924D02*
X63619836Y-40533924D01*
X63774655Y-39992058D02*
X64084293Y-39992058D01*
X63890769Y-39721124D02*
X63890769Y-40417810D01*
X63890769Y-40417810D02*
X63929474Y-40495220D01*
X63929474Y-40495220D02*
X64006884Y-40533924D01*
X64006884Y-40533924D02*
X64084293Y-40533924D01*
X64355226Y-40533924D02*
X64355226Y-39721124D01*
X64432636Y-40224286D02*
X64664864Y-40533924D01*
X64664864Y-39992058D02*
X64355226Y-40301696D01*
X64935798Y-39992058D02*
X65129322Y-40533924D01*
X65322845Y-39992058D02*
X65129322Y-40533924D01*
X65129322Y-40533924D02*
X65051912Y-40727448D01*
X65051912Y-40727448D02*
X65013207Y-40766153D01*
X65013207Y-40766153D02*
X64935798Y-40804858D01*
X59478428Y-53183124D02*
X59013971Y-53183124D01*
X59246199Y-53183124D02*
X59246199Y-52370324D01*
X59246199Y-52370324D02*
X59168790Y-52486439D01*
X59168790Y-52486439D02*
X59091380Y-52563848D01*
X59091380Y-52563848D02*
X59013971Y-52602553D01*
X59826770Y-53183124D02*
X59826770Y-52370324D01*
X60291227Y-53183124D02*
X59942885Y-52718667D01*
X60291227Y-52370324D02*
X59826770Y-52834781D01*
X59580028Y-61361924D02*
X59115571Y-61361924D01*
X59347799Y-61361924D02*
X59347799Y-60549124D01*
X59347799Y-60549124D02*
X59270390Y-60665239D01*
X59270390Y-60665239D02*
X59192980Y-60742648D01*
X59192980Y-60742648D02*
X59115571Y-60781353D01*
X59928370Y-61361924D02*
X59928370Y-60549124D01*
X60392827Y-61361924D02*
X60044485Y-60897467D01*
X60392827Y-60549124D02*
X59928370Y-61013581D01*
X70127075Y-36063524D02*
X70127075Y-35250724D01*
X70475419Y-35328134D02*
X70514123Y-35289429D01*
X70514123Y-35289429D02*
X70591533Y-35250724D01*
X70591533Y-35250724D02*
X70785057Y-35250724D01*
X70785057Y-35250724D02*
X70862466Y-35289429D01*
X70862466Y-35289429D02*
X70901171Y-35328134D01*
X70901171Y-35328134D02*
X70939876Y-35405543D01*
X70939876Y-35405543D02*
X70939876Y-35482953D01*
X70939876Y-35482953D02*
X70901171Y-35599067D01*
X70901171Y-35599067D02*
X70436714Y-36063524D01*
X70436714Y-36063524D02*
X70939876Y-36063524D01*
X71752675Y-35986115D02*
X71713971Y-36024820D01*
X71713971Y-36024820D02*
X71597856Y-36063524D01*
X71597856Y-36063524D02*
X71520447Y-36063524D01*
X71520447Y-36063524D02*
X71404333Y-36024820D01*
X71404333Y-36024820D02*
X71326923Y-35947410D01*
X71326923Y-35947410D02*
X71288218Y-35870000D01*
X71288218Y-35870000D02*
X71249514Y-35715181D01*
X71249514Y-35715181D02*
X71249514Y-35599067D01*
X71249514Y-35599067D02*
X71288218Y-35444248D01*
X71288218Y-35444248D02*
X71326923Y-35366839D01*
X71326923Y-35366839D02*
X71404333Y-35289429D01*
X71404333Y-35289429D02*
X71520447Y-35250724D01*
X71520447Y-35250724D02*
X71597856Y-35250724D01*
X71597856Y-35250724D02*
X71713971Y-35289429D01*
X71713971Y-35289429D02*
X71752675Y-35328134D01*
X71907495Y-36140934D02*
X72526771Y-36140934D01*
X72875113Y-35250724D02*
X73029932Y-35250724D01*
X73029932Y-35250724D02*
X73107342Y-35289429D01*
X73107342Y-35289429D02*
X73184751Y-35366839D01*
X73184751Y-35366839D02*
X73223456Y-35521658D01*
X73223456Y-35521658D02*
X73223456Y-35792591D01*
X73223456Y-35792591D02*
X73184751Y-35947410D01*
X73184751Y-35947410D02*
X73107342Y-36024820D01*
X73107342Y-36024820D02*
X73029932Y-36063524D01*
X73029932Y-36063524D02*
X72875113Y-36063524D01*
X72875113Y-36063524D02*
X72797704Y-36024820D01*
X72797704Y-36024820D02*
X72720294Y-35947410D01*
X72720294Y-35947410D02*
X72681590Y-35792591D01*
X72681590Y-35792591D02*
X72681590Y-35521658D01*
X72681590Y-35521658D02*
X72720294Y-35366839D01*
X72720294Y-35366839D02*
X72797704Y-35289429D01*
X72797704Y-35289429D02*
X72875113Y-35250724D01*
X73958847Y-36063524D02*
X73571799Y-36063524D01*
X73571799Y-36063524D02*
X73571799Y-35250724D01*
X74229780Y-35637772D02*
X74500714Y-35637772D01*
X74616828Y-36063524D02*
X74229780Y-36063524D01*
X74229780Y-36063524D02*
X74229780Y-35250724D01*
X74229780Y-35250724D02*
X74616828Y-35250724D01*
X74965170Y-36063524D02*
X74965170Y-35250724D01*
X74965170Y-35250724D02*
X75158694Y-35250724D01*
X75158694Y-35250724D02*
X75274808Y-35289429D01*
X75274808Y-35289429D02*
X75352218Y-35366839D01*
X75352218Y-35366839D02*
X75390923Y-35444248D01*
X75390923Y-35444248D02*
X75429627Y-35599067D01*
X75429627Y-35599067D02*
X75429627Y-35715181D01*
X75429627Y-35715181D02*
X75390923Y-35870000D01*
X75390923Y-35870000D02*
X75352218Y-35947410D01*
X75352218Y-35947410D02*
X75274808Y-36024820D01*
X75274808Y-36024820D02*
X75158694Y-36063524D01*
X75158694Y-36063524D02*
X74965170Y-36063524D01*
X75584447Y-36140934D02*
X76203723Y-36140934D01*
X76397246Y-36063524D02*
X76397246Y-35250724D01*
X76397246Y-35250724D02*
X76668180Y-35831296D01*
X76668180Y-35831296D02*
X76939113Y-35250724D01*
X76939113Y-35250724D02*
X76939113Y-36063524D01*
X77480979Y-35250724D02*
X77635798Y-35250724D01*
X77635798Y-35250724D02*
X77713208Y-35289429D01*
X77713208Y-35289429D02*
X77790617Y-35366839D01*
X77790617Y-35366839D02*
X77829322Y-35521658D01*
X77829322Y-35521658D02*
X77829322Y-35792591D01*
X77829322Y-35792591D02*
X77790617Y-35947410D01*
X77790617Y-35947410D02*
X77713208Y-36024820D01*
X77713208Y-36024820D02*
X77635798Y-36063524D01*
X77635798Y-36063524D02*
X77480979Y-36063524D01*
X77480979Y-36063524D02*
X77403570Y-36024820D01*
X77403570Y-36024820D02*
X77326160Y-35947410D01*
X77326160Y-35947410D02*
X77287456Y-35792591D01*
X77287456Y-35792591D02*
X77287456Y-35521658D01*
X77287456Y-35521658D02*
X77326160Y-35366839D01*
X77326160Y-35366839D02*
X77403570Y-35289429D01*
X77403570Y-35289429D02*
X77480979Y-35250724D01*
X78177665Y-36063524D02*
X78177665Y-35250724D01*
X78177665Y-35250724D02*
X78371189Y-35250724D01*
X78371189Y-35250724D02*
X78487303Y-35289429D01*
X78487303Y-35289429D02*
X78564713Y-35366839D01*
X78564713Y-35366839D02*
X78603418Y-35444248D01*
X78603418Y-35444248D02*
X78642122Y-35599067D01*
X78642122Y-35599067D02*
X78642122Y-35715181D01*
X78642122Y-35715181D02*
X78603418Y-35870000D01*
X78603418Y-35870000D02*
X78564713Y-35947410D01*
X78564713Y-35947410D02*
X78487303Y-36024820D01*
X78487303Y-36024820D02*
X78371189Y-36063524D01*
X78371189Y-36063524D02*
X78177665Y-36063524D01*
X78990465Y-35250724D02*
X78990465Y-35908705D01*
X78990465Y-35908705D02*
X79029170Y-35986115D01*
X79029170Y-35986115D02*
X79067875Y-36024820D01*
X79067875Y-36024820D02*
X79145284Y-36063524D01*
X79145284Y-36063524D02*
X79300103Y-36063524D01*
X79300103Y-36063524D02*
X79377513Y-36024820D01*
X79377513Y-36024820D02*
X79416218Y-35986115D01*
X79416218Y-35986115D02*
X79454922Y-35908705D01*
X79454922Y-35908705D02*
X79454922Y-35250724D01*
X80229018Y-36063524D02*
X79841970Y-36063524D01*
X79841970Y-36063524D02*
X79841970Y-35250724D01*
X80499951Y-35637772D02*
X80770885Y-35637772D01*
X80886999Y-36063524D02*
X80499951Y-36063524D01*
X80499951Y-36063524D02*
X80499951Y-35250724D01*
X80499951Y-35250724D02*
X80886999Y-35250724D01*
X76914923Y-88285924D02*
X76527875Y-88285924D01*
X76527875Y-88285924D02*
X76527875Y-87473124D01*
X77185856Y-87860172D02*
X77456790Y-87860172D01*
X77572904Y-88285924D02*
X77185856Y-88285924D01*
X77185856Y-88285924D02*
X77185856Y-87473124D01*
X77185856Y-87473124D02*
X77572904Y-87473124D01*
X77921246Y-88285924D02*
X77921246Y-87473124D01*
X77921246Y-87473124D02*
X78114770Y-87473124D01*
X78114770Y-87473124D02*
X78230884Y-87511829D01*
X78230884Y-87511829D02*
X78308294Y-87589239D01*
X78308294Y-87589239D02*
X78346999Y-87666648D01*
X78346999Y-87666648D02*
X78385703Y-87821467D01*
X78385703Y-87821467D02*
X78385703Y-87937581D01*
X78385703Y-87937581D02*
X78346999Y-88092400D01*
X78346999Y-88092400D02*
X78308294Y-88169810D01*
X78308294Y-88169810D02*
X78230884Y-88247220D01*
X78230884Y-88247220D02*
X78114770Y-88285924D01*
X78114770Y-88285924D02*
X77921246Y-88285924D01*
X98287209Y-48083772D02*
X98403323Y-48122477D01*
X98403323Y-48122477D02*
X98442028Y-48161181D01*
X98442028Y-48161181D02*
X98480732Y-48238591D01*
X98480732Y-48238591D02*
X98480732Y-48354705D01*
X98480732Y-48354705D02*
X98442028Y-48432115D01*
X98442028Y-48432115D02*
X98403323Y-48470820D01*
X98403323Y-48470820D02*
X98325913Y-48509524D01*
X98325913Y-48509524D02*
X98016275Y-48509524D01*
X98016275Y-48509524D02*
X98016275Y-47696724D01*
X98016275Y-47696724D02*
X98287209Y-47696724D01*
X98287209Y-47696724D02*
X98364618Y-47735429D01*
X98364618Y-47735429D02*
X98403323Y-47774134D01*
X98403323Y-47774134D02*
X98442028Y-47851543D01*
X98442028Y-47851543D02*
X98442028Y-47928953D01*
X98442028Y-47928953D02*
X98403323Y-48006362D01*
X98403323Y-48006362D02*
X98364618Y-48045067D01*
X98364618Y-48045067D02*
X98287209Y-48083772D01*
X98287209Y-48083772D02*
X98016275Y-48083772D01*
X99177418Y-47967658D02*
X99177418Y-48509524D01*
X98829075Y-47967658D02*
X98829075Y-48393410D01*
X98829075Y-48393410D02*
X98867780Y-48470820D01*
X98867780Y-48470820D02*
X98945190Y-48509524D01*
X98945190Y-48509524D02*
X99061304Y-48509524D01*
X99061304Y-48509524D02*
X99138713Y-48470820D01*
X99138713Y-48470820D02*
X99177418Y-48432115D01*
X99487056Y-47967658D02*
X99912808Y-47967658D01*
X99912808Y-47967658D02*
X99487056Y-48509524D01*
X99487056Y-48509524D02*
X99912808Y-48509524D01*
X100145037Y-47967658D02*
X100570789Y-47967658D01*
X100570789Y-47967658D02*
X100145037Y-48509524D01*
X100145037Y-48509524D02*
X100570789Y-48509524D01*
X101190065Y-48470820D02*
X101112656Y-48509524D01*
X101112656Y-48509524D02*
X100957837Y-48509524D01*
X100957837Y-48509524D02*
X100880427Y-48470820D01*
X100880427Y-48470820D02*
X100841723Y-48393410D01*
X100841723Y-48393410D02*
X100841723Y-48083772D01*
X100841723Y-48083772D02*
X100880427Y-48006362D01*
X100880427Y-48006362D02*
X100957837Y-47967658D01*
X100957837Y-47967658D02*
X101112656Y-47967658D01*
X101112656Y-47967658D02*
X101190065Y-48006362D01*
X101190065Y-48006362D02*
X101228770Y-48083772D01*
X101228770Y-48083772D02*
X101228770Y-48161181D01*
X101228770Y-48161181D02*
X100841723Y-48238591D01*
X101577113Y-48509524D02*
X101577113Y-47967658D01*
X101577113Y-48122477D02*
X101615818Y-48045067D01*
X101615818Y-48045067D02*
X101654523Y-48006362D01*
X101654523Y-48006362D02*
X101731932Y-47967658D01*
X101731932Y-47967658D02*
X101809342Y-47967658D01*
X109337418Y-59905658D02*
X109337418Y-60447524D01*
X109143894Y-59596020D02*
X108950371Y-60176591D01*
X108950371Y-60176591D02*
X109453532Y-60176591D01*
X109685761Y-59634724D02*
X110227627Y-59634724D01*
X110227627Y-59634724D02*
X109879285Y-60447524D01*
X110692084Y-59634724D02*
X110769494Y-59634724D01*
X110769494Y-59634724D02*
X110846903Y-59673429D01*
X110846903Y-59673429D02*
X110885608Y-59712134D01*
X110885608Y-59712134D02*
X110924313Y-59789543D01*
X110924313Y-59789543D02*
X110963018Y-59944362D01*
X110963018Y-59944362D02*
X110963018Y-60137886D01*
X110963018Y-60137886D02*
X110924313Y-60292705D01*
X110924313Y-60292705D02*
X110885608Y-60370115D01*
X110885608Y-60370115D02*
X110846903Y-60408820D01*
X110846903Y-60408820D02*
X110769494Y-60447524D01*
X110769494Y-60447524D02*
X110692084Y-60447524D01*
X110692084Y-60447524D02*
X110614675Y-60408820D01*
X110614675Y-60408820D02*
X110575970Y-60370115D01*
X110575970Y-60370115D02*
X110537265Y-60292705D01*
X110537265Y-60292705D02*
X110498561Y-60137886D01*
X110498561Y-60137886D02*
X110498561Y-59944362D01*
X110498561Y-59944362D02*
X110537265Y-59789543D01*
X110537265Y-59789543D02*
X110575970Y-59712134D01*
X110575970Y-59712134D02*
X110614675Y-59673429D01*
X110614675Y-59673429D02*
X110692084Y-59634724D01*
X111659703Y-59905658D02*
X111659703Y-60447524D01*
X111311360Y-59905658D02*
X111311360Y-60331410D01*
X111311360Y-60331410D02*
X111350065Y-60408820D01*
X111350065Y-60408820D02*
X111427475Y-60447524D01*
X111427475Y-60447524D02*
X111543589Y-60447524D01*
X111543589Y-60447524D02*
X111620998Y-60408820D01*
X111620998Y-60408820D02*
X111659703Y-60370115D01*
X112317684Y-60021772D02*
X112046750Y-60021772D01*
X112046750Y-60447524D02*
X112046750Y-59634724D01*
X112046750Y-59634724D02*
X112433798Y-59634724D01*
X112525723Y-73096724D02*
X112138675Y-73096724D01*
X112138675Y-73096724D02*
X112138675Y-72283924D01*
X112796656Y-72670972D02*
X113067590Y-72670972D01*
X113183704Y-73096724D02*
X112796656Y-73096724D01*
X112796656Y-73096724D02*
X112796656Y-72283924D01*
X112796656Y-72283924D02*
X113183704Y-72283924D01*
X113532046Y-73096724D02*
X113532046Y-72283924D01*
X113532046Y-72283924D02*
X113725570Y-72283924D01*
X113725570Y-72283924D02*
X113841684Y-72322629D01*
X113841684Y-72322629D02*
X113919094Y-72400039D01*
X113919094Y-72400039D02*
X113957799Y-72477448D01*
X113957799Y-72477448D02*
X113996503Y-72632267D01*
X113996503Y-72632267D02*
X113996503Y-72748381D01*
X113996503Y-72748381D02*
X113957799Y-72903200D01*
X113957799Y-72903200D02*
X113919094Y-72980610D01*
X113919094Y-72980610D02*
X113841684Y-73058020D01*
X113841684Y-73058020D02*
X113725570Y-73096724D01*
X113725570Y-73096724D02*
X113532046Y-73096724D01*
X117554923Y-88336724D02*
X117167875Y-88336724D01*
X117167875Y-88336724D02*
X117167875Y-87523924D01*
X117825856Y-87910972D02*
X118096790Y-87910972D01*
X118212904Y-88336724D02*
X117825856Y-88336724D01*
X117825856Y-88336724D02*
X117825856Y-87523924D01*
X117825856Y-87523924D02*
X118212904Y-87523924D01*
X118561246Y-88336724D02*
X118561246Y-87523924D01*
X118561246Y-87523924D02*
X118754770Y-87523924D01*
X118754770Y-87523924D02*
X118870884Y-87562629D01*
X118870884Y-87562629D02*
X118948294Y-87640039D01*
X118948294Y-87640039D02*
X118986999Y-87717448D01*
X118986999Y-87717448D02*
X119025703Y-87872267D01*
X119025703Y-87872267D02*
X119025703Y-87988381D01*
X119025703Y-87988381D02*
X118986999Y-88143200D01*
X118986999Y-88143200D02*
X118948294Y-88220610D01*
X118948294Y-88220610D02*
X118870884Y-88298020D01*
X118870884Y-88298020D02*
X118754770Y-88336724D01*
X118754770Y-88336724D02*
X118561246Y-88336724D01*
X125155571Y-75201296D02*
X125542618Y-75201296D01*
X125078161Y-75433524D02*
X125349094Y-74620724D01*
X125349094Y-74620724D02*
X125620028Y-75433524D01*
X125890961Y-75433524D02*
X125890961Y-74891658D01*
X125890961Y-75046477D02*
X125929666Y-74969067D01*
X125929666Y-74969067D02*
X125968371Y-74930362D01*
X125968371Y-74930362D02*
X126045780Y-74891658D01*
X126045780Y-74891658D02*
X126123190Y-74891658D01*
X126742466Y-75433524D02*
X126742466Y-74620724D01*
X126742466Y-75394820D02*
X126665057Y-75433524D01*
X126665057Y-75433524D02*
X126510238Y-75433524D01*
X126510238Y-75433524D02*
X126432828Y-75394820D01*
X126432828Y-75394820D02*
X126394123Y-75356115D01*
X126394123Y-75356115D02*
X126355419Y-75278705D01*
X126355419Y-75278705D02*
X126355419Y-75046477D01*
X126355419Y-75046477D02*
X126394123Y-74969067D01*
X126394123Y-74969067D02*
X126432828Y-74930362D01*
X126432828Y-74930362D02*
X126510238Y-74891658D01*
X126510238Y-74891658D02*
X126665057Y-74891658D01*
X126665057Y-74891658D02*
X126742466Y-74930362D01*
X127477856Y-74891658D02*
X127477856Y-75433524D01*
X127129513Y-74891658D02*
X127129513Y-75317410D01*
X127129513Y-75317410D02*
X127168218Y-75394820D01*
X127168218Y-75394820D02*
X127245628Y-75433524D01*
X127245628Y-75433524D02*
X127361742Y-75433524D01*
X127361742Y-75433524D02*
X127439151Y-75394820D01*
X127439151Y-75394820D02*
X127477856Y-75356115D01*
X127864903Y-75433524D02*
X127864903Y-74891658D01*
X127864903Y-74620724D02*
X127826199Y-74659429D01*
X127826199Y-74659429D02*
X127864903Y-74698134D01*
X127864903Y-74698134D02*
X127903608Y-74659429D01*
X127903608Y-74659429D02*
X127864903Y-74620724D01*
X127864903Y-74620724D02*
X127864903Y-74698134D01*
X128251951Y-74891658D02*
X128251951Y-75433524D01*
X128251951Y-74969067D02*
X128290656Y-74930362D01*
X128290656Y-74930362D02*
X128368066Y-74891658D01*
X128368066Y-74891658D02*
X128484180Y-74891658D01*
X128484180Y-74891658D02*
X128561589Y-74930362D01*
X128561589Y-74930362D02*
X128600294Y-75007772D01*
X128600294Y-75007772D02*
X128600294Y-75433524D01*
X129103456Y-75433524D02*
X129026046Y-75394820D01*
X129026046Y-75394820D02*
X128987341Y-75356115D01*
X128987341Y-75356115D02*
X128948637Y-75278705D01*
X128948637Y-75278705D02*
X128948637Y-75046477D01*
X128948637Y-75046477D02*
X128987341Y-74969067D01*
X128987341Y-74969067D02*
X129026046Y-74930362D01*
X129026046Y-74930362D02*
X129103456Y-74891658D01*
X129103456Y-74891658D02*
X129219570Y-74891658D01*
X129219570Y-74891658D02*
X129296979Y-74930362D01*
X129296979Y-74930362D02*
X129335684Y-74969067D01*
X129335684Y-74969067D02*
X129374389Y-75046477D01*
X129374389Y-75046477D02*
X129374389Y-75278705D01*
X129374389Y-75278705D02*
X129335684Y-75356115D01*
X129335684Y-75356115D02*
X129296979Y-75394820D01*
X129296979Y-75394820D02*
X129219570Y-75433524D01*
X129219570Y-75433524D02*
X129103456Y-75433524D01*
X129529208Y-75510934D02*
X130148484Y-75510934D01*
X130342007Y-75433524D02*
X130342007Y-74620724D01*
X130342007Y-74620724D02*
X130806464Y-75433524D01*
X130806464Y-75433524D02*
X130806464Y-74620724D01*
X131541855Y-75433524D02*
X131541855Y-75007772D01*
X131541855Y-75007772D02*
X131503150Y-74930362D01*
X131503150Y-74930362D02*
X131425741Y-74891658D01*
X131425741Y-74891658D02*
X131270922Y-74891658D01*
X131270922Y-74891658D02*
X131193512Y-74930362D01*
X131541855Y-75394820D02*
X131464446Y-75433524D01*
X131464446Y-75433524D02*
X131270922Y-75433524D01*
X131270922Y-75433524D02*
X131193512Y-75394820D01*
X131193512Y-75394820D02*
X131154808Y-75317410D01*
X131154808Y-75317410D02*
X131154808Y-75240000D01*
X131154808Y-75240000D02*
X131193512Y-75162591D01*
X131193512Y-75162591D02*
X131270922Y-75123886D01*
X131270922Y-75123886D02*
X131464446Y-75123886D01*
X131464446Y-75123886D02*
X131541855Y-75085181D01*
X131928902Y-74891658D02*
X131928902Y-75433524D01*
X131928902Y-74969067D02*
X131967607Y-74930362D01*
X131967607Y-74930362D02*
X132045017Y-74891658D01*
X132045017Y-74891658D02*
X132161131Y-74891658D01*
X132161131Y-74891658D02*
X132238540Y-74930362D01*
X132238540Y-74930362D02*
X132277245Y-75007772D01*
X132277245Y-75007772D02*
X132277245Y-75433524D01*
X132780407Y-75433524D02*
X132702997Y-75394820D01*
X132702997Y-75394820D02*
X132664292Y-75356115D01*
X132664292Y-75356115D02*
X132625588Y-75278705D01*
X132625588Y-75278705D02*
X132625588Y-75046477D01*
X132625588Y-75046477D02*
X132664292Y-74969067D01*
X132664292Y-74969067D02*
X132702997Y-74930362D01*
X132702997Y-74930362D02*
X132780407Y-74891658D01*
X132780407Y-74891658D02*
X132896521Y-74891658D01*
X132896521Y-74891658D02*
X132973930Y-74930362D01*
X132973930Y-74930362D02*
X133012635Y-74969067D01*
X133012635Y-74969067D02*
X133051340Y-75046477D01*
X133051340Y-75046477D02*
X133051340Y-75278705D01*
X133051340Y-75278705D02*
X133012635Y-75356115D01*
X133012635Y-75356115D02*
X132973930Y-75394820D01*
X132973930Y-75394820D02*
X132896521Y-75433524D01*
X132896521Y-75433524D02*
X132780407Y-75433524D01*
X133206159Y-75510934D02*
X133825435Y-75510934D01*
X133941549Y-74891658D02*
X134135073Y-75433524D01*
X134135073Y-75433524D02*
X134328596Y-74891658D01*
X134560825Y-74620724D02*
X135063987Y-74620724D01*
X135063987Y-74620724D02*
X134793053Y-74930362D01*
X134793053Y-74930362D02*
X134909168Y-74930362D01*
X134909168Y-74930362D02*
X134986577Y-74969067D01*
X134986577Y-74969067D02*
X135025282Y-75007772D01*
X135025282Y-75007772D02*
X135063987Y-75085181D01*
X135063987Y-75085181D02*
X135063987Y-75278705D01*
X135063987Y-75278705D02*
X135025282Y-75356115D01*
X135025282Y-75356115D02*
X134986577Y-75394820D01*
X134986577Y-75394820D02*
X134909168Y-75433524D01*
X134909168Y-75433524D02*
X134676939Y-75433524D01*
X134676939Y-75433524D02*
X134599530Y-75394820D01*
X134599530Y-75394820D02*
X134560825Y-75356115D01*
X135412329Y-75356115D02*
X135451034Y-75394820D01*
X135451034Y-75394820D02*
X135412329Y-75433524D01*
X135412329Y-75433524D02*
X135373625Y-75394820D01*
X135373625Y-75394820D02*
X135412329Y-75356115D01*
X135412329Y-75356115D02*
X135412329Y-75433524D01*
X135721968Y-75433524D02*
X136147720Y-74891658D01*
X135721968Y-74891658D02*
X136147720Y-75433524D01*
X128109228Y-86304724D02*
X127644771Y-86304724D01*
X127876999Y-86304724D02*
X127876999Y-85491924D01*
X127876999Y-85491924D02*
X127799590Y-85608039D01*
X127799590Y-85608039D02*
X127722180Y-85685448D01*
X127722180Y-85685448D02*
X127644771Y-85724153D01*
X128457570Y-86304724D02*
X128457570Y-85491924D01*
X128922027Y-86304724D02*
X128573685Y-85840267D01*
X128922027Y-85491924D02*
X128457570Y-85956381D01*
X128160028Y-90419524D02*
X127695571Y-90419524D01*
X127927799Y-90419524D02*
X127927799Y-89606724D01*
X127927799Y-89606724D02*
X127850390Y-89722839D01*
X127850390Y-89722839D02*
X127772980Y-89800248D01*
X127772980Y-89800248D02*
X127695571Y-89838953D01*
X128508370Y-90419524D02*
X128508370Y-89606724D01*
X128972827Y-90419524D02*
X128624485Y-89955067D01*
X128972827Y-89606724D02*
X128508370Y-90071181D01*
X76449524Y-69451971D02*
X76449524Y-69916428D01*
X76449524Y-69684200D02*
X75636724Y-69684200D01*
X75636724Y-69684200D02*
X75752839Y-69761609D01*
X75752839Y-69761609D02*
X75830248Y-69839019D01*
X75830248Y-69839019D02*
X75868953Y-69916428D01*
X75636724Y-68948810D02*
X75636724Y-68871400D01*
X75636724Y-68871400D02*
X75675429Y-68793991D01*
X75675429Y-68793991D02*
X75714134Y-68755286D01*
X75714134Y-68755286D02*
X75791543Y-68716581D01*
X75791543Y-68716581D02*
X75946362Y-68677876D01*
X75946362Y-68677876D02*
X76139886Y-68677876D01*
X76139886Y-68677876D02*
X76294705Y-68716581D01*
X76294705Y-68716581D02*
X76372115Y-68755286D01*
X76372115Y-68755286D02*
X76410820Y-68793991D01*
X76410820Y-68793991D02*
X76449524Y-68871400D01*
X76449524Y-68871400D02*
X76449524Y-68948810D01*
X76449524Y-68948810D02*
X76410820Y-69026219D01*
X76410820Y-69026219D02*
X76372115Y-69064924D01*
X76372115Y-69064924D02*
X76294705Y-69103629D01*
X76294705Y-69103629D02*
X76139886Y-69142333D01*
X76139886Y-69142333D02*
X75946362Y-69142333D01*
X75946362Y-69142333D02*
X75791543Y-69103629D01*
X75791543Y-69103629D02*
X75714134Y-69064924D01*
X75714134Y-69064924D02*
X75675429Y-69026219D01*
X75675429Y-69026219D02*
X75636724Y-68948810D01*
X75636724Y-68174715D02*
X75636724Y-68097305D01*
X75636724Y-68097305D02*
X75675429Y-68019896D01*
X75675429Y-68019896D02*
X75714134Y-67981191D01*
X75714134Y-67981191D02*
X75791543Y-67942486D01*
X75791543Y-67942486D02*
X75946362Y-67903781D01*
X75946362Y-67903781D02*
X76139886Y-67903781D01*
X76139886Y-67903781D02*
X76294705Y-67942486D01*
X76294705Y-67942486D02*
X76372115Y-67981191D01*
X76372115Y-67981191D02*
X76410820Y-68019896D01*
X76410820Y-68019896D02*
X76449524Y-68097305D01*
X76449524Y-68097305D02*
X76449524Y-68174715D01*
X76449524Y-68174715D02*
X76410820Y-68252124D01*
X76410820Y-68252124D02*
X76372115Y-68290829D01*
X76372115Y-68290829D02*
X76294705Y-68329534D01*
X76294705Y-68329534D02*
X76139886Y-68368238D01*
X76139886Y-68368238D02*
X75946362Y-68368238D01*
X75946362Y-68368238D02*
X75791543Y-68329534D01*
X75791543Y-68329534D02*
X75714134Y-68290829D01*
X75714134Y-68290829D02*
X75675429Y-68252124D01*
X75675429Y-68252124D02*
X75636724Y-68174715D01*
X75907658Y-67555439D02*
X76449524Y-67555439D01*
X75985067Y-67555439D02*
X75946362Y-67516734D01*
X75946362Y-67516734D02*
X75907658Y-67439324D01*
X75907658Y-67439324D02*
X75907658Y-67323210D01*
X75907658Y-67323210D02*
X75946362Y-67245801D01*
X75946362Y-67245801D02*
X76023772Y-67207096D01*
X76023772Y-67207096D02*
X76449524Y-67207096D01*
X76500324Y-57361571D02*
X76500324Y-57826028D01*
X76500324Y-57593800D02*
X75687524Y-57593800D01*
X75687524Y-57593800D02*
X75803639Y-57671209D01*
X75803639Y-57671209D02*
X75881048Y-57748619D01*
X75881048Y-57748619D02*
X75919753Y-57826028D01*
X76500324Y-57013229D02*
X75687524Y-57013229D01*
X76500324Y-56548772D02*
X76035867Y-56897114D01*
X75687524Y-56548772D02*
X76151981Y-57013229D01*
X81631124Y-69502771D02*
X81631124Y-69967228D01*
X81631124Y-69735000D02*
X80818324Y-69735000D01*
X80818324Y-69735000D02*
X80934439Y-69812409D01*
X80934439Y-69812409D02*
X81011848Y-69889819D01*
X81011848Y-69889819D02*
X81050553Y-69967228D01*
X80818324Y-68999610D02*
X80818324Y-68922200D01*
X80818324Y-68922200D02*
X80857029Y-68844791D01*
X80857029Y-68844791D02*
X80895734Y-68806086D01*
X80895734Y-68806086D02*
X80973143Y-68767381D01*
X80973143Y-68767381D02*
X81127962Y-68728676D01*
X81127962Y-68728676D02*
X81321486Y-68728676D01*
X81321486Y-68728676D02*
X81476305Y-68767381D01*
X81476305Y-68767381D02*
X81553715Y-68806086D01*
X81553715Y-68806086D02*
X81592420Y-68844791D01*
X81592420Y-68844791D02*
X81631124Y-68922200D01*
X81631124Y-68922200D02*
X81631124Y-68999610D01*
X81631124Y-68999610D02*
X81592420Y-69077019D01*
X81592420Y-69077019D02*
X81553715Y-69115724D01*
X81553715Y-69115724D02*
X81476305Y-69154429D01*
X81476305Y-69154429D02*
X81321486Y-69193133D01*
X81321486Y-69193133D02*
X81127962Y-69193133D01*
X81127962Y-69193133D02*
X80973143Y-69154429D01*
X80973143Y-69154429D02*
X80895734Y-69115724D01*
X80895734Y-69115724D02*
X80857029Y-69077019D01*
X80857029Y-69077019D02*
X80818324Y-68999610D01*
X80818324Y-68225515D02*
X80818324Y-68148105D01*
X80818324Y-68148105D02*
X80857029Y-68070696D01*
X80857029Y-68070696D02*
X80895734Y-68031991D01*
X80895734Y-68031991D02*
X80973143Y-67993286D01*
X80973143Y-67993286D02*
X81127962Y-67954581D01*
X81127962Y-67954581D02*
X81321486Y-67954581D01*
X81321486Y-67954581D02*
X81476305Y-67993286D01*
X81476305Y-67993286D02*
X81553715Y-68031991D01*
X81553715Y-68031991D02*
X81592420Y-68070696D01*
X81592420Y-68070696D02*
X81631124Y-68148105D01*
X81631124Y-68148105D02*
X81631124Y-68225515D01*
X81631124Y-68225515D02*
X81592420Y-68302924D01*
X81592420Y-68302924D02*
X81553715Y-68341629D01*
X81553715Y-68341629D02*
X81476305Y-68380334D01*
X81476305Y-68380334D02*
X81321486Y-68419038D01*
X81321486Y-68419038D02*
X81127962Y-68419038D01*
X81127962Y-68419038D02*
X80973143Y-68380334D01*
X80973143Y-68380334D02*
X80895734Y-68341629D01*
X80895734Y-68341629D02*
X80857029Y-68302924D01*
X80857029Y-68302924D02*
X80818324Y-68225515D01*
X81089258Y-67606239D02*
X81631124Y-67606239D01*
X81166667Y-67606239D02*
X81127962Y-67567534D01*
X81127962Y-67567534D02*
X81089258Y-67490124D01*
X81089258Y-67490124D02*
X81089258Y-67374010D01*
X81089258Y-67374010D02*
X81127962Y-67296601D01*
X81127962Y-67296601D02*
X81205372Y-67257896D01*
X81205372Y-67257896D02*
X81631124Y-67257896D01*
X81681924Y-57259971D02*
X81681924Y-57724428D01*
X81681924Y-57492200D02*
X80869124Y-57492200D01*
X80869124Y-57492200D02*
X80985239Y-57569609D01*
X80985239Y-57569609D02*
X81062648Y-57647019D01*
X81062648Y-57647019D02*
X81101353Y-57724428D01*
X81681924Y-56911629D02*
X80869124Y-56911629D01*
X81681924Y-56447172D02*
X81217467Y-56795514D01*
X80869124Y-56447172D02*
X81333581Y-56911629D01*
X86660324Y-69401171D02*
X86660324Y-69865628D01*
X86660324Y-69633400D02*
X85847524Y-69633400D01*
X85847524Y-69633400D02*
X85963639Y-69710809D01*
X85963639Y-69710809D02*
X86041048Y-69788219D01*
X86041048Y-69788219D02*
X86079753Y-69865628D01*
X85847524Y-68898010D02*
X85847524Y-68820600D01*
X85847524Y-68820600D02*
X85886229Y-68743191D01*
X85886229Y-68743191D02*
X85924934Y-68704486D01*
X85924934Y-68704486D02*
X86002343Y-68665781D01*
X86002343Y-68665781D02*
X86157162Y-68627076D01*
X86157162Y-68627076D02*
X86350686Y-68627076D01*
X86350686Y-68627076D02*
X86505505Y-68665781D01*
X86505505Y-68665781D02*
X86582915Y-68704486D01*
X86582915Y-68704486D02*
X86621620Y-68743191D01*
X86621620Y-68743191D02*
X86660324Y-68820600D01*
X86660324Y-68820600D02*
X86660324Y-68898010D01*
X86660324Y-68898010D02*
X86621620Y-68975419D01*
X86621620Y-68975419D02*
X86582915Y-69014124D01*
X86582915Y-69014124D02*
X86505505Y-69052829D01*
X86505505Y-69052829D02*
X86350686Y-69091533D01*
X86350686Y-69091533D02*
X86157162Y-69091533D01*
X86157162Y-69091533D02*
X86002343Y-69052829D01*
X86002343Y-69052829D02*
X85924934Y-69014124D01*
X85924934Y-69014124D02*
X85886229Y-68975419D01*
X85886229Y-68975419D02*
X85847524Y-68898010D01*
X85847524Y-68123915D02*
X85847524Y-68046505D01*
X85847524Y-68046505D02*
X85886229Y-67969096D01*
X85886229Y-67969096D02*
X85924934Y-67930391D01*
X85924934Y-67930391D02*
X86002343Y-67891686D01*
X86002343Y-67891686D02*
X86157162Y-67852981D01*
X86157162Y-67852981D02*
X86350686Y-67852981D01*
X86350686Y-67852981D02*
X86505505Y-67891686D01*
X86505505Y-67891686D02*
X86582915Y-67930391D01*
X86582915Y-67930391D02*
X86621620Y-67969096D01*
X86621620Y-67969096D02*
X86660324Y-68046505D01*
X86660324Y-68046505D02*
X86660324Y-68123915D01*
X86660324Y-68123915D02*
X86621620Y-68201324D01*
X86621620Y-68201324D02*
X86582915Y-68240029D01*
X86582915Y-68240029D02*
X86505505Y-68278734D01*
X86505505Y-68278734D02*
X86350686Y-68317438D01*
X86350686Y-68317438D02*
X86157162Y-68317438D01*
X86157162Y-68317438D02*
X86002343Y-68278734D01*
X86002343Y-68278734D02*
X85924934Y-68240029D01*
X85924934Y-68240029D02*
X85886229Y-68201324D01*
X85886229Y-68201324D02*
X85847524Y-68123915D01*
X86118458Y-67504639D02*
X86660324Y-67504639D01*
X86195867Y-67504639D02*
X86157162Y-67465934D01*
X86157162Y-67465934D02*
X86118458Y-67388524D01*
X86118458Y-67388524D02*
X86118458Y-67272410D01*
X86118458Y-67272410D02*
X86157162Y-67195001D01*
X86157162Y-67195001D02*
X86234572Y-67156296D01*
X86234572Y-67156296D02*
X86660324Y-67156296D01*
X86761924Y-57310771D02*
X86761924Y-57775228D01*
X86761924Y-57543000D02*
X85949124Y-57543000D01*
X85949124Y-57543000D02*
X86065239Y-57620409D01*
X86065239Y-57620409D02*
X86142648Y-57697819D01*
X86142648Y-57697819D02*
X86181353Y-57775228D01*
X86761924Y-56962429D02*
X85949124Y-56962429D01*
X86761924Y-56497972D02*
X86297467Y-56846314D01*
X85949124Y-56497972D02*
X86413581Y-56962429D01*
X91740324Y-69502771D02*
X91740324Y-69967228D01*
X91740324Y-69735000D02*
X90927524Y-69735000D01*
X90927524Y-69735000D02*
X91043639Y-69812409D01*
X91043639Y-69812409D02*
X91121048Y-69889819D01*
X91121048Y-69889819D02*
X91159753Y-69967228D01*
X90927524Y-68999610D02*
X90927524Y-68922200D01*
X90927524Y-68922200D02*
X90966229Y-68844791D01*
X90966229Y-68844791D02*
X91004934Y-68806086D01*
X91004934Y-68806086D02*
X91082343Y-68767381D01*
X91082343Y-68767381D02*
X91237162Y-68728676D01*
X91237162Y-68728676D02*
X91430686Y-68728676D01*
X91430686Y-68728676D02*
X91585505Y-68767381D01*
X91585505Y-68767381D02*
X91662915Y-68806086D01*
X91662915Y-68806086D02*
X91701620Y-68844791D01*
X91701620Y-68844791D02*
X91740324Y-68922200D01*
X91740324Y-68922200D02*
X91740324Y-68999610D01*
X91740324Y-68999610D02*
X91701620Y-69077019D01*
X91701620Y-69077019D02*
X91662915Y-69115724D01*
X91662915Y-69115724D02*
X91585505Y-69154429D01*
X91585505Y-69154429D02*
X91430686Y-69193133D01*
X91430686Y-69193133D02*
X91237162Y-69193133D01*
X91237162Y-69193133D02*
X91082343Y-69154429D01*
X91082343Y-69154429D02*
X91004934Y-69115724D01*
X91004934Y-69115724D02*
X90966229Y-69077019D01*
X90966229Y-69077019D02*
X90927524Y-68999610D01*
X90927524Y-68225515D02*
X90927524Y-68148105D01*
X90927524Y-68148105D02*
X90966229Y-68070696D01*
X90966229Y-68070696D02*
X91004934Y-68031991D01*
X91004934Y-68031991D02*
X91082343Y-67993286D01*
X91082343Y-67993286D02*
X91237162Y-67954581D01*
X91237162Y-67954581D02*
X91430686Y-67954581D01*
X91430686Y-67954581D02*
X91585505Y-67993286D01*
X91585505Y-67993286D02*
X91662915Y-68031991D01*
X91662915Y-68031991D02*
X91701620Y-68070696D01*
X91701620Y-68070696D02*
X91740324Y-68148105D01*
X91740324Y-68148105D02*
X91740324Y-68225515D01*
X91740324Y-68225515D02*
X91701620Y-68302924D01*
X91701620Y-68302924D02*
X91662915Y-68341629D01*
X91662915Y-68341629D02*
X91585505Y-68380334D01*
X91585505Y-68380334D02*
X91430686Y-68419038D01*
X91430686Y-68419038D02*
X91237162Y-68419038D01*
X91237162Y-68419038D02*
X91082343Y-68380334D01*
X91082343Y-68380334D02*
X91004934Y-68341629D01*
X91004934Y-68341629D02*
X90966229Y-68302924D01*
X90966229Y-68302924D02*
X90927524Y-68225515D01*
X91198458Y-67606239D02*
X91740324Y-67606239D01*
X91275867Y-67606239D02*
X91237162Y-67567534D01*
X91237162Y-67567534D02*
X91198458Y-67490124D01*
X91198458Y-67490124D02*
X91198458Y-67374010D01*
X91198458Y-67374010D02*
X91237162Y-67296601D01*
X91237162Y-67296601D02*
X91314572Y-67257896D01*
X91314572Y-67257896D02*
X91740324Y-67257896D01*
X91943524Y-57361571D02*
X91943524Y-57826028D01*
X91943524Y-57593800D02*
X91130724Y-57593800D01*
X91130724Y-57593800D02*
X91246839Y-57671209D01*
X91246839Y-57671209D02*
X91324248Y-57748619D01*
X91324248Y-57748619D02*
X91362953Y-57826028D01*
X91943524Y-57013229D02*
X91130724Y-57013229D01*
X91943524Y-56548772D02*
X91479067Y-56897114D01*
X91130724Y-56548772D02*
X91595181Y-57013229D01*
X96871124Y-69502771D02*
X96871124Y-69967228D01*
X96871124Y-69735000D02*
X96058324Y-69735000D01*
X96058324Y-69735000D02*
X96174439Y-69812409D01*
X96174439Y-69812409D02*
X96251848Y-69889819D01*
X96251848Y-69889819D02*
X96290553Y-69967228D01*
X96058324Y-68999610D02*
X96058324Y-68922200D01*
X96058324Y-68922200D02*
X96097029Y-68844791D01*
X96097029Y-68844791D02*
X96135734Y-68806086D01*
X96135734Y-68806086D02*
X96213143Y-68767381D01*
X96213143Y-68767381D02*
X96367962Y-68728676D01*
X96367962Y-68728676D02*
X96561486Y-68728676D01*
X96561486Y-68728676D02*
X96716305Y-68767381D01*
X96716305Y-68767381D02*
X96793715Y-68806086D01*
X96793715Y-68806086D02*
X96832420Y-68844791D01*
X96832420Y-68844791D02*
X96871124Y-68922200D01*
X96871124Y-68922200D02*
X96871124Y-68999610D01*
X96871124Y-68999610D02*
X96832420Y-69077019D01*
X96832420Y-69077019D02*
X96793715Y-69115724D01*
X96793715Y-69115724D02*
X96716305Y-69154429D01*
X96716305Y-69154429D02*
X96561486Y-69193133D01*
X96561486Y-69193133D02*
X96367962Y-69193133D01*
X96367962Y-69193133D02*
X96213143Y-69154429D01*
X96213143Y-69154429D02*
X96135734Y-69115724D01*
X96135734Y-69115724D02*
X96097029Y-69077019D01*
X96097029Y-69077019D02*
X96058324Y-68999610D01*
X96058324Y-68225515D02*
X96058324Y-68148105D01*
X96058324Y-68148105D02*
X96097029Y-68070696D01*
X96097029Y-68070696D02*
X96135734Y-68031991D01*
X96135734Y-68031991D02*
X96213143Y-67993286D01*
X96213143Y-67993286D02*
X96367962Y-67954581D01*
X96367962Y-67954581D02*
X96561486Y-67954581D01*
X96561486Y-67954581D02*
X96716305Y-67993286D01*
X96716305Y-67993286D02*
X96793715Y-68031991D01*
X96793715Y-68031991D02*
X96832420Y-68070696D01*
X96832420Y-68070696D02*
X96871124Y-68148105D01*
X96871124Y-68148105D02*
X96871124Y-68225515D01*
X96871124Y-68225515D02*
X96832420Y-68302924D01*
X96832420Y-68302924D02*
X96793715Y-68341629D01*
X96793715Y-68341629D02*
X96716305Y-68380334D01*
X96716305Y-68380334D02*
X96561486Y-68419038D01*
X96561486Y-68419038D02*
X96367962Y-68419038D01*
X96367962Y-68419038D02*
X96213143Y-68380334D01*
X96213143Y-68380334D02*
X96135734Y-68341629D01*
X96135734Y-68341629D02*
X96097029Y-68302924D01*
X96097029Y-68302924D02*
X96058324Y-68225515D01*
X96329258Y-67606239D02*
X96871124Y-67606239D01*
X96406667Y-67606239D02*
X96367962Y-67567534D01*
X96367962Y-67567534D02*
X96329258Y-67490124D01*
X96329258Y-67490124D02*
X96329258Y-67374010D01*
X96329258Y-67374010D02*
X96367962Y-67296601D01*
X96367962Y-67296601D02*
X96445372Y-67257896D01*
X96445372Y-67257896D02*
X96871124Y-67257896D01*
X96921924Y-57412371D02*
X96921924Y-57876828D01*
X96921924Y-57644600D02*
X96109124Y-57644600D01*
X96109124Y-57644600D02*
X96225239Y-57722009D01*
X96225239Y-57722009D02*
X96302648Y-57799419D01*
X96302648Y-57799419D02*
X96341353Y-57876828D01*
X96921924Y-57064029D02*
X96109124Y-57064029D01*
X96921924Y-56599572D02*
X96457467Y-56947914D01*
X96109124Y-56599572D02*
X96573581Y-57064029D01*
X101900324Y-69502771D02*
X101900324Y-69967228D01*
X101900324Y-69735000D02*
X101087524Y-69735000D01*
X101087524Y-69735000D02*
X101203639Y-69812409D01*
X101203639Y-69812409D02*
X101281048Y-69889819D01*
X101281048Y-69889819D02*
X101319753Y-69967228D01*
X101087524Y-68999610D02*
X101087524Y-68922200D01*
X101087524Y-68922200D02*
X101126229Y-68844791D01*
X101126229Y-68844791D02*
X101164934Y-68806086D01*
X101164934Y-68806086D02*
X101242343Y-68767381D01*
X101242343Y-68767381D02*
X101397162Y-68728676D01*
X101397162Y-68728676D02*
X101590686Y-68728676D01*
X101590686Y-68728676D02*
X101745505Y-68767381D01*
X101745505Y-68767381D02*
X101822915Y-68806086D01*
X101822915Y-68806086D02*
X101861620Y-68844791D01*
X101861620Y-68844791D02*
X101900324Y-68922200D01*
X101900324Y-68922200D02*
X101900324Y-68999610D01*
X101900324Y-68999610D02*
X101861620Y-69077019D01*
X101861620Y-69077019D02*
X101822915Y-69115724D01*
X101822915Y-69115724D02*
X101745505Y-69154429D01*
X101745505Y-69154429D02*
X101590686Y-69193133D01*
X101590686Y-69193133D02*
X101397162Y-69193133D01*
X101397162Y-69193133D02*
X101242343Y-69154429D01*
X101242343Y-69154429D02*
X101164934Y-69115724D01*
X101164934Y-69115724D02*
X101126229Y-69077019D01*
X101126229Y-69077019D02*
X101087524Y-68999610D01*
X101087524Y-68225515D02*
X101087524Y-68148105D01*
X101087524Y-68148105D02*
X101126229Y-68070696D01*
X101126229Y-68070696D02*
X101164934Y-68031991D01*
X101164934Y-68031991D02*
X101242343Y-67993286D01*
X101242343Y-67993286D02*
X101397162Y-67954581D01*
X101397162Y-67954581D02*
X101590686Y-67954581D01*
X101590686Y-67954581D02*
X101745505Y-67993286D01*
X101745505Y-67993286D02*
X101822915Y-68031991D01*
X101822915Y-68031991D02*
X101861620Y-68070696D01*
X101861620Y-68070696D02*
X101900324Y-68148105D01*
X101900324Y-68148105D02*
X101900324Y-68225515D01*
X101900324Y-68225515D02*
X101861620Y-68302924D01*
X101861620Y-68302924D02*
X101822915Y-68341629D01*
X101822915Y-68341629D02*
X101745505Y-68380334D01*
X101745505Y-68380334D02*
X101590686Y-68419038D01*
X101590686Y-68419038D02*
X101397162Y-68419038D01*
X101397162Y-68419038D02*
X101242343Y-68380334D01*
X101242343Y-68380334D02*
X101164934Y-68341629D01*
X101164934Y-68341629D02*
X101126229Y-68302924D01*
X101126229Y-68302924D02*
X101087524Y-68225515D01*
X101358458Y-67606239D02*
X101900324Y-67606239D01*
X101435867Y-67606239D02*
X101397162Y-67567534D01*
X101397162Y-67567534D02*
X101358458Y-67490124D01*
X101358458Y-67490124D02*
X101358458Y-67374010D01*
X101358458Y-67374010D02*
X101397162Y-67296601D01*
X101397162Y-67296601D02*
X101474572Y-67257896D01*
X101474572Y-67257896D02*
X101900324Y-67257896D01*
X102052724Y-57361571D02*
X102052724Y-57826028D01*
X102052724Y-57593800D02*
X101239924Y-57593800D01*
X101239924Y-57593800D02*
X101356039Y-57671209D01*
X101356039Y-57671209D02*
X101433448Y-57748619D01*
X101433448Y-57748619D02*
X101472153Y-57826028D01*
X102052724Y-57013229D02*
X101239924Y-57013229D01*
X102052724Y-56548772D02*
X101588267Y-56897114D01*
X101239924Y-56548772D02*
X101704381Y-57013229D01*
D14*
X94710560Y-80810537D02*
X95186750Y-80810537D01*
X94615322Y-81096252D02*
X94948655Y-80096252D01*
X94948655Y-80096252D02*
X95281988Y-81096252D01*
X107232712Y-77372042D02*
X107375569Y-77419661D01*
X107375569Y-77419661D02*
X107423188Y-77467280D01*
X107423188Y-77467280D02*
X107470807Y-77562518D01*
X107470807Y-77562518D02*
X107470807Y-77705375D01*
X107470807Y-77705375D02*
X107423188Y-77800613D01*
X107423188Y-77800613D02*
X107375569Y-77848233D01*
X107375569Y-77848233D02*
X107280331Y-77895852D01*
X107280331Y-77895852D02*
X106899379Y-77895852D01*
X106899379Y-77895852D02*
X106899379Y-76895852D01*
X106899379Y-76895852D02*
X107232712Y-76895852D01*
X107232712Y-76895852D02*
X107327950Y-76943471D01*
X107327950Y-76943471D02*
X107375569Y-76991090D01*
X107375569Y-76991090D02*
X107423188Y-77086328D01*
X107423188Y-77086328D02*
X107423188Y-77181566D01*
X107423188Y-77181566D02*
X107375569Y-77276804D01*
X107375569Y-77276804D02*
X107327950Y-77324423D01*
X107327950Y-77324423D02*
X107232712Y-77372042D01*
X107232712Y-77372042D02*
X106899379Y-77372042D01*
D12*
X69781190Y-76097419D02*
X69781190Y-76906942D01*
X69781190Y-76906942D02*
X69828809Y-77002180D01*
X69828809Y-77002180D02*
X69876428Y-77049800D01*
X69876428Y-77049800D02*
X69971666Y-77097419D01*
X69971666Y-77097419D02*
X70162142Y-77097419D01*
X70162142Y-77097419D02*
X70257380Y-77049800D01*
X70257380Y-77049800D02*
X70304999Y-77002180D01*
X70304999Y-77002180D02*
X70352618Y-76906942D01*
X70352618Y-76906942D02*
X70352618Y-76097419D01*
X70781190Y-76192657D02*
X70828809Y-76145038D01*
X70828809Y-76145038D02*
X70924047Y-76097419D01*
X70924047Y-76097419D02*
X71162142Y-76097419D01*
X71162142Y-76097419D02*
X71257380Y-76145038D01*
X71257380Y-76145038D02*
X71304999Y-76192657D01*
X71304999Y-76192657D02*
X71352618Y-76287895D01*
X71352618Y-76287895D02*
X71352618Y-76383133D01*
X71352618Y-76383133D02*
X71304999Y-76525990D01*
X71304999Y-76525990D02*
X70733571Y-77097419D01*
X70733571Y-77097419D02*
X71352618Y-77097419D01*
X91976000Y-39824934D02*
X92023619Y-39682077D01*
X92023619Y-39682077D02*
X92023619Y-39443982D01*
X92023619Y-39443982D02*
X91976000Y-39348744D01*
X91976000Y-39348744D02*
X91928380Y-39301125D01*
X91928380Y-39301125D02*
X91833142Y-39253506D01*
X91833142Y-39253506D02*
X91737904Y-39253506D01*
X91737904Y-39253506D02*
X91642666Y-39301125D01*
X91642666Y-39301125D02*
X91595047Y-39348744D01*
X91595047Y-39348744D02*
X91547428Y-39443982D01*
X91547428Y-39443982D02*
X91499809Y-39634458D01*
X91499809Y-39634458D02*
X91452190Y-39729696D01*
X91452190Y-39729696D02*
X91404571Y-39777315D01*
X91404571Y-39777315D02*
X91309333Y-39824934D01*
X91309333Y-39824934D02*
X91214095Y-39824934D01*
X91214095Y-39824934D02*
X91118857Y-39777315D01*
X91118857Y-39777315D02*
X91071238Y-39729696D01*
X91071238Y-39729696D02*
X91023619Y-39634458D01*
X91023619Y-39634458D02*
X91023619Y-39396363D01*
X91023619Y-39396363D02*
X91071238Y-39253506D01*
X92023619Y-38824934D02*
X91023619Y-38824934D01*
X91023619Y-38824934D02*
X91023619Y-38586839D01*
X91023619Y-38586839D02*
X91071238Y-38443982D01*
X91071238Y-38443982D02*
X91166476Y-38348744D01*
X91166476Y-38348744D02*
X91261714Y-38301125D01*
X91261714Y-38301125D02*
X91452190Y-38253506D01*
X91452190Y-38253506D02*
X91595047Y-38253506D01*
X91595047Y-38253506D02*
X91785523Y-38301125D01*
X91785523Y-38301125D02*
X91880761Y-38348744D01*
X91880761Y-38348744D02*
X91976000Y-38443982D01*
X91976000Y-38443982D02*
X92023619Y-38586839D01*
X92023619Y-38586839D02*
X92023619Y-38824934D01*
X91737904Y-37872553D02*
X91737904Y-37396363D01*
X92023619Y-37967791D02*
X91023619Y-37634458D01*
X91023619Y-37634458D02*
X92023619Y-37301125D01*
X89436000Y-39824934D02*
X89483619Y-39682077D01*
X89483619Y-39682077D02*
X89483619Y-39443982D01*
X89483619Y-39443982D02*
X89436000Y-39348744D01*
X89436000Y-39348744D02*
X89388380Y-39301125D01*
X89388380Y-39301125D02*
X89293142Y-39253506D01*
X89293142Y-39253506D02*
X89197904Y-39253506D01*
X89197904Y-39253506D02*
X89102666Y-39301125D01*
X89102666Y-39301125D02*
X89055047Y-39348744D01*
X89055047Y-39348744D02*
X89007428Y-39443982D01*
X89007428Y-39443982D02*
X88959809Y-39634458D01*
X88959809Y-39634458D02*
X88912190Y-39729696D01*
X88912190Y-39729696D02*
X88864571Y-39777315D01*
X88864571Y-39777315D02*
X88769333Y-39824934D01*
X88769333Y-39824934D02*
X88674095Y-39824934D01*
X88674095Y-39824934D02*
X88578857Y-39777315D01*
X88578857Y-39777315D02*
X88531238Y-39729696D01*
X88531238Y-39729696D02*
X88483619Y-39634458D01*
X88483619Y-39634458D02*
X88483619Y-39396363D01*
X88483619Y-39396363D02*
X88531238Y-39253506D01*
X89388380Y-38253506D02*
X89436000Y-38301125D01*
X89436000Y-38301125D02*
X89483619Y-38443982D01*
X89483619Y-38443982D02*
X89483619Y-38539220D01*
X89483619Y-38539220D02*
X89436000Y-38682077D01*
X89436000Y-38682077D02*
X89340761Y-38777315D01*
X89340761Y-38777315D02*
X89245523Y-38824934D01*
X89245523Y-38824934D02*
X89055047Y-38872553D01*
X89055047Y-38872553D02*
X88912190Y-38872553D01*
X88912190Y-38872553D02*
X88721714Y-38824934D01*
X88721714Y-38824934D02*
X88626476Y-38777315D01*
X88626476Y-38777315D02*
X88531238Y-38682077D01*
X88531238Y-38682077D02*
X88483619Y-38539220D01*
X88483619Y-38539220D02*
X88483619Y-38443982D01*
X88483619Y-38443982D02*
X88531238Y-38301125D01*
X88531238Y-38301125D02*
X88578857Y-38253506D01*
X89483619Y-37348744D02*
X89483619Y-37824934D01*
X89483619Y-37824934D02*
X88483619Y-37824934D01*
X85842019Y-39970972D02*
X86842019Y-39637639D01*
X86842019Y-39637639D02*
X85842019Y-39304306D01*
X86746780Y-38399544D02*
X86794400Y-38447163D01*
X86794400Y-38447163D02*
X86842019Y-38590020D01*
X86842019Y-38590020D02*
X86842019Y-38685258D01*
X86842019Y-38685258D02*
X86794400Y-38828115D01*
X86794400Y-38828115D02*
X86699161Y-38923353D01*
X86699161Y-38923353D02*
X86603923Y-38970972D01*
X86603923Y-38970972D02*
X86413447Y-39018591D01*
X86413447Y-39018591D02*
X86270590Y-39018591D01*
X86270590Y-39018591D02*
X86080114Y-38970972D01*
X86080114Y-38970972D02*
X85984876Y-38923353D01*
X85984876Y-38923353D02*
X85889638Y-38828115D01*
X85889638Y-38828115D02*
X85842019Y-38685258D01*
X85842019Y-38685258D02*
X85842019Y-38590020D01*
X85842019Y-38590020D02*
X85889638Y-38447163D01*
X85889638Y-38447163D02*
X85937257Y-38399544D01*
X86746780Y-37399544D02*
X86794400Y-37447163D01*
X86794400Y-37447163D02*
X86842019Y-37590020D01*
X86842019Y-37590020D02*
X86842019Y-37685258D01*
X86842019Y-37685258D02*
X86794400Y-37828115D01*
X86794400Y-37828115D02*
X86699161Y-37923353D01*
X86699161Y-37923353D02*
X86603923Y-37970972D01*
X86603923Y-37970972D02*
X86413447Y-38018591D01*
X86413447Y-38018591D02*
X86270590Y-38018591D01*
X86270590Y-38018591D02*
X86080114Y-37970972D01*
X86080114Y-37970972D02*
X85984876Y-37923353D01*
X85984876Y-37923353D02*
X85889638Y-37828115D01*
X85889638Y-37828115D02*
X85842019Y-37685258D01*
X85842019Y-37685258D02*
X85842019Y-37590020D01*
X85842019Y-37590020D02*
X85889638Y-37447163D01*
X85889638Y-37447163D02*
X85937257Y-37399544D01*
X83400438Y-39456706D02*
X83352819Y-39551944D01*
X83352819Y-39551944D02*
X83352819Y-39694801D01*
X83352819Y-39694801D02*
X83400438Y-39837658D01*
X83400438Y-39837658D02*
X83495676Y-39932896D01*
X83495676Y-39932896D02*
X83590914Y-39980515D01*
X83590914Y-39980515D02*
X83781390Y-40028134D01*
X83781390Y-40028134D02*
X83924247Y-40028134D01*
X83924247Y-40028134D02*
X84114723Y-39980515D01*
X84114723Y-39980515D02*
X84209961Y-39932896D01*
X84209961Y-39932896D02*
X84305200Y-39837658D01*
X84305200Y-39837658D02*
X84352819Y-39694801D01*
X84352819Y-39694801D02*
X84352819Y-39599563D01*
X84352819Y-39599563D02*
X84305200Y-39456706D01*
X84305200Y-39456706D02*
X84257580Y-39409087D01*
X84257580Y-39409087D02*
X83924247Y-39409087D01*
X83924247Y-39409087D02*
X83924247Y-39599563D01*
X84352819Y-38980515D02*
X83352819Y-38980515D01*
X83352819Y-38980515D02*
X84352819Y-38409087D01*
X84352819Y-38409087D02*
X83352819Y-38409087D01*
X84352819Y-37932896D02*
X83352819Y-37932896D01*
X83352819Y-37932896D02*
X83352819Y-37694801D01*
X83352819Y-37694801D02*
X83400438Y-37551944D01*
X83400438Y-37551944D02*
X83495676Y-37456706D01*
X83495676Y-37456706D02*
X83590914Y-37409087D01*
X83590914Y-37409087D02*
X83781390Y-37361468D01*
X83781390Y-37361468D02*
X83924247Y-37361468D01*
X83924247Y-37361468D02*
X84114723Y-37409087D01*
X84114723Y-37409087D02*
X84209961Y-37456706D01*
X84209961Y-37456706D02*
X84305200Y-37551944D01*
X84305200Y-37551944D02*
X84352819Y-37694801D01*
X84352819Y-37694801D02*
X84352819Y-37932896D01*
D15*
X45047067Y-81230000D02*
X45189924Y-81277619D01*
X45189924Y-81277619D02*
X45428019Y-81277619D01*
X45428019Y-81277619D02*
X45523257Y-81230000D01*
X45523257Y-81230000D02*
X45570876Y-81182380D01*
X45570876Y-81182380D02*
X45618495Y-81087142D01*
X45618495Y-81087142D02*
X45618495Y-80991904D01*
X45618495Y-80991904D02*
X45570876Y-80896666D01*
X45570876Y-80896666D02*
X45523257Y-80849047D01*
X45523257Y-80849047D02*
X45428019Y-80801428D01*
X45428019Y-80801428D02*
X45237543Y-80753809D01*
X45237543Y-80753809D02*
X45142305Y-80706190D01*
X45142305Y-80706190D02*
X45094686Y-80658571D01*
X45094686Y-80658571D02*
X45047067Y-80563333D01*
X45047067Y-80563333D02*
X45047067Y-80468095D01*
X45047067Y-80468095D02*
X45094686Y-80372857D01*
X45094686Y-80372857D02*
X45142305Y-80325238D01*
X45142305Y-80325238D02*
X45237543Y-80277619D01*
X45237543Y-80277619D02*
X45475638Y-80277619D01*
X45475638Y-80277619D02*
X45618495Y-80325238D01*
X45951829Y-80277619D02*
X46189924Y-81277619D01*
X46189924Y-81277619D02*
X46380400Y-80563333D01*
X46380400Y-80563333D02*
X46570876Y-81277619D01*
X46570876Y-81277619D02*
X46808972Y-80277619D01*
X47666114Y-80277619D02*
X47189924Y-80277619D01*
X47189924Y-80277619D02*
X47142305Y-80753809D01*
X47142305Y-80753809D02*
X47189924Y-80706190D01*
X47189924Y-80706190D02*
X47285162Y-80658571D01*
X47285162Y-80658571D02*
X47523257Y-80658571D01*
X47523257Y-80658571D02*
X47618495Y-80706190D01*
X47618495Y-80706190D02*
X47666114Y-80753809D01*
X47666114Y-80753809D02*
X47713733Y-80849047D01*
X47713733Y-80849047D02*
X47713733Y-81087142D01*
X47713733Y-81087142D02*
X47666114Y-81182380D01*
X47666114Y-81182380D02*
X47618495Y-81230000D01*
X47618495Y-81230000D02*
X47523257Y-81277619D01*
X47523257Y-81277619D02*
X47285162Y-81277619D01*
X47285162Y-81277619D02*
X47189924Y-81230000D01*
X47189924Y-81230000D02*
X47142305Y-81182380D01*
X65568533Y-57503219D02*
X65235200Y-57027028D01*
X64997105Y-57503219D02*
X64997105Y-56503219D01*
X64997105Y-56503219D02*
X65378057Y-56503219D01*
X65378057Y-56503219D02*
X65473295Y-56550838D01*
X65473295Y-56550838D02*
X65520914Y-56598457D01*
X65520914Y-56598457D02*
X65568533Y-56693695D01*
X65568533Y-56693695D02*
X65568533Y-56836552D01*
X65568533Y-56836552D02*
X65520914Y-56931790D01*
X65520914Y-56931790D02*
X65473295Y-56979409D01*
X65473295Y-56979409D02*
X65378057Y-57027028D01*
X65378057Y-57027028D02*
X64997105Y-57027028D01*
X65949486Y-56598457D02*
X65997105Y-56550838D01*
X65997105Y-56550838D02*
X66092343Y-56503219D01*
X66092343Y-56503219D02*
X66330438Y-56503219D01*
X66330438Y-56503219D02*
X66425676Y-56550838D01*
X66425676Y-56550838D02*
X66473295Y-56598457D01*
X66473295Y-56598457D02*
X66520914Y-56693695D01*
X66520914Y-56693695D02*
X66520914Y-56788933D01*
X66520914Y-56788933D02*
X66473295Y-56931790D01*
X66473295Y-56931790D02*
X65901867Y-57503219D01*
X65901867Y-57503219D02*
X66520914Y-57503219D01*
X114946133Y-56798380D02*
X114898514Y-56846000D01*
X114898514Y-56846000D02*
X114755657Y-56893619D01*
X114755657Y-56893619D02*
X114660419Y-56893619D01*
X114660419Y-56893619D02*
X114517562Y-56846000D01*
X114517562Y-56846000D02*
X114422324Y-56750761D01*
X114422324Y-56750761D02*
X114374705Y-56655523D01*
X114374705Y-56655523D02*
X114327086Y-56465047D01*
X114327086Y-56465047D02*
X114327086Y-56322190D01*
X114327086Y-56322190D02*
X114374705Y-56131714D01*
X114374705Y-56131714D02*
X114422324Y-56036476D01*
X114422324Y-56036476D02*
X114517562Y-55941238D01*
X114517562Y-55941238D02*
X114660419Y-55893619D01*
X114660419Y-55893619D02*
X114755657Y-55893619D01*
X114755657Y-55893619D02*
X114898514Y-55941238D01*
X114898514Y-55941238D02*
X114946133Y-55988857D01*
X115898514Y-56893619D02*
X115327086Y-56893619D01*
X115612800Y-56893619D02*
X115612800Y-55893619D01*
X115612800Y-55893619D02*
X115517562Y-56036476D01*
X115517562Y-56036476D02*
X115422324Y-56131714D01*
X115422324Y-56131714D02*
X115327086Y-56179333D01*
X76654819Y-63615866D02*
X76178628Y-63949199D01*
X76654819Y-64187294D02*
X75654819Y-64187294D01*
X75654819Y-64187294D02*
X75654819Y-63806342D01*
X75654819Y-63806342D02*
X75702438Y-63711104D01*
X75702438Y-63711104D02*
X75750057Y-63663485D01*
X75750057Y-63663485D02*
X75845295Y-63615866D01*
X75845295Y-63615866D02*
X75988152Y-63615866D01*
X75988152Y-63615866D02*
X76083390Y-63663485D01*
X76083390Y-63663485D02*
X76131009Y-63711104D01*
X76131009Y-63711104D02*
X76178628Y-63806342D01*
X76178628Y-63806342D02*
X76178628Y-64187294D01*
X76654819Y-63139675D02*
X76654819Y-62949199D01*
X76654819Y-62949199D02*
X76607200Y-62853961D01*
X76607200Y-62853961D02*
X76559580Y-62806342D01*
X76559580Y-62806342D02*
X76416723Y-62711104D01*
X76416723Y-62711104D02*
X76226247Y-62663485D01*
X76226247Y-62663485D02*
X75845295Y-62663485D01*
X75845295Y-62663485D02*
X75750057Y-62711104D01*
X75750057Y-62711104D02*
X75702438Y-62758723D01*
X75702438Y-62758723D02*
X75654819Y-62853961D01*
X75654819Y-62853961D02*
X75654819Y-63044437D01*
X75654819Y-63044437D02*
X75702438Y-63139675D01*
X75702438Y-63139675D02*
X75750057Y-63187294D01*
X75750057Y-63187294D02*
X75845295Y-63234913D01*
X75845295Y-63234913D02*
X76083390Y-63234913D01*
X76083390Y-63234913D02*
X76178628Y-63187294D01*
X76178628Y-63187294D02*
X76226247Y-63139675D01*
X76226247Y-63139675D02*
X76273866Y-63044437D01*
X76273866Y-63044437D02*
X76273866Y-62853961D01*
X76273866Y-62853961D02*
X76226247Y-62758723D01*
X76226247Y-62758723D02*
X76178628Y-62711104D01*
X76178628Y-62711104D02*
X76083390Y-62663485D01*
X117371905Y-80314819D02*
X117371905Y-79314819D01*
X117371905Y-79314819D02*
X117610000Y-79314819D01*
X117610000Y-79314819D02*
X117752857Y-79362438D01*
X117752857Y-79362438D02*
X117848095Y-79457676D01*
X117848095Y-79457676D02*
X117895714Y-79552914D01*
X117895714Y-79552914D02*
X117943333Y-79743390D01*
X117943333Y-79743390D02*
X117943333Y-79886247D01*
X117943333Y-79886247D02*
X117895714Y-80076723D01*
X117895714Y-80076723D02*
X117848095Y-80171961D01*
X117848095Y-80171961D02*
X117752857Y-80267200D01*
X117752857Y-80267200D02*
X117610000Y-80314819D01*
X117610000Y-80314819D02*
X117371905Y-80314819D01*
X118800476Y-79648152D02*
X118800476Y-80314819D01*
X118562381Y-79267200D02*
X118324286Y-79981485D01*
X118324286Y-79981485D02*
X118943333Y-79981485D01*
X76731905Y-80314819D02*
X76731905Y-79314819D01*
X76731905Y-79314819D02*
X76970000Y-79314819D01*
X76970000Y-79314819D02*
X77112857Y-79362438D01*
X77112857Y-79362438D02*
X77208095Y-79457676D01*
X77208095Y-79457676D02*
X77255714Y-79552914D01*
X77255714Y-79552914D02*
X77303333Y-79743390D01*
X77303333Y-79743390D02*
X77303333Y-79886247D01*
X77303333Y-79886247D02*
X77255714Y-80076723D01*
X77255714Y-80076723D02*
X77208095Y-80171961D01*
X77208095Y-80171961D02*
X77112857Y-80267200D01*
X77112857Y-80267200D02*
X76970000Y-80314819D01*
X76970000Y-80314819D02*
X76731905Y-80314819D01*
X78255714Y-80314819D02*
X77684286Y-80314819D01*
X77970000Y-80314819D02*
X77970000Y-79314819D01*
X77970000Y-79314819D02*
X77874762Y-79457676D01*
X77874762Y-79457676D02*
X77779524Y-79552914D01*
X77779524Y-79552914D02*
X77684286Y-79600533D01*
X96974819Y-63615866D02*
X96498628Y-63949199D01*
X96974819Y-64187294D02*
X95974819Y-64187294D01*
X95974819Y-64187294D02*
X95974819Y-63806342D01*
X95974819Y-63806342D02*
X96022438Y-63711104D01*
X96022438Y-63711104D02*
X96070057Y-63663485D01*
X96070057Y-63663485D02*
X96165295Y-63615866D01*
X96165295Y-63615866D02*
X96308152Y-63615866D01*
X96308152Y-63615866D02*
X96403390Y-63663485D01*
X96403390Y-63663485D02*
X96451009Y-63711104D01*
X96451009Y-63711104D02*
X96498628Y-63806342D01*
X96498628Y-63806342D02*
X96498628Y-64187294D01*
X96308152Y-62758723D02*
X96974819Y-62758723D01*
X95927200Y-62996818D02*
X96641485Y-63234913D01*
X96641485Y-63234913D02*
X96641485Y-62615866D01*
X61491905Y-36434819D02*
X61491905Y-35434819D01*
X61491905Y-35434819D02*
X61730000Y-35434819D01*
X61730000Y-35434819D02*
X61872857Y-35482438D01*
X61872857Y-35482438D02*
X61968095Y-35577676D01*
X61968095Y-35577676D02*
X62015714Y-35672914D01*
X62015714Y-35672914D02*
X62063333Y-35863390D01*
X62063333Y-35863390D02*
X62063333Y-36006247D01*
X62063333Y-36006247D02*
X62015714Y-36196723D01*
X62015714Y-36196723D02*
X61968095Y-36291961D01*
X61968095Y-36291961D02*
X61872857Y-36387200D01*
X61872857Y-36387200D02*
X61730000Y-36434819D01*
X61730000Y-36434819D02*
X61491905Y-36434819D01*
X62444286Y-35530057D02*
X62491905Y-35482438D01*
X62491905Y-35482438D02*
X62587143Y-35434819D01*
X62587143Y-35434819D02*
X62825238Y-35434819D01*
X62825238Y-35434819D02*
X62920476Y-35482438D01*
X62920476Y-35482438D02*
X62968095Y-35530057D01*
X62968095Y-35530057D02*
X63015714Y-35625295D01*
X63015714Y-35625295D02*
X63015714Y-35720533D01*
X63015714Y-35720533D02*
X62968095Y-35863390D01*
X62968095Y-35863390D02*
X62396667Y-36434819D01*
X62396667Y-36434819D02*
X63015714Y-36434819D01*
X58259695Y-36370419D02*
X58259695Y-35370419D01*
X58831123Y-36370419D02*
X58402552Y-35798990D01*
X58831123Y-35370419D02*
X58259695Y-35941847D01*
X91850380Y-73877466D02*
X91898000Y-73925085D01*
X91898000Y-73925085D02*
X91945619Y-74067942D01*
X91945619Y-74067942D02*
X91945619Y-74163180D01*
X91945619Y-74163180D02*
X91898000Y-74306037D01*
X91898000Y-74306037D02*
X91802761Y-74401275D01*
X91802761Y-74401275D02*
X91707523Y-74448894D01*
X91707523Y-74448894D02*
X91517047Y-74496513D01*
X91517047Y-74496513D02*
X91374190Y-74496513D01*
X91374190Y-74496513D02*
X91183714Y-74448894D01*
X91183714Y-74448894D02*
X91088476Y-74401275D01*
X91088476Y-74401275D02*
X90993238Y-74306037D01*
X90993238Y-74306037D02*
X90945619Y-74163180D01*
X90945619Y-74163180D02*
X90945619Y-74067942D01*
X90945619Y-74067942D02*
X90993238Y-73925085D01*
X90993238Y-73925085D02*
X91040857Y-73877466D01*
X91278952Y-73020323D02*
X91945619Y-73020323D01*
X90898000Y-73258418D02*
X91612285Y-73496513D01*
X91612285Y-73496513D02*
X91612285Y-72877466D01*
X112291905Y-65074819D02*
X112291905Y-64074819D01*
X112291905Y-64074819D02*
X112530000Y-64074819D01*
X112530000Y-64074819D02*
X112672857Y-64122438D01*
X112672857Y-64122438D02*
X112768095Y-64217676D01*
X112768095Y-64217676D02*
X112815714Y-64312914D01*
X112815714Y-64312914D02*
X112863333Y-64503390D01*
X112863333Y-64503390D02*
X112863333Y-64646247D01*
X112863333Y-64646247D02*
X112815714Y-64836723D01*
X112815714Y-64836723D02*
X112768095Y-64931961D01*
X112768095Y-64931961D02*
X112672857Y-65027200D01*
X112672857Y-65027200D02*
X112530000Y-65074819D01*
X112530000Y-65074819D02*
X112291905Y-65074819D01*
X113196667Y-64074819D02*
X113815714Y-64074819D01*
X113815714Y-64074819D02*
X113482381Y-64455771D01*
X113482381Y-64455771D02*
X113625238Y-64455771D01*
X113625238Y-64455771D02*
X113720476Y-64503390D01*
X113720476Y-64503390D02*
X113768095Y-64551009D01*
X113768095Y-64551009D02*
X113815714Y-64646247D01*
X113815714Y-64646247D02*
X113815714Y-64884342D01*
X113815714Y-64884342D02*
X113768095Y-64979580D01*
X113768095Y-64979580D02*
X113720476Y-65027200D01*
X113720476Y-65027200D02*
X113625238Y-65074819D01*
X113625238Y-65074819D02*
X113339524Y-65074819D01*
X113339524Y-65074819D02*
X113244286Y-65027200D01*
X113244286Y-65027200D02*
X113196667Y-64979580D01*
X105651467Y-83465200D02*
X105794324Y-83512819D01*
X105794324Y-83512819D02*
X106032419Y-83512819D01*
X106032419Y-83512819D02*
X106127657Y-83465200D01*
X106127657Y-83465200D02*
X106175276Y-83417580D01*
X106175276Y-83417580D02*
X106222895Y-83322342D01*
X106222895Y-83322342D02*
X106222895Y-83227104D01*
X106222895Y-83227104D02*
X106175276Y-83131866D01*
X106175276Y-83131866D02*
X106127657Y-83084247D01*
X106127657Y-83084247D02*
X106032419Y-83036628D01*
X106032419Y-83036628D02*
X105841943Y-82989009D01*
X105841943Y-82989009D02*
X105746705Y-82941390D01*
X105746705Y-82941390D02*
X105699086Y-82893771D01*
X105699086Y-82893771D02*
X105651467Y-82798533D01*
X105651467Y-82798533D02*
X105651467Y-82703295D01*
X105651467Y-82703295D02*
X105699086Y-82608057D01*
X105699086Y-82608057D02*
X105746705Y-82560438D01*
X105746705Y-82560438D02*
X105841943Y-82512819D01*
X105841943Y-82512819D02*
X106080038Y-82512819D01*
X106080038Y-82512819D02*
X106222895Y-82560438D01*
X106556229Y-82512819D02*
X106794324Y-83512819D01*
X106794324Y-83512819D02*
X106984800Y-82798533D01*
X106984800Y-82798533D02*
X107175276Y-83512819D01*
X107175276Y-83512819D02*
X107413372Y-82512819D01*
X107699086Y-82512819D02*
X108318133Y-82512819D01*
X108318133Y-82512819D02*
X107984800Y-82893771D01*
X107984800Y-82893771D02*
X108127657Y-82893771D01*
X108127657Y-82893771D02*
X108222895Y-82941390D01*
X108222895Y-82941390D02*
X108270514Y-82989009D01*
X108270514Y-82989009D02*
X108318133Y-83084247D01*
X108318133Y-83084247D02*
X108318133Y-83322342D01*
X108318133Y-83322342D02*
X108270514Y-83417580D01*
X108270514Y-83417580D02*
X108222895Y-83465200D01*
X108222895Y-83465200D02*
X108127657Y-83512819D01*
X108127657Y-83512819D02*
X107841943Y-83512819D01*
X107841943Y-83512819D02*
X107746705Y-83465200D01*
X107746705Y-83465200D02*
X107699086Y-83417580D01*
X102054819Y-63615866D02*
X101578628Y-63949199D01*
X102054819Y-64187294D02*
X101054819Y-64187294D01*
X101054819Y-64187294D02*
X101054819Y-63806342D01*
X101054819Y-63806342D02*
X101102438Y-63711104D01*
X101102438Y-63711104D02*
X101150057Y-63663485D01*
X101150057Y-63663485D02*
X101245295Y-63615866D01*
X101245295Y-63615866D02*
X101388152Y-63615866D01*
X101388152Y-63615866D02*
X101483390Y-63663485D01*
X101483390Y-63663485D02*
X101531009Y-63711104D01*
X101531009Y-63711104D02*
X101578628Y-63806342D01*
X101578628Y-63806342D02*
X101578628Y-64187294D01*
X101054819Y-62711104D02*
X101054819Y-63187294D01*
X101054819Y-63187294D02*
X101531009Y-63234913D01*
X101531009Y-63234913D02*
X101483390Y-63187294D01*
X101483390Y-63187294D02*
X101435771Y-63092056D01*
X101435771Y-63092056D02*
X101435771Y-62853961D01*
X101435771Y-62853961D02*
X101483390Y-62758723D01*
X101483390Y-62758723D02*
X101531009Y-62711104D01*
X101531009Y-62711104D02*
X101626247Y-62663485D01*
X101626247Y-62663485D02*
X101864342Y-62663485D01*
X101864342Y-62663485D02*
X101959580Y-62711104D01*
X101959580Y-62711104D02*
X102007200Y-62758723D01*
X102007200Y-62758723D02*
X102054819Y-62853961D01*
X102054819Y-62853961D02*
X102054819Y-63092056D01*
X102054819Y-63092056D02*
X102007200Y-63187294D01*
X102007200Y-63187294D02*
X101959580Y-63234913D01*
D12*
X65113067Y-46129800D02*
X65255924Y-46177419D01*
X65255924Y-46177419D02*
X65494019Y-46177419D01*
X65494019Y-46177419D02*
X65589257Y-46129800D01*
X65589257Y-46129800D02*
X65636876Y-46082180D01*
X65636876Y-46082180D02*
X65684495Y-45986942D01*
X65684495Y-45986942D02*
X65684495Y-45891704D01*
X65684495Y-45891704D02*
X65636876Y-45796466D01*
X65636876Y-45796466D02*
X65589257Y-45748847D01*
X65589257Y-45748847D02*
X65494019Y-45701228D01*
X65494019Y-45701228D02*
X65303543Y-45653609D01*
X65303543Y-45653609D02*
X65208305Y-45605990D01*
X65208305Y-45605990D02*
X65160686Y-45558371D01*
X65160686Y-45558371D02*
X65113067Y-45463133D01*
X65113067Y-45463133D02*
X65113067Y-45367895D01*
X65113067Y-45367895D02*
X65160686Y-45272657D01*
X65160686Y-45272657D02*
X65208305Y-45225038D01*
X65208305Y-45225038D02*
X65303543Y-45177419D01*
X65303543Y-45177419D02*
X65541638Y-45177419D01*
X65541638Y-45177419D02*
X65684495Y-45225038D01*
X66017829Y-45177419D02*
X66255924Y-46177419D01*
X66255924Y-46177419D02*
X66446400Y-45463133D01*
X66446400Y-45463133D02*
X66636876Y-46177419D01*
X66636876Y-46177419D02*
X66874972Y-45177419D01*
X67779733Y-46177419D02*
X67208305Y-46177419D01*
X67494019Y-46177419D02*
X67494019Y-45177419D01*
X67494019Y-45177419D02*
X67398781Y-45320276D01*
X67398781Y-45320276D02*
X67303543Y-45415514D01*
X67303543Y-45415514D02*
X67208305Y-45463133D01*
D15*
X76508780Y-73775866D02*
X76556400Y-73823485D01*
X76556400Y-73823485D02*
X76604019Y-73966342D01*
X76604019Y-73966342D02*
X76604019Y-74061580D01*
X76604019Y-74061580D02*
X76556400Y-74204437D01*
X76556400Y-74204437D02*
X76461161Y-74299675D01*
X76461161Y-74299675D02*
X76365923Y-74347294D01*
X76365923Y-74347294D02*
X76175447Y-74394913D01*
X76175447Y-74394913D02*
X76032590Y-74394913D01*
X76032590Y-74394913D02*
X75842114Y-74347294D01*
X75842114Y-74347294D02*
X75746876Y-74299675D01*
X75746876Y-74299675D02*
X75651638Y-74204437D01*
X75651638Y-74204437D02*
X75604019Y-74061580D01*
X75604019Y-74061580D02*
X75604019Y-73966342D01*
X75604019Y-73966342D02*
X75651638Y-73823485D01*
X75651638Y-73823485D02*
X75699257Y-73775866D01*
X75604019Y-73442532D02*
X75604019Y-72775866D01*
X75604019Y-72775866D02*
X76604019Y-73204437D01*
X81690380Y-73826666D02*
X81738000Y-73874285D01*
X81738000Y-73874285D02*
X81785619Y-74017142D01*
X81785619Y-74017142D02*
X81785619Y-74112380D01*
X81785619Y-74112380D02*
X81738000Y-74255237D01*
X81738000Y-74255237D02*
X81642761Y-74350475D01*
X81642761Y-74350475D02*
X81547523Y-74398094D01*
X81547523Y-74398094D02*
X81357047Y-74445713D01*
X81357047Y-74445713D02*
X81214190Y-74445713D01*
X81214190Y-74445713D02*
X81023714Y-74398094D01*
X81023714Y-74398094D02*
X80928476Y-74350475D01*
X80928476Y-74350475D02*
X80833238Y-74255237D01*
X80833238Y-74255237D02*
X80785619Y-74112380D01*
X80785619Y-74112380D02*
X80785619Y-74017142D01*
X80785619Y-74017142D02*
X80833238Y-73874285D01*
X80833238Y-73874285D02*
X80880857Y-73826666D01*
X80785619Y-72969523D02*
X80785619Y-73159999D01*
X80785619Y-73159999D02*
X80833238Y-73255237D01*
X80833238Y-73255237D02*
X80880857Y-73302856D01*
X80880857Y-73302856D02*
X81023714Y-73398094D01*
X81023714Y-73398094D02*
X81214190Y-73445713D01*
X81214190Y-73445713D02*
X81595142Y-73445713D01*
X81595142Y-73445713D02*
X81690380Y-73398094D01*
X81690380Y-73398094D02*
X81738000Y-73350475D01*
X81738000Y-73350475D02*
X81785619Y-73255237D01*
X81785619Y-73255237D02*
X81785619Y-73064761D01*
X81785619Y-73064761D02*
X81738000Y-72969523D01*
X81738000Y-72969523D02*
X81690380Y-72921904D01*
X81690380Y-72921904D02*
X81595142Y-72874285D01*
X81595142Y-72874285D02*
X81357047Y-72874285D01*
X81357047Y-72874285D02*
X81261809Y-72921904D01*
X81261809Y-72921904D02*
X81214190Y-72969523D01*
X81214190Y-72969523D02*
X81166571Y-73064761D01*
X81166571Y-73064761D02*
X81166571Y-73255237D01*
X81166571Y-73255237D02*
X81214190Y-73350475D01*
X81214190Y-73350475D02*
X81261809Y-73398094D01*
X81261809Y-73398094D02*
X81357047Y-73445713D01*
X81734819Y-63615866D02*
X81258628Y-63949199D01*
X81734819Y-64187294D02*
X80734819Y-64187294D01*
X80734819Y-64187294D02*
X80734819Y-63806342D01*
X80734819Y-63806342D02*
X80782438Y-63711104D01*
X80782438Y-63711104D02*
X80830057Y-63663485D01*
X80830057Y-63663485D02*
X80925295Y-63615866D01*
X80925295Y-63615866D02*
X81068152Y-63615866D01*
X81068152Y-63615866D02*
X81163390Y-63663485D01*
X81163390Y-63663485D02*
X81211009Y-63711104D01*
X81211009Y-63711104D02*
X81258628Y-63806342D01*
X81258628Y-63806342D02*
X81258628Y-64187294D01*
X81163390Y-63044437D02*
X81115771Y-63139675D01*
X81115771Y-63139675D02*
X81068152Y-63187294D01*
X81068152Y-63187294D02*
X80972914Y-63234913D01*
X80972914Y-63234913D02*
X80925295Y-63234913D01*
X80925295Y-63234913D02*
X80830057Y-63187294D01*
X80830057Y-63187294D02*
X80782438Y-63139675D01*
X80782438Y-63139675D02*
X80734819Y-63044437D01*
X80734819Y-63044437D02*
X80734819Y-62853961D01*
X80734819Y-62853961D02*
X80782438Y-62758723D01*
X80782438Y-62758723D02*
X80830057Y-62711104D01*
X80830057Y-62711104D02*
X80925295Y-62663485D01*
X80925295Y-62663485D02*
X80972914Y-62663485D01*
X80972914Y-62663485D02*
X81068152Y-62711104D01*
X81068152Y-62711104D02*
X81115771Y-62758723D01*
X81115771Y-62758723D02*
X81163390Y-62853961D01*
X81163390Y-62853961D02*
X81163390Y-63044437D01*
X81163390Y-63044437D02*
X81211009Y-63139675D01*
X81211009Y-63139675D02*
X81258628Y-63187294D01*
X81258628Y-63187294D02*
X81353866Y-63234913D01*
X81353866Y-63234913D02*
X81544342Y-63234913D01*
X81544342Y-63234913D02*
X81639580Y-63187294D01*
X81639580Y-63187294D02*
X81687200Y-63139675D01*
X81687200Y-63139675D02*
X81734819Y-63044437D01*
X81734819Y-63044437D02*
X81734819Y-62853961D01*
X81734819Y-62853961D02*
X81687200Y-62758723D01*
X81687200Y-62758723D02*
X81639580Y-62711104D01*
X81639580Y-62711104D02*
X81544342Y-62663485D01*
X81544342Y-62663485D02*
X81353866Y-62663485D01*
X81353866Y-62663485D02*
X81258628Y-62711104D01*
X81258628Y-62711104D02*
X81211009Y-62758723D01*
X81211009Y-62758723D02*
X81163390Y-62853961D01*
X134637542Y-86357619D02*
X134304209Y-85881428D01*
X134066114Y-86357619D02*
X134066114Y-85357619D01*
X134066114Y-85357619D02*
X134447066Y-85357619D01*
X134447066Y-85357619D02*
X134542304Y-85405238D01*
X134542304Y-85405238D02*
X134589923Y-85452857D01*
X134589923Y-85452857D02*
X134637542Y-85548095D01*
X134637542Y-85548095D02*
X134637542Y-85690952D01*
X134637542Y-85690952D02*
X134589923Y-85786190D01*
X134589923Y-85786190D02*
X134542304Y-85833809D01*
X134542304Y-85833809D02*
X134447066Y-85881428D01*
X134447066Y-85881428D02*
X134066114Y-85881428D01*
X135589923Y-86357619D02*
X135018495Y-86357619D01*
X135304209Y-86357619D02*
X135304209Y-85357619D01*
X135304209Y-85357619D02*
X135208971Y-85500476D01*
X135208971Y-85500476D02*
X135113733Y-85595714D01*
X135113733Y-85595714D02*
X135018495Y-85643333D01*
X136542304Y-86357619D02*
X135970876Y-86357619D01*
X136256590Y-86357619D02*
X136256590Y-85357619D01*
X136256590Y-85357619D02*
X136161352Y-85500476D01*
X136161352Y-85500476D02*
X136066114Y-85595714D01*
X136066114Y-85595714D02*
X135970876Y-85643333D01*
X134688342Y-90370819D02*
X134355009Y-89894628D01*
X134116914Y-90370819D02*
X134116914Y-89370819D01*
X134116914Y-89370819D02*
X134497866Y-89370819D01*
X134497866Y-89370819D02*
X134593104Y-89418438D01*
X134593104Y-89418438D02*
X134640723Y-89466057D01*
X134640723Y-89466057D02*
X134688342Y-89561295D01*
X134688342Y-89561295D02*
X134688342Y-89704152D01*
X134688342Y-89704152D02*
X134640723Y-89799390D01*
X134640723Y-89799390D02*
X134593104Y-89847009D01*
X134593104Y-89847009D02*
X134497866Y-89894628D01*
X134497866Y-89894628D02*
X134116914Y-89894628D01*
X135640723Y-90370819D02*
X135069295Y-90370819D01*
X135355009Y-90370819D02*
X135355009Y-89370819D01*
X135355009Y-89370819D02*
X135259771Y-89513676D01*
X135259771Y-89513676D02*
X135164533Y-89608914D01*
X135164533Y-89608914D02*
X135069295Y-89656533D01*
X136259771Y-89370819D02*
X136355009Y-89370819D01*
X136355009Y-89370819D02*
X136450247Y-89418438D01*
X136450247Y-89418438D02*
X136497866Y-89466057D01*
X136497866Y-89466057D02*
X136545485Y-89561295D01*
X136545485Y-89561295D02*
X136593104Y-89751771D01*
X136593104Y-89751771D02*
X136593104Y-89989866D01*
X136593104Y-89989866D02*
X136545485Y-90180342D01*
X136545485Y-90180342D02*
X136497866Y-90275580D01*
X136497866Y-90275580D02*
X136450247Y-90323200D01*
X136450247Y-90323200D02*
X136355009Y-90370819D01*
X136355009Y-90370819D02*
X136259771Y-90370819D01*
X136259771Y-90370819D02*
X136164533Y-90323200D01*
X136164533Y-90323200D02*
X136116914Y-90275580D01*
X136116914Y-90275580D02*
X136069295Y-90180342D01*
X136069295Y-90180342D02*
X136021676Y-89989866D01*
X136021676Y-89989866D02*
X136021676Y-89751771D01*
X136021676Y-89751771D02*
X136069295Y-89561295D01*
X136069295Y-89561295D02*
X136116914Y-89466057D01*
X136116914Y-89466057D02*
X136164533Y-89418438D01*
X136164533Y-89418438D02*
X136259771Y-89370819D01*
X47367866Y-34456019D02*
X47367866Y-35170304D01*
X47367866Y-35170304D02*
X47320247Y-35313161D01*
X47320247Y-35313161D02*
X47225009Y-35408400D01*
X47225009Y-35408400D02*
X47082152Y-35456019D01*
X47082152Y-35456019D02*
X46986914Y-35456019D01*
X48367866Y-35456019D02*
X47796438Y-35456019D01*
X48082152Y-35456019D02*
X48082152Y-34456019D01*
X48082152Y-34456019D02*
X47986914Y-34598876D01*
X47986914Y-34598876D02*
X47891676Y-34694114D01*
X47891676Y-34694114D02*
X47796438Y-34741733D01*
X62776267Y-81382400D02*
X62919124Y-81430019D01*
X62919124Y-81430019D02*
X63157219Y-81430019D01*
X63157219Y-81430019D02*
X63252457Y-81382400D01*
X63252457Y-81382400D02*
X63300076Y-81334780D01*
X63300076Y-81334780D02*
X63347695Y-81239542D01*
X63347695Y-81239542D02*
X63347695Y-81144304D01*
X63347695Y-81144304D02*
X63300076Y-81049066D01*
X63300076Y-81049066D02*
X63252457Y-81001447D01*
X63252457Y-81001447D02*
X63157219Y-80953828D01*
X63157219Y-80953828D02*
X62966743Y-80906209D01*
X62966743Y-80906209D02*
X62871505Y-80858590D01*
X62871505Y-80858590D02*
X62823886Y-80810971D01*
X62823886Y-80810971D02*
X62776267Y-80715733D01*
X62776267Y-80715733D02*
X62776267Y-80620495D01*
X62776267Y-80620495D02*
X62823886Y-80525257D01*
X62823886Y-80525257D02*
X62871505Y-80477638D01*
X62871505Y-80477638D02*
X62966743Y-80430019D01*
X62966743Y-80430019D02*
X63204838Y-80430019D01*
X63204838Y-80430019D02*
X63347695Y-80477638D01*
X63681029Y-80430019D02*
X63919124Y-81430019D01*
X63919124Y-81430019D02*
X64109600Y-80715733D01*
X64109600Y-80715733D02*
X64300076Y-81430019D01*
X64300076Y-81430019D02*
X64538172Y-80430019D01*
X64823886Y-80430019D02*
X65490552Y-80430019D01*
X65490552Y-80430019D02*
X65061981Y-81430019D01*
X53835467Y-89307200D02*
X53978324Y-89354819D01*
X53978324Y-89354819D02*
X54216419Y-89354819D01*
X54216419Y-89354819D02*
X54311657Y-89307200D01*
X54311657Y-89307200D02*
X54359276Y-89259580D01*
X54359276Y-89259580D02*
X54406895Y-89164342D01*
X54406895Y-89164342D02*
X54406895Y-89069104D01*
X54406895Y-89069104D02*
X54359276Y-88973866D01*
X54359276Y-88973866D02*
X54311657Y-88926247D01*
X54311657Y-88926247D02*
X54216419Y-88878628D01*
X54216419Y-88878628D02*
X54025943Y-88831009D01*
X54025943Y-88831009D02*
X53930705Y-88783390D01*
X53930705Y-88783390D02*
X53883086Y-88735771D01*
X53883086Y-88735771D02*
X53835467Y-88640533D01*
X53835467Y-88640533D02*
X53835467Y-88545295D01*
X53835467Y-88545295D02*
X53883086Y-88450057D01*
X53883086Y-88450057D02*
X53930705Y-88402438D01*
X53930705Y-88402438D02*
X54025943Y-88354819D01*
X54025943Y-88354819D02*
X54264038Y-88354819D01*
X54264038Y-88354819D02*
X54406895Y-88402438D01*
X54740229Y-88354819D02*
X54978324Y-89354819D01*
X54978324Y-89354819D02*
X55168800Y-88640533D01*
X55168800Y-88640533D02*
X55359276Y-89354819D01*
X55359276Y-89354819D02*
X55597372Y-88354819D01*
X56406895Y-88354819D02*
X56216419Y-88354819D01*
X56216419Y-88354819D02*
X56121181Y-88402438D01*
X56121181Y-88402438D02*
X56073562Y-88450057D01*
X56073562Y-88450057D02*
X55978324Y-88592914D01*
X55978324Y-88592914D02*
X55930705Y-88783390D01*
X55930705Y-88783390D02*
X55930705Y-89164342D01*
X55930705Y-89164342D02*
X55978324Y-89259580D01*
X55978324Y-89259580D02*
X56025943Y-89307200D01*
X56025943Y-89307200D02*
X56121181Y-89354819D01*
X56121181Y-89354819D02*
X56311657Y-89354819D01*
X56311657Y-89354819D02*
X56406895Y-89307200D01*
X56406895Y-89307200D02*
X56454514Y-89259580D01*
X56454514Y-89259580D02*
X56502133Y-89164342D01*
X56502133Y-89164342D02*
X56502133Y-88926247D01*
X56502133Y-88926247D02*
X56454514Y-88831009D01*
X56454514Y-88831009D02*
X56406895Y-88783390D01*
X56406895Y-88783390D02*
X56311657Y-88735771D01*
X56311657Y-88735771D02*
X56121181Y-88735771D01*
X56121181Y-88735771D02*
X56025943Y-88783390D01*
X56025943Y-88783390D02*
X55978324Y-88831009D01*
X55978324Y-88831009D02*
X55930705Y-88926247D01*
X92235447Y-45092209D02*
X92378304Y-45139828D01*
X92378304Y-45139828D02*
X92425923Y-45187447D01*
X92425923Y-45187447D02*
X92473542Y-45282685D01*
X92473542Y-45282685D02*
X92473542Y-45425542D01*
X92473542Y-45425542D02*
X92425923Y-45520780D01*
X92425923Y-45520780D02*
X92378304Y-45568400D01*
X92378304Y-45568400D02*
X92283066Y-45616019D01*
X92283066Y-45616019D02*
X91902114Y-45616019D01*
X91902114Y-45616019D02*
X91902114Y-44616019D01*
X91902114Y-44616019D02*
X92235447Y-44616019D01*
X92235447Y-44616019D02*
X92330685Y-44663638D01*
X92330685Y-44663638D02*
X92378304Y-44711257D01*
X92378304Y-44711257D02*
X92425923Y-44806495D01*
X92425923Y-44806495D02*
X92425923Y-44901733D01*
X92425923Y-44901733D02*
X92378304Y-44996971D01*
X92378304Y-44996971D02*
X92330685Y-45044590D01*
X92330685Y-45044590D02*
X92235447Y-45092209D01*
X92235447Y-45092209D02*
X91902114Y-45092209D01*
X92806876Y-44616019D02*
X93473542Y-44616019D01*
X93473542Y-44616019D02*
X92806876Y-45616019D01*
X92806876Y-45616019D02*
X93473542Y-45616019D01*
X94378304Y-45616019D02*
X93806876Y-45616019D01*
X94092590Y-45616019D02*
X94092590Y-44616019D01*
X94092590Y-44616019D02*
X93997352Y-44758876D01*
X93997352Y-44758876D02*
X93902114Y-44854114D01*
X93902114Y-44854114D02*
X93806876Y-44901733D01*
X102537466Y-37454951D02*
X102537466Y-36693047D01*
X102918419Y-37073999D02*
X102156514Y-37073999D01*
X91894819Y-63615866D02*
X91418628Y-63949199D01*
X91894819Y-64187294D02*
X90894819Y-64187294D01*
X90894819Y-64187294D02*
X90894819Y-63806342D01*
X90894819Y-63806342D02*
X90942438Y-63711104D01*
X90942438Y-63711104D02*
X90990057Y-63663485D01*
X90990057Y-63663485D02*
X91085295Y-63615866D01*
X91085295Y-63615866D02*
X91228152Y-63615866D01*
X91228152Y-63615866D02*
X91323390Y-63663485D01*
X91323390Y-63663485D02*
X91371009Y-63711104D01*
X91371009Y-63711104D02*
X91418628Y-63806342D01*
X91418628Y-63806342D02*
X91418628Y-64187294D01*
X90894819Y-62758723D02*
X90894819Y-62949199D01*
X90894819Y-62949199D02*
X90942438Y-63044437D01*
X90942438Y-63044437D02*
X90990057Y-63092056D01*
X90990057Y-63092056D02*
X91132914Y-63187294D01*
X91132914Y-63187294D02*
X91323390Y-63234913D01*
X91323390Y-63234913D02*
X91704342Y-63234913D01*
X91704342Y-63234913D02*
X91799580Y-63187294D01*
X91799580Y-63187294D02*
X91847200Y-63139675D01*
X91847200Y-63139675D02*
X91894819Y-63044437D01*
X91894819Y-63044437D02*
X91894819Y-62853961D01*
X91894819Y-62853961D02*
X91847200Y-62758723D01*
X91847200Y-62758723D02*
X91799580Y-62711104D01*
X91799580Y-62711104D02*
X91704342Y-62663485D01*
X91704342Y-62663485D02*
X91466247Y-62663485D01*
X91466247Y-62663485D02*
X91371009Y-62711104D01*
X91371009Y-62711104D02*
X91323390Y-62758723D01*
X91323390Y-62758723D02*
X91275771Y-62853961D01*
X91275771Y-62853961D02*
X91275771Y-63044437D01*
X91275771Y-63044437D02*
X91323390Y-63139675D01*
X91323390Y-63139675D02*
X91371009Y-63187294D01*
X91371009Y-63187294D02*
X91466247Y-63234913D01*
X65568533Y-53236019D02*
X65235200Y-52759828D01*
X64997105Y-53236019D02*
X64997105Y-52236019D01*
X64997105Y-52236019D02*
X65378057Y-52236019D01*
X65378057Y-52236019D02*
X65473295Y-52283638D01*
X65473295Y-52283638D02*
X65520914Y-52331257D01*
X65520914Y-52331257D02*
X65568533Y-52426495D01*
X65568533Y-52426495D02*
X65568533Y-52569352D01*
X65568533Y-52569352D02*
X65520914Y-52664590D01*
X65520914Y-52664590D02*
X65473295Y-52712209D01*
X65473295Y-52712209D02*
X65378057Y-52759828D01*
X65378057Y-52759828D02*
X64997105Y-52759828D01*
X66520914Y-53236019D02*
X65949486Y-53236019D01*
X66235200Y-53236019D02*
X66235200Y-52236019D01*
X66235200Y-52236019D02*
X66139962Y-52378876D01*
X66139962Y-52378876D02*
X66044724Y-52474114D01*
X66044724Y-52474114D02*
X65949486Y-52521733D01*
X93510267Y-86818000D02*
X93653124Y-86865619D01*
X93653124Y-86865619D02*
X93891219Y-86865619D01*
X93891219Y-86865619D02*
X93986457Y-86818000D01*
X93986457Y-86818000D02*
X94034076Y-86770380D01*
X94034076Y-86770380D02*
X94081695Y-86675142D01*
X94081695Y-86675142D02*
X94081695Y-86579904D01*
X94081695Y-86579904D02*
X94034076Y-86484666D01*
X94034076Y-86484666D02*
X93986457Y-86437047D01*
X93986457Y-86437047D02*
X93891219Y-86389428D01*
X93891219Y-86389428D02*
X93700743Y-86341809D01*
X93700743Y-86341809D02*
X93605505Y-86294190D01*
X93605505Y-86294190D02*
X93557886Y-86246571D01*
X93557886Y-86246571D02*
X93510267Y-86151333D01*
X93510267Y-86151333D02*
X93510267Y-86056095D01*
X93510267Y-86056095D02*
X93557886Y-85960857D01*
X93557886Y-85960857D02*
X93605505Y-85913238D01*
X93605505Y-85913238D02*
X93700743Y-85865619D01*
X93700743Y-85865619D02*
X93938838Y-85865619D01*
X93938838Y-85865619D02*
X94081695Y-85913238D01*
X94415029Y-85865619D02*
X94653124Y-86865619D01*
X94653124Y-86865619D02*
X94843600Y-86151333D01*
X94843600Y-86151333D02*
X95034076Y-86865619D01*
X95034076Y-86865619D02*
X95272172Y-85865619D01*
X95605505Y-85960857D02*
X95653124Y-85913238D01*
X95653124Y-85913238D02*
X95748362Y-85865619D01*
X95748362Y-85865619D02*
X95986457Y-85865619D01*
X95986457Y-85865619D02*
X96081695Y-85913238D01*
X96081695Y-85913238D02*
X96129314Y-85960857D01*
X96129314Y-85960857D02*
X96176933Y-86056095D01*
X96176933Y-86056095D02*
X96176933Y-86151333D01*
X96176933Y-86151333D02*
X96129314Y-86294190D01*
X96129314Y-86294190D02*
X95557886Y-86865619D01*
X95557886Y-86865619D02*
X96176933Y-86865619D01*
X96879580Y-73826666D02*
X96927200Y-73874285D01*
X96927200Y-73874285D02*
X96974819Y-74017142D01*
X96974819Y-74017142D02*
X96974819Y-74112380D01*
X96974819Y-74112380D02*
X96927200Y-74255237D01*
X96927200Y-74255237D02*
X96831961Y-74350475D01*
X96831961Y-74350475D02*
X96736723Y-74398094D01*
X96736723Y-74398094D02*
X96546247Y-74445713D01*
X96546247Y-74445713D02*
X96403390Y-74445713D01*
X96403390Y-74445713D02*
X96212914Y-74398094D01*
X96212914Y-74398094D02*
X96117676Y-74350475D01*
X96117676Y-74350475D02*
X96022438Y-74255237D01*
X96022438Y-74255237D02*
X95974819Y-74112380D01*
X95974819Y-74112380D02*
X95974819Y-74017142D01*
X95974819Y-74017142D02*
X96022438Y-73874285D01*
X96022438Y-73874285D02*
X96070057Y-73826666D01*
X96070057Y-73445713D02*
X96022438Y-73398094D01*
X96022438Y-73398094D02*
X95974819Y-73302856D01*
X95974819Y-73302856D02*
X95974819Y-73064761D01*
X95974819Y-73064761D02*
X96022438Y-72969523D01*
X96022438Y-72969523D02*
X96070057Y-72921904D01*
X96070057Y-72921904D02*
X96165295Y-72874285D01*
X96165295Y-72874285D02*
X96260533Y-72874285D01*
X96260533Y-72874285D02*
X96403390Y-72921904D01*
X96403390Y-72921904D02*
X96974819Y-73493332D01*
X96974819Y-73493332D02*
X96974819Y-72874285D01*
X127165714Y-77809104D02*
X127641904Y-77809104D01*
X127070476Y-78094819D02*
X127403809Y-77094819D01*
X127403809Y-77094819D02*
X127737142Y-78094819D01*
X128594285Y-78094819D02*
X128022857Y-78094819D01*
X128308571Y-78094819D02*
X128308571Y-77094819D01*
X128308571Y-77094819D02*
X128213333Y-77237676D01*
X128213333Y-77237676D02*
X128118095Y-77332914D01*
X128118095Y-77332914D02*
X128022857Y-77380533D01*
X126618095Y-36454819D02*
X126618095Y-37264342D01*
X126618095Y-37264342D02*
X126665714Y-37359580D01*
X126665714Y-37359580D02*
X126713333Y-37407200D01*
X126713333Y-37407200D02*
X126808571Y-37454819D01*
X126808571Y-37454819D02*
X126999047Y-37454819D01*
X126999047Y-37454819D02*
X127094285Y-37407200D01*
X127094285Y-37407200D02*
X127141904Y-37359580D01*
X127141904Y-37359580D02*
X127189523Y-37264342D01*
X127189523Y-37264342D02*
X127189523Y-36454819D01*
X127618095Y-37407200D02*
X127760952Y-37454819D01*
X127760952Y-37454819D02*
X127999047Y-37454819D01*
X127999047Y-37454819D02*
X128094285Y-37407200D01*
X128094285Y-37407200D02*
X128141904Y-37359580D01*
X128141904Y-37359580D02*
X128189523Y-37264342D01*
X128189523Y-37264342D02*
X128189523Y-37169104D01*
X128189523Y-37169104D02*
X128141904Y-37073866D01*
X128141904Y-37073866D02*
X128094285Y-37026247D01*
X128094285Y-37026247D02*
X127999047Y-36978628D01*
X127999047Y-36978628D02*
X127808571Y-36931009D01*
X127808571Y-36931009D02*
X127713333Y-36883390D01*
X127713333Y-36883390D02*
X127665714Y-36835771D01*
X127665714Y-36835771D02*
X127618095Y-36740533D01*
X127618095Y-36740533D02*
X127618095Y-36645295D01*
X127618095Y-36645295D02*
X127665714Y-36550057D01*
X127665714Y-36550057D02*
X127713333Y-36502438D01*
X127713333Y-36502438D02*
X127808571Y-36454819D01*
X127808571Y-36454819D02*
X128046666Y-36454819D01*
X128046666Y-36454819D02*
X128189523Y-36502438D01*
X128951428Y-36931009D02*
X129094285Y-36978628D01*
X129094285Y-36978628D02*
X129141904Y-37026247D01*
X129141904Y-37026247D02*
X129189523Y-37121485D01*
X129189523Y-37121485D02*
X129189523Y-37264342D01*
X129189523Y-37264342D02*
X129141904Y-37359580D01*
X129141904Y-37359580D02*
X129094285Y-37407200D01*
X129094285Y-37407200D02*
X128999047Y-37454819D01*
X128999047Y-37454819D02*
X128618095Y-37454819D01*
X128618095Y-37454819D02*
X128618095Y-36454819D01*
X128618095Y-36454819D02*
X128951428Y-36454819D01*
X128951428Y-36454819D02*
X129046666Y-36502438D01*
X129046666Y-36502438D02*
X129094285Y-36550057D01*
X129094285Y-36550057D02*
X129141904Y-36645295D01*
X129141904Y-36645295D02*
X129141904Y-36740533D01*
X129141904Y-36740533D02*
X129094285Y-36835771D01*
X129094285Y-36835771D02*
X129046666Y-36883390D01*
X129046666Y-36883390D02*
X128951428Y-36931009D01*
X128951428Y-36931009D02*
X128618095Y-36931009D01*
X86814819Y-63615866D02*
X86338628Y-63949199D01*
X86814819Y-64187294D02*
X85814819Y-64187294D01*
X85814819Y-64187294D02*
X85814819Y-63806342D01*
X85814819Y-63806342D02*
X85862438Y-63711104D01*
X85862438Y-63711104D02*
X85910057Y-63663485D01*
X85910057Y-63663485D02*
X86005295Y-63615866D01*
X86005295Y-63615866D02*
X86148152Y-63615866D01*
X86148152Y-63615866D02*
X86243390Y-63663485D01*
X86243390Y-63663485D02*
X86291009Y-63711104D01*
X86291009Y-63711104D02*
X86338628Y-63806342D01*
X86338628Y-63806342D02*
X86338628Y-64187294D01*
X85814819Y-63282532D02*
X85814819Y-62615866D01*
X85814819Y-62615866D02*
X86814819Y-63044437D01*
X43789695Y-50058419D02*
X43789695Y-50867942D01*
X43789695Y-50867942D02*
X43837314Y-50963180D01*
X43837314Y-50963180D02*
X43884933Y-51010800D01*
X43884933Y-51010800D02*
X43980171Y-51058419D01*
X43980171Y-51058419D02*
X44170647Y-51058419D01*
X44170647Y-51058419D02*
X44265885Y-51010800D01*
X44265885Y-51010800D02*
X44313504Y-50963180D01*
X44313504Y-50963180D02*
X44361123Y-50867942D01*
X44361123Y-50867942D02*
X44361123Y-50058419D01*
X45361123Y-51058419D02*
X44789695Y-51058419D01*
X45075409Y-51058419D02*
X45075409Y-50058419D01*
X45075409Y-50058419D02*
X44980171Y-50201276D01*
X44980171Y-50201276D02*
X44884933Y-50296514D01*
X44884933Y-50296514D02*
X44789695Y-50344133D01*
X86719580Y-73826666D02*
X86767200Y-73874285D01*
X86767200Y-73874285D02*
X86814819Y-74017142D01*
X86814819Y-74017142D02*
X86814819Y-74112380D01*
X86814819Y-74112380D02*
X86767200Y-74255237D01*
X86767200Y-74255237D02*
X86671961Y-74350475D01*
X86671961Y-74350475D02*
X86576723Y-74398094D01*
X86576723Y-74398094D02*
X86386247Y-74445713D01*
X86386247Y-74445713D02*
X86243390Y-74445713D01*
X86243390Y-74445713D02*
X86052914Y-74398094D01*
X86052914Y-74398094D02*
X85957676Y-74350475D01*
X85957676Y-74350475D02*
X85862438Y-74255237D01*
X85862438Y-74255237D02*
X85814819Y-74112380D01*
X85814819Y-74112380D02*
X85814819Y-74017142D01*
X85814819Y-74017142D02*
X85862438Y-73874285D01*
X85862438Y-73874285D02*
X85910057Y-73826666D01*
X85814819Y-72921904D02*
X85814819Y-73398094D01*
X85814819Y-73398094D02*
X86291009Y-73445713D01*
X86291009Y-73445713D02*
X86243390Y-73398094D01*
X86243390Y-73398094D02*
X86195771Y-73302856D01*
X86195771Y-73302856D02*
X86195771Y-73064761D01*
X86195771Y-73064761D02*
X86243390Y-72969523D01*
X86243390Y-72969523D02*
X86291009Y-72921904D01*
X86291009Y-72921904D02*
X86386247Y-72874285D01*
X86386247Y-72874285D02*
X86624342Y-72874285D01*
X86624342Y-72874285D02*
X86719580Y-72921904D01*
X86719580Y-72921904D02*
X86767200Y-72969523D01*
X86767200Y-72969523D02*
X86814819Y-73064761D01*
X86814819Y-73064761D02*
X86814819Y-73302856D01*
X86814819Y-73302856D02*
X86767200Y-73398094D01*
X86767200Y-73398094D02*
X86719580Y-73445713D01*
X101908780Y-73826666D02*
X101956400Y-73874285D01*
X101956400Y-73874285D02*
X102004019Y-74017142D01*
X102004019Y-74017142D02*
X102004019Y-74112380D01*
X102004019Y-74112380D02*
X101956400Y-74255237D01*
X101956400Y-74255237D02*
X101861161Y-74350475D01*
X101861161Y-74350475D02*
X101765923Y-74398094D01*
X101765923Y-74398094D02*
X101575447Y-74445713D01*
X101575447Y-74445713D02*
X101432590Y-74445713D01*
X101432590Y-74445713D02*
X101242114Y-74398094D01*
X101242114Y-74398094D02*
X101146876Y-74350475D01*
X101146876Y-74350475D02*
X101051638Y-74255237D01*
X101051638Y-74255237D02*
X101004019Y-74112380D01*
X101004019Y-74112380D02*
X101004019Y-74017142D01*
X101004019Y-74017142D02*
X101051638Y-73874285D01*
X101051638Y-73874285D02*
X101099257Y-73826666D01*
X101004019Y-73493332D02*
X101004019Y-72874285D01*
X101004019Y-72874285D02*
X101384971Y-73207618D01*
X101384971Y-73207618D02*
X101384971Y-73064761D01*
X101384971Y-73064761D02*
X101432590Y-72969523D01*
X101432590Y-72969523D02*
X101480209Y-72921904D01*
X101480209Y-72921904D02*
X101575447Y-72874285D01*
X101575447Y-72874285D02*
X101813542Y-72874285D01*
X101813542Y-72874285D02*
X101908780Y-72921904D01*
X101908780Y-72921904D02*
X101956400Y-72969523D01*
X101956400Y-72969523D02*
X102004019Y-73064761D01*
X102004019Y-73064761D02*
X102004019Y-73350475D01*
X102004019Y-73350475D02*
X101956400Y-73445713D01*
X101956400Y-73445713D02*
X101908780Y-73493332D01*
X53784667Y-73559200D02*
X53927524Y-73606819D01*
X53927524Y-73606819D02*
X54165619Y-73606819D01*
X54165619Y-73606819D02*
X54260857Y-73559200D01*
X54260857Y-73559200D02*
X54308476Y-73511580D01*
X54308476Y-73511580D02*
X54356095Y-73416342D01*
X54356095Y-73416342D02*
X54356095Y-73321104D01*
X54356095Y-73321104D02*
X54308476Y-73225866D01*
X54308476Y-73225866D02*
X54260857Y-73178247D01*
X54260857Y-73178247D02*
X54165619Y-73130628D01*
X54165619Y-73130628D02*
X53975143Y-73083009D01*
X53975143Y-73083009D02*
X53879905Y-73035390D01*
X53879905Y-73035390D02*
X53832286Y-72987771D01*
X53832286Y-72987771D02*
X53784667Y-72892533D01*
X53784667Y-72892533D02*
X53784667Y-72797295D01*
X53784667Y-72797295D02*
X53832286Y-72702057D01*
X53832286Y-72702057D02*
X53879905Y-72654438D01*
X53879905Y-72654438D02*
X53975143Y-72606819D01*
X53975143Y-72606819D02*
X54213238Y-72606819D01*
X54213238Y-72606819D02*
X54356095Y-72654438D01*
X54689429Y-72606819D02*
X54927524Y-73606819D01*
X54927524Y-73606819D02*
X55118000Y-72892533D01*
X55118000Y-72892533D02*
X55308476Y-73606819D01*
X55308476Y-73606819D02*
X55546572Y-72606819D01*
X56356095Y-72940152D02*
X56356095Y-73606819D01*
X56118000Y-72559200D02*
X55879905Y-73273485D01*
X55879905Y-73273485D02*
X56498952Y-73273485D01*
X65619333Y-61313219D02*
X65286000Y-60837028D01*
X65047905Y-61313219D02*
X65047905Y-60313219D01*
X65047905Y-60313219D02*
X65428857Y-60313219D01*
X65428857Y-60313219D02*
X65524095Y-60360838D01*
X65524095Y-60360838D02*
X65571714Y-60408457D01*
X65571714Y-60408457D02*
X65619333Y-60503695D01*
X65619333Y-60503695D02*
X65619333Y-60646552D01*
X65619333Y-60646552D02*
X65571714Y-60741790D01*
X65571714Y-60741790D02*
X65524095Y-60789409D01*
X65524095Y-60789409D02*
X65428857Y-60837028D01*
X65428857Y-60837028D02*
X65047905Y-60837028D01*
X65952667Y-60313219D02*
X66571714Y-60313219D01*
X66571714Y-60313219D02*
X66238381Y-60694171D01*
X66238381Y-60694171D02*
X66381238Y-60694171D01*
X66381238Y-60694171D02*
X66476476Y-60741790D01*
X66476476Y-60741790D02*
X66524095Y-60789409D01*
X66524095Y-60789409D02*
X66571714Y-60884647D01*
X66571714Y-60884647D02*
X66571714Y-61122742D01*
X66571714Y-61122742D02*
X66524095Y-61217980D01*
X66524095Y-61217980D02*
X66476476Y-61265600D01*
X66476476Y-61265600D02*
X66381238Y-61313219D01*
X66381238Y-61313219D02*
X66095524Y-61313219D01*
X66095524Y-61313219D02*
X66000286Y-61265600D01*
X66000286Y-61265600D02*
X65952667Y-61217980D01*
%TO.C,U2*%
D12*
X68598447Y-33780000D02*
X106688095Y-33780000D01*
X106688095Y-75698501D01*
X68598447Y-75698501D01*
X68598447Y-33780000D01*
%TO.C,SW5*%
D16*
X42790000Y-80240000D02*
X42790000Y-81740000D01*
X44040000Y-84240000D02*
X48540000Y-84240000D01*
X48540000Y-77740000D02*
X44040000Y-77740000D01*
X49790000Y-81740000D02*
X49790000Y-80240000D01*
%TO.C,R2*%
X56420000Y-55540000D02*
X62960000Y-55540000D01*
X56420000Y-55870000D02*
X56420000Y-55540000D01*
X56420000Y-57950000D02*
X56420000Y-58280000D01*
X56420000Y-58280000D02*
X62960000Y-58280000D01*
X62960000Y-55540000D02*
X62960000Y-55870000D01*
X62960000Y-58280000D02*
X62960000Y-57950000D01*
%TO.C,C1*%
X107310000Y-56282000D02*
X107310000Y-55478000D01*
X107350000Y-56513000D02*
X107350000Y-55247000D01*
X107390000Y-56681000D02*
X107390000Y-55079000D01*
X107430000Y-56819000D02*
X107430000Y-54941000D01*
X107470000Y-56938000D02*
X107470000Y-54822000D01*
X107510000Y-57045000D02*
X107510000Y-54715000D01*
X107550000Y-57141000D02*
X107550000Y-54619000D01*
X107590000Y-57230000D02*
X107590000Y-54530000D01*
X107630000Y-57312000D02*
X107630000Y-54448000D01*
X107670000Y-57389000D02*
X107670000Y-54371000D01*
X107710000Y-57461000D02*
X107710000Y-54299000D01*
X107750000Y-57529000D02*
X107750000Y-54231000D01*
X107790000Y-57594000D02*
X107790000Y-54166000D01*
X107830000Y-57655000D02*
X107830000Y-54105000D01*
X107870000Y-57714000D02*
X107870000Y-54046000D01*
X107910000Y-57770000D02*
X107910000Y-53990000D01*
X107950000Y-57823000D02*
X107950000Y-53937000D01*
X107990000Y-57875000D02*
X107990000Y-53885000D01*
X108030000Y-57924000D02*
X108030000Y-53836000D01*
X108070000Y-57971000D02*
X108070000Y-53789000D01*
X108110000Y-58017000D02*
X108110000Y-53743000D01*
X108150000Y-58061000D02*
X108150000Y-53699000D01*
X108190000Y-58103000D02*
X108190000Y-53657000D01*
X108230000Y-58144000D02*
X108230000Y-53616000D01*
X108270000Y-54840000D02*
X108270000Y-53576000D01*
X108270000Y-58184000D02*
X108270000Y-56920000D01*
X108310000Y-54840000D02*
X108310000Y-53538000D01*
X108310000Y-58222000D02*
X108310000Y-56920000D01*
X108350000Y-54840000D02*
X108350000Y-53501000D01*
X108350000Y-58259000D02*
X108350000Y-56920000D01*
X108390000Y-54840000D02*
X108390000Y-53465000D01*
X108390000Y-58295000D02*
X108390000Y-56920000D01*
X108430000Y-54840000D02*
X108430000Y-53430000D01*
X108430000Y-58330000D02*
X108430000Y-56920000D01*
X108470000Y-54840000D02*
X108470000Y-53397000D01*
X108470000Y-58363000D02*
X108470000Y-56920000D01*
X108510000Y-54840000D02*
X108510000Y-53364000D01*
X108510000Y-58396000D02*
X108510000Y-56920000D01*
X108550000Y-54840000D02*
X108550000Y-53333000D01*
X108550000Y-58427000D02*
X108550000Y-56920000D01*
X108590000Y-54840000D02*
X108590000Y-53303000D01*
X108590000Y-58457000D02*
X108590000Y-56920000D01*
X108630000Y-54840000D02*
X108630000Y-53273000D01*
X108630000Y-58487000D02*
X108630000Y-56920000D01*
X108670000Y-54840000D02*
X108670000Y-53244000D01*
X108670000Y-58516000D02*
X108670000Y-56920000D01*
X108710000Y-54840000D02*
X108710000Y-53217000D01*
X108710000Y-58543000D02*
X108710000Y-56920000D01*
X108750000Y-54840000D02*
X108750000Y-53190000D01*
X108750000Y-58570000D02*
X108750000Y-56920000D01*
X108790000Y-54840000D02*
X108790000Y-53164000D01*
X108790000Y-58596000D02*
X108790000Y-56920000D01*
X108830000Y-54840000D02*
X108830000Y-53139000D01*
X108830000Y-58621000D02*
X108830000Y-56920000D01*
X108870000Y-54840000D02*
X108870000Y-53115000D01*
X108870000Y-58645000D02*
X108870000Y-56920000D01*
X108910000Y-54840000D02*
X108910000Y-53091000D01*
X108910000Y-58669000D02*
X108910000Y-56920000D01*
X108950000Y-54840000D02*
X108950000Y-53068000D01*
X108950000Y-58692000D02*
X108950000Y-56920000D01*
X108990000Y-54840000D02*
X108990000Y-53046000D01*
X108990000Y-58714000D02*
X108990000Y-56920000D01*
X109030000Y-54840000D02*
X109030000Y-53025000D01*
X109030000Y-58735000D02*
X109030000Y-56920000D01*
X109070000Y-54840000D02*
X109070000Y-53004000D01*
X109070000Y-58756000D02*
X109070000Y-56920000D01*
X109110000Y-54840000D02*
X109110000Y-52984000D01*
X109110000Y-58776000D02*
X109110000Y-56920000D01*
X109150000Y-54840000D02*
X109150000Y-52965000D01*
X109150000Y-58795000D02*
X109150000Y-56920000D01*
X109190000Y-54840000D02*
X109190000Y-52946000D01*
X109190000Y-58814000D02*
X109190000Y-56920000D01*
X109230000Y-54840000D02*
X109230000Y-52928000D01*
X109230000Y-58832000D02*
X109230000Y-56920000D01*
X109270000Y-54840000D02*
X109270000Y-52911000D01*
X109270000Y-58849000D02*
X109270000Y-56920000D01*
X109310000Y-54840000D02*
X109310000Y-52894000D01*
X109310000Y-58866000D02*
X109310000Y-56920000D01*
X109350000Y-54840000D02*
X109350000Y-52878000D01*
X109350000Y-58882000D02*
X109350000Y-56920000D01*
X109390000Y-54840000D02*
X109390000Y-52863000D01*
X109390000Y-58897000D02*
X109390000Y-56920000D01*
X109430000Y-54840000D02*
X109430000Y-52848000D01*
X109430000Y-58912000D02*
X109430000Y-56920000D01*
X109470000Y-54840000D02*
X109470000Y-52833000D01*
X109470000Y-58927000D02*
X109470000Y-56920000D01*
X109510000Y-54840000D02*
X109510000Y-52820000D01*
X109510000Y-58940000D02*
X109510000Y-56920000D01*
X109550000Y-54840000D02*
X109550000Y-52807000D01*
X109550000Y-58953000D02*
X109550000Y-56920000D01*
X109590000Y-54840000D02*
X109590000Y-52794000D01*
X109590000Y-58966000D02*
X109590000Y-56920000D01*
X109630000Y-54840000D02*
X109630000Y-52782000D01*
X109630000Y-58978000D02*
X109630000Y-56920000D01*
X109670000Y-54840000D02*
X109670000Y-52771000D01*
X109670000Y-58989000D02*
X109670000Y-56920000D01*
X109710000Y-54840000D02*
X109710000Y-52760000D01*
X109710000Y-59000000D02*
X109710000Y-56920000D01*
X109750000Y-54840000D02*
X109750000Y-52749000D01*
X109750000Y-59011000D02*
X109750000Y-56920000D01*
X109790000Y-54840000D02*
X109790000Y-52740000D01*
X109790000Y-59020000D02*
X109790000Y-56920000D01*
X109830000Y-54840000D02*
X109830000Y-52730000D01*
X109830000Y-59030000D02*
X109830000Y-56920000D01*
X109870000Y-54840000D02*
X109870000Y-52721000D01*
X109870000Y-59039000D02*
X109870000Y-56920000D01*
X109910000Y-54840000D02*
X109910000Y-52713000D01*
X109910000Y-59047000D02*
X109910000Y-56920000D01*
X109950000Y-54840000D02*
X109950000Y-52706000D01*
X109950000Y-59054000D02*
X109950000Y-56920000D01*
X109990000Y-54840000D02*
X109990000Y-52698000D01*
X109990000Y-59062000D02*
X109990000Y-56920000D01*
X110030000Y-54840000D02*
X110030000Y-52692000D01*
X110030000Y-59068000D02*
X110030000Y-56920000D01*
X110070000Y-54840000D02*
X110070000Y-52685000D01*
X110070000Y-59075000D02*
X110070000Y-56920000D01*
X110110000Y-54840000D02*
X110110000Y-52680000D01*
X110110000Y-59080000D02*
X110110000Y-56920000D01*
X110150000Y-54840000D02*
X110150000Y-52675000D01*
X110150000Y-59085000D02*
X110150000Y-56920000D01*
X110190000Y-54840000D02*
X110190000Y-52670000D01*
X110190000Y-59090000D02*
X110190000Y-56920000D01*
X110230000Y-54840000D02*
X110230000Y-52666000D01*
X110230000Y-59094000D02*
X110230000Y-56920000D01*
X110270000Y-54840000D02*
X110270000Y-52662000D01*
X110270000Y-59098000D02*
X110270000Y-56920000D01*
X110310000Y-54840000D02*
X110310000Y-52659000D01*
X110310000Y-59101000D02*
X110310000Y-56920000D01*
X110350000Y-59104000D02*
X110350000Y-52656000D01*
X110390000Y-59106000D02*
X110390000Y-52654000D01*
X110430000Y-59108000D02*
X110430000Y-52652000D01*
X110470000Y-59109000D02*
X110470000Y-52651000D01*
X110510000Y-59110000D02*
X110510000Y-52650000D01*
X110550000Y-59110000D02*
X110550000Y-52650000D01*
X113735241Y-58034000D02*
X113735241Y-57404000D01*
X114050241Y-57719000D02*
X113420241Y-57719000D01*
X113820000Y-55880000D02*
G75*
G02*
X107280000Y-55880000I-3270000J0D01*
G01*
X107280000Y-55880000D02*
G75*
G02*
X113820000Y-55880000I3270000J0D01*
G01*
%TO.C,R9*%
X74830000Y-53880000D02*
X75160000Y-53880000D01*
X74830000Y-60420000D02*
X74830000Y-53880000D01*
X75160000Y-60420000D02*
X74830000Y-60420000D01*
X77240000Y-60420000D02*
X77570000Y-60420000D01*
X77570000Y-53880000D02*
X77240000Y-53880000D01*
X77570000Y-60420000D02*
X77570000Y-53880000D01*
%TO.C,D4*%
X115550000Y-82275000D02*
X115550000Y-85365000D01*
X115550000Y-82275170D02*
G75*
G02*
X121100000Y-83820000I2560000J-1544830D01*
G01*
X121100000Y-83820000D02*
G75*
G02*
X115550000Y-85364830I-2990000J0D01*
G01*
X120610000Y-83820000D02*
G75*
G02*
X115610000Y-83820000I-2500000J0D01*
G01*
X115610000Y-83820000D02*
G75*
G02*
X120610000Y-83820000I2500000J0D01*
G01*
%TO.C,D1*%
X74910000Y-82275000D02*
X74910000Y-85365000D01*
X74910000Y-82275170D02*
G75*
G02*
X80460000Y-83820000I2560000J-1544830D01*
G01*
X80460000Y-83820000D02*
G75*
G02*
X74910000Y-85364830I-2990000J0D01*
G01*
X79970000Y-83820000D02*
G75*
G02*
X74970000Y-83820000I-2500000J0D01*
G01*
X74970000Y-83820000D02*
G75*
G02*
X79970000Y-83820000I2500000J0D01*
G01*
%TO.C,R4*%
X95150000Y-53880000D02*
X95480000Y-53880000D01*
X95150000Y-60420000D02*
X95150000Y-53880000D01*
X95480000Y-60420000D02*
X95150000Y-60420000D01*
X97560000Y-60420000D02*
X97890000Y-60420000D01*
X97890000Y-53880000D02*
X97560000Y-53880000D01*
X97890000Y-60420000D02*
X97890000Y-53880000D01*
%TO.C,D2*%
X59460000Y-38100000D02*
X60110000Y-38100000D01*
X60710000Y-36980000D02*
X60710000Y-39220000D01*
X60830000Y-36980000D02*
X60830000Y-39220000D01*
X60950000Y-36980000D02*
X60950000Y-39220000D01*
X65000000Y-38100000D02*
X64350000Y-38100000D01*
X60110000Y-36980000D02*
X64350000Y-36980000D01*
X64350000Y-39220000D01*
X60110000Y-39220000D01*
X60110000Y-36980000D01*
%TO.C,C4*%
X90070000Y-66150000D02*
X90400000Y-66150000D01*
X90070000Y-71090000D02*
X90070000Y-66150000D01*
X90400000Y-71090000D02*
X90070000Y-71090000D01*
X92480000Y-66150000D02*
X92810000Y-66150000D01*
X92810000Y-66150000D02*
X92810000Y-71090000D01*
X92810000Y-71090000D02*
X92480000Y-71090000D01*
%TO.C,D3*%
X110470000Y-67035000D02*
X110470000Y-70125000D01*
X110470000Y-67035170D02*
G75*
G02*
X116020000Y-68580000I2560000J-1544830D01*
G01*
X116020000Y-68580000D02*
G75*
G02*
X110470000Y-70124830I-2990000J0D01*
G01*
X115530000Y-68580000D02*
G75*
G02*
X110530000Y-68580000I-2500000J0D01*
G01*
X110530000Y-68580000D02*
G75*
G02*
X115530000Y-68580000I2500000J0D01*
G01*
%TO.C,SW3*%
X103720000Y-80860000D02*
X103720000Y-85360000D01*
X106220000Y-86610000D02*
X107720000Y-86610000D01*
X107720000Y-79610000D02*
X106220000Y-79610000D01*
X110220000Y-85360000D02*
X110220000Y-80860000D01*
%TO.C,R5*%
X100230000Y-53880000D02*
X100560000Y-53880000D01*
X100230000Y-60420000D02*
X100230000Y-53880000D01*
X100560000Y-60420000D02*
X100230000Y-60420000D01*
X102640000Y-60420000D02*
X102970000Y-60420000D01*
X102970000Y-53880000D02*
X102640000Y-53880000D01*
X102970000Y-60420000D02*
X102970000Y-53880000D01*
%TO.C,SW1*%
D12*
X57150000Y-44450000D02*
X64770000Y-44450000D01*
X57150000Y-46990000D02*
X57150000Y-44450000D01*
X64770000Y-44450000D02*
X64770000Y-46990000D01*
X64770000Y-46990000D02*
X57150000Y-46990000D01*
%TO.C,C7*%
D16*
X74830000Y-66150000D02*
X75160000Y-66150000D01*
X74830000Y-71090000D02*
X74830000Y-66150000D01*
X75160000Y-71090000D02*
X74830000Y-71090000D01*
X77240000Y-66150000D02*
X77570000Y-66150000D01*
X77570000Y-66150000D02*
X77570000Y-71090000D01*
X77570000Y-71090000D02*
X77240000Y-71090000D01*
%TO.C,C6*%
X79910000Y-66150000D02*
X80240000Y-66150000D01*
X79910000Y-71090000D02*
X79910000Y-66150000D01*
X80240000Y-71090000D02*
X79910000Y-71090000D01*
X82320000Y-66150000D02*
X82650000Y-66150000D01*
X82650000Y-66150000D02*
X82650000Y-71090000D01*
X82650000Y-71090000D02*
X82320000Y-71090000D01*
%TO.C,R8*%
X79910000Y-53880000D02*
X80240000Y-53880000D01*
X79910000Y-60420000D02*
X79910000Y-53880000D01*
X80240000Y-60420000D02*
X79910000Y-60420000D01*
X82320000Y-60420000D02*
X82650000Y-60420000D01*
X82650000Y-53880000D02*
X82320000Y-53880000D01*
X82650000Y-60420000D02*
X82650000Y-53880000D01*
%TO.C,R11*%
X125000000Y-84530000D02*
X125000000Y-84860000D01*
X125000000Y-87270000D02*
X125000000Y-86940000D01*
X131540000Y-84530000D02*
X125000000Y-84530000D01*
X131540000Y-84860000D02*
X131540000Y-84530000D01*
X131540000Y-86940000D02*
X131540000Y-87270000D01*
X131540000Y-87270000D02*
X125000000Y-87270000D01*
%TO.C,R10*%
X125000000Y-88580000D02*
X125000000Y-88910000D01*
X125000000Y-91320000D02*
X125000000Y-90990000D01*
X131540000Y-88580000D02*
X125000000Y-88580000D01*
X131540000Y-88910000D02*
X131540000Y-88580000D01*
X131540000Y-90990000D02*
X131540000Y-91320000D01*
X131540000Y-91320000D02*
X125000000Y-91320000D01*
%TO.C,J1*%
X48930000Y-42350000D02*
X48930000Y-40050000D01*
X49230000Y-34530000D02*
X52340000Y-34530000D01*
X49230000Y-40640000D02*
X49230000Y-34530000D01*
X49330000Y-40640000D02*
X49230000Y-40640000D01*
X49330000Y-41140000D02*
X49330000Y-40640000D01*
X49680000Y-34530000D02*
X49680000Y-38540000D01*
X49680000Y-38540000D02*
X55000000Y-38540000D01*
X49830000Y-42050000D02*
X49330000Y-41140000D01*
X50840000Y-42050000D02*
X49830000Y-42050000D01*
X51040000Y-41800000D02*
X50840000Y-42050000D01*
X51040000Y-41800000D02*
X51640000Y-41800000D01*
X51090000Y-35490000D02*
X51340000Y-35240000D01*
X51090000Y-38540000D02*
X51090000Y-35490000D01*
X51230000Y-42350000D02*
X48930000Y-42350000D01*
X51340000Y-35240000D02*
X51590000Y-35490000D01*
X51590000Y-35490000D02*
X51590000Y-38540000D01*
X51640000Y-41800000D02*
X51840000Y-42050000D01*
X51840000Y-42050000D02*
X52840000Y-42050000D01*
X52840000Y-42050000D02*
X53040000Y-41800000D01*
X53040000Y-41800000D02*
X53640000Y-41800000D01*
X53090000Y-35490000D02*
X53340000Y-35240000D01*
X53090000Y-38540000D02*
X53090000Y-35490000D01*
X53340000Y-35240000D02*
X53590000Y-35490000D01*
X53590000Y-35490000D02*
X53590000Y-38540000D01*
X53640000Y-41800000D02*
X53840000Y-42050000D01*
X53840000Y-42050000D02*
X54850000Y-42050000D01*
X54850000Y-42050000D02*
X55350000Y-41140000D01*
X55000000Y-38540000D02*
X55000000Y-34530000D01*
X55350000Y-40640000D02*
X55450000Y-40640000D01*
X55350000Y-41140000D02*
X55350000Y-40640000D01*
X55450000Y-34530000D02*
X52340000Y-34530000D01*
X55450000Y-40640000D02*
X55450000Y-34530000D01*
%TO.C,SW7*%
X60710000Y-80240000D02*
X60710000Y-81740000D01*
X61960000Y-84240000D02*
X66460000Y-84240000D01*
X66460000Y-77740000D02*
X61960000Y-77740000D01*
X67710000Y-81740000D02*
X67710000Y-80240000D01*
%TO.C,SW6*%
X51710000Y-88240000D02*
X51710000Y-89740000D01*
X52960000Y-92240000D02*
X57460000Y-92240000D01*
X57460000Y-85740000D02*
X52960000Y-85740000D01*
X58710000Y-89740000D02*
X58710000Y-88240000D01*
%TO.C,BZ1*%
X106023600Y-40884000D02*
G75*
G02*
X93823600Y-40884000I-6100000J0D01*
G01*
X93823600Y-40884000D02*
G75*
G02*
X106023600Y-40884000I6100000J0D01*
G01*
%TO.C,R6*%
X90070000Y-53880000D02*
X90400000Y-53880000D01*
X90070000Y-60420000D02*
X90070000Y-53880000D01*
X90400000Y-60420000D02*
X90070000Y-60420000D01*
X92480000Y-60420000D02*
X92810000Y-60420000D01*
X92810000Y-53880000D02*
X92480000Y-53880000D01*
X92810000Y-60420000D02*
X92810000Y-53880000D01*
%TO.C,R1*%
X56420000Y-51490000D02*
X62960000Y-51490000D01*
X56420000Y-51820000D02*
X56420000Y-51490000D01*
X56420000Y-53900000D02*
X56420000Y-54230000D01*
X56420000Y-54230000D02*
X62960000Y-54230000D01*
X62960000Y-51490000D02*
X62960000Y-51820000D01*
X62960000Y-54230000D02*
X62960000Y-53900000D01*
%TO.C,SW2*%
X91560000Y-84110000D02*
X91560000Y-88610000D01*
X94060000Y-89860000D02*
X95560000Y-89860000D01*
X95560000Y-82860000D02*
X94060000Y-82860000D01*
X98060000Y-88610000D02*
X98060000Y-84110000D01*
%TO.C,C2*%
X95150000Y-66150000D02*
X95480000Y-66150000D01*
X95150000Y-71090000D02*
X95150000Y-66150000D01*
X95480000Y-71090000D02*
X95150000Y-71090000D01*
X97560000Y-66150000D02*
X97890000Y-66150000D01*
X97890000Y-66150000D02*
X97890000Y-71090000D01*
X97890000Y-71090000D02*
X97560000Y-71090000D01*
%TO.C,A1*%
X118860000Y-33060000D02*
X118860000Y-76500000D01*
X118860000Y-33060000D02*
X123940000Y-33060000D01*
X118860000Y-76500000D02*
X136900000Y-76500000D01*
X121530000Y-35730000D02*
X118860000Y-35730000D01*
X121530000Y-73830000D02*
X118860000Y-73830000D01*
X121530000Y-73830000D02*
X121530000Y-35730000D01*
X123940000Y-30520000D02*
X131820000Y-30520000D01*
X123940000Y-40940000D02*
X123940000Y-30520000D01*
X131820000Y-30520000D02*
X131820000Y-40940000D01*
X131820000Y-40940000D02*
X123940000Y-40940000D01*
X134230000Y-35730000D02*
X136900000Y-35730000D01*
X134230000Y-71290000D02*
X134230000Y-35730000D01*
X134230000Y-71290000D02*
X134230000Y-73830000D01*
X134230000Y-71290000D02*
X136900000Y-71290000D01*
X134230000Y-73830000D02*
X136900000Y-73830000D01*
X136900000Y-33060000D02*
X131820000Y-33060000D01*
X136900000Y-71290000D02*
X136900000Y-33060000D01*
X136900000Y-76500000D02*
X136900000Y-73830000D01*
%TO.C,R7*%
X84990000Y-53880000D02*
X85320000Y-53880000D01*
X84990000Y-60420000D02*
X84990000Y-53880000D01*
X85320000Y-60420000D02*
X84990000Y-60420000D01*
X87400000Y-60420000D02*
X87730000Y-60420000D01*
X87730000Y-53880000D02*
X87400000Y-53880000D01*
X87730000Y-60420000D02*
X87730000Y-53880000D01*
%TO.C,U1*%
X41901600Y-51603600D02*
X41901600Y-61883600D01*
X41901600Y-61883600D02*
X47201600Y-61883600D01*
X43551600Y-51603600D02*
X41901600Y-51603600D01*
X47201600Y-51603600D02*
X45551600Y-51603600D01*
X47201600Y-61883600D02*
X47201600Y-51603600D01*
X45551600Y-51603600D02*
G75*
G02*
X43551600Y-51603600I-1000000J0D01*
G01*
%TO.C,C5*%
X84990000Y-66150000D02*
X85320000Y-66150000D01*
X84990000Y-71090000D02*
X84990000Y-66150000D01*
X85320000Y-71090000D02*
X84990000Y-71090000D01*
X87400000Y-66150000D02*
X87730000Y-66150000D01*
X87730000Y-66150000D02*
X87730000Y-71090000D01*
X87730000Y-71090000D02*
X87400000Y-71090000D01*
%TO.C,C3*%
X100230000Y-66150000D02*
X100560000Y-66150000D01*
X100230000Y-71090000D02*
X100230000Y-66150000D01*
X100560000Y-71090000D02*
X100230000Y-71090000D01*
X102640000Y-66150000D02*
X102970000Y-66150000D01*
X102970000Y-66150000D02*
X102970000Y-71090000D01*
X102970000Y-71090000D02*
X102640000Y-71090000D01*
%TO.C,SW4*%
X51710000Y-72400000D02*
X51710000Y-73900000D01*
X52960000Y-76400000D02*
X57460000Y-76400000D01*
X57460000Y-69900000D02*
X52960000Y-69900000D01*
X58710000Y-73900000D02*
X58710000Y-72400000D01*
%TO.C,R3*%
X56420000Y-59590000D02*
X62960000Y-59590000D01*
X56420000Y-59920000D02*
X56420000Y-59590000D01*
X56420000Y-62000000D02*
X56420000Y-62330000D01*
X56420000Y-62330000D02*
X62960000Y-62330000D01*
X62960000Y-59590000D02*
X62960000Y-59920000D01*
X62960000Y-62330000D02*
X62960000Y-62000000D01*
%TD*%
M02*
